<?xml version="1.0" standalone="no"?>
<!DOCTYPE svg PUBLIC "-//W3C//DTD SVG 1.1//EN" "http://www.w3.org/Graphics/SVG/1.1/DTD/svg11.dtd" >
<svg xmlns="http://www.w3.org/2000/svg">
<metadata></metadata>
<defs>
<font id="asulbold" horiz-adv-x="643" >
<font-face units-per-em="1000" ascent="800" descent="-200" />
<missing-glyph horiz-adv-x="225" />
<glyph horiz-adv-x="0" />
<glyph unicode="&#xd;" horiz-adv-x="333" />
<glyph unicode=" "  horiz-adv-x="225" />
<glyph unicode="&#x09;" horiz-adv-x="225" />
<glyph unicode="&#xa0;" horiz-adv-x="225" />
<glyph unicode="!" horiz-adv-x="306" d="M210 197l-109 -16q0 225 -9 402q-6 66 -42 89v17l172 27l13 -19q-7 -40 -16 -262t-9 -238zM97 94l9 8q56 18 110 18l11 -6q9 -8 12.5 -34t3.5 -40t-2 -25l-9 -8q-49 -14 -107 -18l-11 5q-8 14 -13 41.5t-5 40t1 18.5z" />
<glyph unicode="&#x22;" horiz-adv-x="507" d="M220 687q8 -12 8 -44.5t-11.5 -112.5t-22.5 -108h-62q-6 14 -16 70q-17 98 -17 139t8 55l16 12q19 6 42 6t41 -6zM400 687q8 -12 8 -44.5t-11.5 -112.5t-22.5 -108h-62q-6 14 -16 70q-17 98 -17 139t8 55l16 12q20 6 42.5 6t40.5 -6z" />
<glyph unicode="#" horiz-adv-x="609" d="M536 199h-106q-4 -28 -4.5 -36.5t-19.5 -168.5h-98l-2 14q14 47 41 191h-131q-5 -40 -5 -43l-20 -162h-98l-2 14q14 47 41 191h-130l22 93h125l17 97h-129l25 93h119l29 206l93 18l3 -14q-9 -30 -16 -59.5t-28 -150.5h134l29 206l93 18l2 -14q-18 -55 -44 -210h116 l-19 -93h-112l-16 -97h111zM247 389q-15 -91 -16 -97h133l17 97h-134z" />
<glyph unicode="$" horiz-adv-x="621" d="M561 197q0 -91 -58 -143t-158 -63q0 -62 4 -106l-80 -16l-5 14q6 42 10 105q-123 5 -220 70q3 71 56 135q76 -82 166 -111v228q-30 13 -43 18.5t-40 19t-40 23.5t-32 27.5t-28 34.5q-23 43 -23 93q0 84 57.5 129.5t148.5 54.5q-2 54 -4 82l76 26l5 -14q-7 -60 -8 -93 q99 -7 197 -49q-11 -74 -51 -141q-72 65 -146 91v-192q42 -17 62.5 -26t55.5 -30t52.5 -41.5t31.5 -53.5t14 -72zM429 165q0 68 -84 113v-206q37 0 65 15q19 25 19 78zM193 553q0 -61 83 -103v175q-32 0 -65 -14q-18 -18 -18 -58z" />
<glyph unicode="%" horiz-adv-x="851" d="M585 716l104 4l-1 -6q-42 -60 -145 -232.5t-149 -255.5l-127 -237l-105 -8l1 6q41 59 142.5 231t151.5 261zM530.5 39.5q-43.5 57.5 -43.5 151.5t48 149.5t124 55.5t114.5 -56t38.5 -146t-44 -151t-119 -61t-118.5 57.5zM718 180q0 150 -74 150q-29 0 -42 -15 q-21 -38 -21 -107q0 -163 81 -163q23 0 34 17q22 28 22 118zM69.5 348.5q-43.5 57.5 -43.5 151.5t48 149.5t124 55.5t114.5 -56t38.5 -146t-44 -151t-119 -61t-118.5 57.5zM257 489q0 150 -74 150q-29 0 -42 -15q-21 -38 -21 -107q0 -163 81 -163q23 0 34 17q22 28 22 118z " />
<glyph unicode="&#x26;" horiz-adv-x="855" d="M672 323q0 -91 -33 -163q105 -62 220 -119l-84 -108q-95 67 -196 142q-89 -86 -241 -86t-225 65t-73 166q0 84 41 130.5t95 64.5q-63 76 -63 156q0 140 205 140q65 0 127.5 -12.5t86.5 -21.5q-3 -27 -12 -56t-41 -67q-105 82 -168 82q-35 0 -56 -21t-21 -54 q0 -97 191 -248q76 -59 136 -101q6 33 6 83t-16 99l-114 2l55 71q80 -6 119 -6l154 4l-34 -71h-63q4 -34 4 -71zM226 359q-47 -42 -47 -115t48.5 -125t132 -52t142.5 40q5 3 14 12q-128 95 -177.5 135t-112.5 105z" />
<glyph unicode="'" horiz-adv-x="318" d="M216 687q8 -12 8 -44.5t-11.5 -112.5t-22.5 -108h-62q-6 14 -16 70q-17 98 -17 139t8 55l16 12q20 6 42.5 6t40.5 -6z" />
<glyph unicode="(" horiz-adv-x="449" d="M247 13q52 -93 170 -140q-3 -20 -23 -54l-9 -3q-133 46 -222.5 165t-89.5 295q0 273 177 408q63 48 135 73l9 -3q18 -34 23 -55q-129 -50 -179 -168q-43 -102 -43 -263.5t52 -254.5z" />
<glyph unicode=")" horiz-adv-x="449" d="M200 684q176 -135 176 -408q0 -176 -89.5 -295t-222.5 -165l-9 3q-20 34 -23 54q118 47 170 140t52 265q0 246 -112 353q-45 43 -110 68q5 21 23 55l9 3q72 -25 136 -73z" />
<glyph unicode="*" horiz-adv-x="426" d="M249 340q-12 54 -36 109q-22 -48 -36 -109l-15 -19l-99 67l10 21q53 29 90 69q-58 -9 -104 -35l-21 4l-1 120l23 1q51 -16 102 -23q-62 57 -88 69l-8 22l84 60l20 -18q15 -57 43 -107q31 54 43 107l20 18l84 -60l-8 -22q-28 -14 -88 -69q51 7 102 23l23 -1l-1 -120 l-22 -4q-42 25 -103 35q43 -45 90 -69l10 -21l-99 -67z" />
<glyph unicode="+" horiz-adv-x="648" d="M372 352h234l-1 -87h-233v-220h-105v220h-225l1 88l224 -1l1 213l104 -1v-212z" />
<glyph unicode="," horiz-adv-x="302" d="M210 96q12 -24 12 -59.5t-9 -63t-31 -58.5q-26 -39 -76 -95l-74 25q31 49 44 85t13 76t-21 74l5 14q50 19 109 19q7 0 13 -1q15 -15 15 -16z" />
<glyph unicode="-" horiz-adv-x="362" d="M53 325q40 -9 87 -9l82 1q22 0 68.5 2t70.5 2l-38 -99h-14q-68 9 -174 9l-134 -6l38 100h14z" />
<glyph unicode="." horiz-adv-x="341" d="M252 135q10 -10 14 -40t4 -46.5t-2 -28.5l-10 -9q-45 -13 -134 -21l-12 6q-9 15 -14.5 50t-5.5 48.5v17.5l10 9q64 21 127 21h11z" />
<glyph unicode="/" horiz-adv-x="374" d="M286 711l120 23v-22q-41 -77 -130.5 -298t-122 -306.5t-68.5 -193.5l-131 -34v22q32 58 121.5 270t123.5 301z" />
<glyph unicode="0" horiz-adv-x="742" d="M150.5 89.5q-80.5 100.5 -80.5 266t88 262t229.5 96.5t213 -98t71.5 -256.5t-81 -264.5t-210 -106q-150 0 -230.5 100.5zM514 196.5q14 68.5 14 136t-7.5 117.5t-25.5 92q-37 87 -134 87q-28 0 -55.5 -8t-39.5 -19q-22 -29 -37 -93.5t-15 -119t5 -97t17.5 -84t32.5 -70.5 q45 -65 126 -65q17 0 42.5 8t37.5 22q25 25 39 93.5z" />
<glyph unicode="1" horiz-adv-x="423" d="M299 220q0 -138 16 -198v-22h-166v22q16 60 16 198v286q0 68 -3 85q-59 -12 -131 -15l-11 57q111 19 183 67h101l-5 -118v-362z" />
<glyph unicode="2" horiz-adv-x="590" d="M366 543q0 94 -82 94q-61 0 -183 -95q-49 53 -56 119q137 51 243.5 51t164 -43.5t57.5 -118.5q0 -105 -108 -239q-54 -66 -98.5 -113t-111.5 -113q63 0 87 1q180 6 243 55l27 -19l-47 -122h-439l-24 57q57 56 92.5 92t85 94t78 102.5t50 98t21.5 99.5z" />
<glyph unicode="3" horiz-adv-x="563" d="M446.5 54.5q-71.5 -64.5 -197 -64.5t-231.5 55v6q0 50 41 93q113 -79 191 -79h5q52 0 80 16q44 41 44 132q0 69 -30.5 97.5t-99.5 28.5t-97 -4h-20l-23 76h109q50 0 82 38.5t32 88.5q0 103 -75 103q-67 0 -164 -76q-39 53 -47 114q116 33 221 33q199 0 199 -150 q0 -60 -30.5 -103.5t-72.5 -64.5q155 -33 155 -176q0 -99 -71.5 -163.5z" />
<glyph unicode="4" horiz-adv-x="632" d="M467 187q0 -90 12 -165v-22h-153v22q12 74 12 155v10q-219 0 -294 -1l-28 55q115 194 299 458l155 15q-5 -107 -5 -440l114 6l-21 -93h-91zM340 272q1 117 1 192.5v121.5q-142 -204 -208 -317q109 0 207 3z" />
<glyph unicode="5" horiz-adv-x="601" d="M414 213q0 119 -170 130l-133 9l-25 27q17 127 55 319l354 5l25 -146h-19q-32 28 -91.5 44.5t-127.5 16.5h-52q-21 -64 -40 -188q112 -5 154.5 -10.5t83.5 -19t66 -34.5q59 -48 59 -144.5t-76.5 -164.5t-201.5 -68t-261 67q4 21 23 54.5t37 49.5q128 -92 226 -92 q46 0 76 13q18 21 28 59.5t10 72.5z" />
<glyph unicode="6" horiz-adv-x="656" d="M526 411q33 -23 53 -66.5t20 -102.5q0 -111 -68 -181.5t-193 -70.5t-196.5 71t-71.5 220q0 209 156 328q54 40 127.5 68.5t137.5 36.5l13 -57q-135 -41 -201 -111q-48 -52 -72 -134q67 43 149.5 43t145.5 -44zM214 254q0 -99 28.5 -145.5t100.5 -46.5q53 0 75 14 q16 19 26.5 59t10.5 99.5t-29 96t-84.5 36.5t-125.5 -47q-2 -40 -2 -66z" />
<glyph unicode="7" horiz-adv-x="504" d="M251 700l257 1l3 -12q-20 -34 -144 -347q-82 -207 -105 -345h-181l-4 22q101 168 180 333.5t118 261.5q-72 3 -103 3q-142 0 -205 -58h-17l-29 145q140 -4 230 -4z" />
<glyph unicode="8" horiz-adv-x="636" d="M551 544q0 -105 -118 -177q82 -47 116.5 -84.5t34.5 -97.5q0 -93 -75 -144.5t-190 -51.5t-191 50.5t-76 143.5q0 127 150 182q-56 35 -82 73t-26 92q0 88 62.5 135t165 47t166 -40.5t63.5 -127.5zM440 167q0 43 -34 75t-128 80q-82 -37 -82 -127q0 -125 129 -125 q51 0 80 12q35 24 35 85zM225 547q0 -39 27.5 -68.5t107.5 -69.5q60 44 60 129q0 109 -102 109q-37 0 -63 -12q-30 -26 -30 -88z" />
<glyph unicode="9" horiz-adv-x="657" d="M130 276q-33 24 -52.5 69t-19.5 106q0 117 69 188.5t192.5 71.5t195.5 -73t72 -226q0 -224 -163 -341q-88 -61 -255 -83l-17 57q58 10 112.5 36t93.5 67.5t62 115.5q-72 -33 -149 -33t-141 45zM443 441q0 102 -28.5 149t-100.5 47q-50 0 -74 -14q-38 -49 -38 -151 q0 -151 115 -151q57 0 121 30q5 67 5 90z" />
<glyph unicode=":" horiz-adv-x="343" d="M223 456q16 -14 16 -65q0 -13 -2 -24l-9 -8q-55 -15 -108 -18l-11 5q-17 30 -17 79v11l9 8q57 18 106 18q5 0 16 -6zM241 105q16 -14 16 -65q0 -13 -2 -24l-9 -8q-55 -15 -108 -18l-11 5q-17 30 -17 79v11l9 8q57 18 106 18q5 0 16 -6z" />
<glyph unicode=";" horiz-adv-x="340" d="M230 96q12 -24 12 -59.5t-9 -63t-31 -58.5q-26 -39 -76 -95l-74 25q31 49 44 85t13 76t-21 74l5 14q50 19 109 19q7 0 13 -1q15 -15 15 -16zM189 451q16 -14 16 -65q0 -13 -2 -24l-9 -8q-55 -15 -108 -18l-11 5q-17 30 -17 79v11l9 8q57 18 106 18q5 0 16 -6z" />
<glyph unicode="&#x3c;" horiz-adv-x="536" d="M526 136v-91l-516 242v70l516 243v-92l-398 -186z" />
<glyph unicode="=" horiz-adv-x="535" d="M525 414l-1 -87h-514l1 88zM525 262l-1 -87h-514l1 88z" />
<glyph unicode="&#x3e;" horiz-adv-x="534" d="M9 45v91l398 186l-398 186v92l516 -243v-70z" />
<glyph unicode="?" horiz-adv-x="484" d="M313 531q0 90 -84 90q-62 0 -148 -66q-36 52 -36 114v13q90 31 189 31t156 -42t57 -127q0 -55 -25 -104t-64 -83q-62 -53 -118 -81v-6q0 -19 12 -60v-18q-36 -7 -65.5 -7t-61.5 6v19q10 46 10 63.5v20.5l20 14q158 110 158 223zM230 114q5 0 16 -6q16 -14 16 -71 q0 -13 -2 -24l-9 -8q-38 -11 -98 -16l-11 5q-8 14 -12.5 41.5t-4.5 39v15.5l9 8q52 16 96 16z" />
<glyph unicode="@" horiz-adv-x="872" d="M421 -54q-168 0 -277 94.5t-109 266.5t114 286.5t305 114.5t286 -88.5t95 -224.5q0 -117 -76.5 -197.5t-180.5 -80.5q-102 0 -102 108h-5q-49 -52 -95 -80t-79 -28q-84 0 -84 118q0 76 32 147t102.5 121.5t166.5 50.5q71 0 130 -19l-74 -250q-10 -34 -10 -57 q0 -43 35 -41q61 3 100 69t39 129t-20.5 105.5t-52 68t-73.5 42.5q-73 29 -150.5 29t-130.5 -18q-156 -89 -156 -284q0 -156 80 -230.5t207 -74.5q100 0 209 52l32 -47q-119 -82 -258 -82zM528 478q-18 7 -49.5 7t-62.5 -10q-47 -58 -70 -144q-13 -48 -13 -85.5t13 -37.5 q21 0 104 78q33 32 40 64z" />
<glyph unicode="A" d="M399 236q-38 1 -105 1t-108 -1q-33 -114 -39 -140.5t-6 -73.5v-22h-168v22q52 36 129 266t101 304.5t28 107.5l154 15q0 -38 66 -218q123 -336 171 -413q23 -39 52 -62v-22h-212v22q0 42 -63 214zM288 574q-33 -95 -83 -265h173q-6 17 -18 57q-26 89 -72 208z" />
<glyph unicode="B" horiz-adv-x="720" d="M190 698l171 2q118 0 180 -32t62 -112q0 -54 -27.5 -93t-68.5 -59q49 -12 93 -49q53 -44 53 -126.5t-41 -133.5t-104.5 -74t-159.5 -23q-156 4 -160 4l-80 -2v23q20 49 20 140v365q0 98 -17 150v22q28 -2 79 -2zM305 357h-35q0 -239 3 -287q40 -6 61 -6q76 0 122.5 41 t46.5 110q0 142 -198 142zM436 613q-30 25 -84.5 25t-80.5 -3q-1 -14 -1 -217h68q128 0 128 110q0 60 -30 85z" />
<glyph unicode="C" horiz-adv-x="728" d="M200 375q0 -138 69.5 -214t173.5 -76q78 0 220 72l37 -54q-75 -49 -102.5 -64t-85 -33t-114.5 -18q-145 0 -247 97t-102 260t117.5 265t291.5 102q117 0 226 -52q-13 -63 -57 -123q-69 51 -125 70.5t-102.5 19.5t-80.5 -5q-52 -36 -85.5 -98t-33.5 -149z" />
<glyph unicode="D" horiz-adv-x="824" d="M186 698l199 3q198 0 294 -80.5t96 -247.5q0 -103 -37 -185t-108 -129q-88 -59 -241 -59h-19l-184 1h-78v22q17 64 17 198v258q0 135 -17 199v22q44 -2 78 -2zM267 393v-58q0 -215 3 -248q65 -5 114 -5q125 0 173 28q67 70 67 247q0 147 -59.5 208.5t-198.5 61.5 q-4 0 -97 -1q-2 -48 -2 -233z" />
<glyph unicode="E" horiz-adv-x="634" d="M335 629q-41 0 -64 -2q-2 -46 -2 -225l257 5l-35 -83h-19q-38 8 -111.5 8t-91.5 -2v-53q0 -168 3 -201q23 -2 76.5 -2t128.5 9t110 23h19l-19 -106h-479v22q17 72 17 201v253q0 130 -17 202v22l465 3l-30 -88h-19q-49 14 -189 14z" />
<glyph unicode="F" horiz-adv-x="565" d="M500 605q-56 16 -131.5 16t-98.5 -2q-3 -29 -3 -221l230 5l-37 -94h-19q-48 10 -102 10t-72 -2v-93q0 -142 16 -202v-22h-175v22q17 72 17 201v253q0 130 -17 202v22l440 3l-29 -98h-19z" />
<glyph unicode="G" horiz-adv-x="765" d="M684 264q0 -132 6 -181q-58 -36 -139.5 -65.5t-158.5 -29.5q-145 0 -244 97t-99 251.5t108 265t269 110.5q143 0 265 -88q-43 -47 -126 -94q-31 42 -85 71t-109.5 29t-77.5 -6q-93 -80 -93 -257q0 -145 53 -218.5t174 -73.5q61 0 109 16q14 73 14 170h-133l51 80 q96 -7 163 -7t111 2l-35 -72h-23z" />
<glyph unicode="H" horiz-adv-x="830" d="M707 477v-254q0 -144 15 -201v-22h-172v22q6 23 10.5 92.5t4.5 105.5v95q-112 2 -178 2t-122 -1v-96q0 -35 4.5 -105t9.5 -93v-22h-171v22q15 57 15 201v254q0 144 -15 201v22h171v-22q-5 -23 -9.5 -93t-4.5 -106v-76h300v76q0 37 -4.5 106.5t-10.5 92.5v22h172v-22 q-15 -57 -15 -201z" />
<glyph unicode="I" horiz-adv-x="390" d="M266 469v-239q0 -148 16 -208v-22h-174v22q16 60 16 208v249q0 139 -16 199v22h174v-22q-7 -23 -11.5 -96.5t-4.5 -112.5z" />
<glyph unicode="J" horiz-adv-x="406" d="M140 203v276q0 147 -18 199v22h176v-22q-7 -23 -11.5 -96.5t-4.5 -112.5v-308q0 -98 -14 -140.5t-21.5 -65t-27 -47t-28.5 -36.5t-36 -34t-35 -28l-80 -58l-53 48q23 16 56 43q60 51 78.5 123t18.5 237z" />
<glyph unicode="K" horiz-adv-x="675" d="M474 700h166v-22q-55 -8 -132 -99l-159 -194l136 -166q143 -175 229 -197v-22h-194q-58 65 -255 316v-96q0 -35 4.5 -105t9.5 -93v-22h-171v22q15 57 15 201v254q0 144 -15 201v22h171v-22q-5 -23 -9.5 -93t-4.5 -106v-71l144 172q65 78 65 120z" />
<glyph unicode="L" horiz-adv-x="584" d="M108 0v22q16 69 16 198v259q0 139 -16 199v22h174v-22q-7 -23 -11.5 -94t-4.5 -108v-267q0 -73 6 -133q19 -2 79 -2q158 0 234 32h19l-18 -106h-478z" />
<glyph unicode="M" horiz-adv-x="938" d="M75 22q38 227 38 528q0 80 -4 129v22l165 13q10 -48 42.5 -149t156.5 -419q82 227 125 368t51 185l171 18v-22q-1 -21 -1 -84.5t11.5 -232t38.5 -356.5v-22h-165v22q3 59 3 133q0 186 -18 350q-123 -344 -169 -503l-121 -12q0 47 -179 520q-11 -176 -11 -292.5t3 -195.5 v-22h-137v22z" />
<glyph unicode="N" horiz-adv-x="784" d="M209 0h-137v22q16 60 16 227v203q0 149 -13 225v22l158 11l352 -494v263q0 51 -7 112.5t-16 86.5v22h141v-22q-6 -25 -11 -97.5t-5 -129.5v-238q0 -58 6 -127t10 -84l-131 -13l-382 535v-304q0 -126 19 -198v-22z" />
<glyph unicode="O" horiz-adv-x="824" d="M144.5 89q-95.5 101 -95.5 255.5t107 262t273 107.5t256 -100t90 -246q0 -165 -107.5 -272.5t-267.5 -107.5t-255.5 101zM624 341q0 83 -19.5 145t-71.5 103.5t-134 41.5q-37 0 -75 -8.5t-55 -18.5q-30 -31 -49.5 -95t-19.5 -134.5t12.5 -121t39 -93t73.5 -67 t113.5 -24.5t116.5 28q69 66 69 244z" />
<glyph unicode="P" horiz-adv-x="683" d="M190 698l167 2q141 0 214.5 -44t73.5 -152.5t-86 -170t-218 -61.5q-36 0 -71 7v-131q0 -74 20 -126v-22h-182v22q20 57 20 140v359q0 100 -17 157v22q68 -2 79 -2zM462 602q-33 33 -105.5 33t-84.5 -1q-2 -30 -2 -166v-128q32 -9 70 -9q76 0 115.5 43t39.5 119t-33 109z " />
<glyph unicode="Q" horiz-adv-x="827" d="M144.5 88.5q-95.5 100.5 -95.5 256t108 262.5t272 107t254.5 -98t90.5 -251q0 -184 -137 -297q83 -72 161 -109l1 -8l-145 -47q-60 69 -105 113q-67 -29 -150 -29q-159 0 -254.5 100.5zM510 607q-45 24 -116.5 24t-125.5 -27q-30 -33 -49 -97.5t-19 -131.5t11 -117 t36.5 -95t74 -71t115.5 -26q29 0 53 6q-26 24 -105 91v6l101 38q43 -49 88 -86q50 84 50 212q0 214 -114 274z" />
<glyph unicode="R" horiz-adv-x="707" d="M209 698l143 2q129 0 199.5 -39t70.5 -131.5t-57 -148.5t-152 -65l114 -133q73 -85 112.5 -117t71.5 -42v-24h-175q-14 21 -69 91l-180 219q-12 0 -17 1v-139q0 -98 16 -150v-22h-178v22q20 52 20 140v359q0 100 -17 157v22q28 -2 98 -2zM443.5 608.5 q-30.5 26.5 -95 26.5t-76.5 -1q-2 -30 -2 -260q23 -3 57 -3q80 0 113.5 35.5t33.5 105.5t-30.5 96.5z" />
<glyph unicode="S" horiz-adv-x="623" d="M274 459.5q31 -14.5 55.5 -25.5t31.5 -14.5t33.5 -15.5t33.5 -15.5t31 -17.5t33 -23t26 -26.5t24 -33.5q19 -45 19 -91q0 -103 -73.5 -156t-201 -53t-232.5 70q3 72 55 135q48 -53 108 -87t109.5 -34t87.5 22q19 25 19 78q0 40 -23 64q-14 13 -23.5 21.5t-33.5 20.5 q-24 13 -97.5 45.5t-102.5 51.5q-83 56 -83 150.5t71.5 140.5t177.5 46t223 -50q-12 -69 -51 -134q-51 47 -108 76.5t-103 29.5t-73 -15q-16 -19 -16 -59t26 -63t57 -37.5z" />
<glyph unicode="T" horiz-adv-x="554" d="M-10 601q0 45 -5 102q195 -3 292 -3t292 3q-5 -57 -5 -102h-19q-113 26 -194 29q-4 -50 -4 -150v-262q0 -136 16 -196v-22h-172v22q14 60 14 193v261q0 103 -4 154q-75 -3 -192 -29h-19z" />
<glyph unicode="U" horiz-adv-x="769" d="M676 491v-179q0 -182 -66.5 -252.5t-223.5 -70.5t-227 68.5t-70 219.5v198q0 149 -16 203v22h172v-22q-14 -90 -14 -233v-123q0 -101 12.5 -144t30.5 -62q41 -45 125.5 -45t125.5 26q26 39 33 107t7 230.5t-16 243.5v22h143v-21q-7 -23 -11.5 -87.5t-4.5 -100.5z" />
<glyph unicode="V" horiz-adv-x="695" d="M530 700h172v-22q-55 -44 -143 -282q-119 -344 -135 -395l-144 -15q-1 52 -179 500q-65 164 -106 192v22h204v-22q0 -52 43 -181l131 -374l118 362q35 105 39 193v22z" />
<glyph unicode="W" horiz-adv-x="1021" d="M863 678v22h166v-22q-47 -66 -114 -280.5t-116 -397.5l-152 -14q-14 99 -111 425l-29 98q-20 -60 -35.5 -111t-107.5 -398l-153 -14q-3 84 -136 501q-31 97 -47 135t-32 56v22h184v-28q0 -68 31 -168l103 -367q126 418 130 563h153q6 -49 29 -144.5t121 -418.5 q6 21 28.5 96.5t34.5 118.5q37 136 45 208t8 118z" />
<glyph unicode="X" horiz-adv-x="670" d="M315 284q-148 -209 -148 -285l-181 1v22q61 33 130 130q105 149 142 204l-82 125q-112 172 -170 197v22l226 -1v-22q0 -34 22 -78q25 -50 90 -146q122 173 122 247h176v-22q-31 -16 -57.5 -44t-87.5 -110.5t-98 -139.5q171 -251 210.5 -298.5t69.5 -63.5v-22h-224v22 q0 16 -11.5 39t-19 37.5t-13.5 24.5t-16 26.5t-15 25.5z" />
<glyph unicode="Y" horiz-adv-x="562" d="M355 220q0 -36 4.5 -105.5t10.5 -92.5v-22h-162v22q15 57 15 172v100l-98 182q-39 71 -80 132t-60 70v22h185v-22q0 -40 37 -115t97 -183q84 170 103 220.5t19 77.5v22h145v-22q-36 -25 -88 -122q-29 -54 -128 -264v-72z" />
<glyph unicode="Z" horiz-adv-x="585" d="M163 76q29 -2 116.5 -2t171.5 9t120 23h19l-23 -106h-536l-35 58l419 568q-24 1 -105 1q-156 0 -259 -38h-19l21 109l485 7l40 -66z" />
<glyph unicode="[" horiz-adv-x="485" d="M228 -114q68 0 119 19h19l44 -83l-315 4v931l315 3l-44 -82h-19q-45 17 -117 17h-15v-729q0 -51 2 -80h11z" />
<glyph unicode="\" horiz-adv-x="277" d="M356 -92l-70 -97l-15 15q-26 83 -120.5 304t-129.5 297.5t-93 189.5l70 114l16 -16q19 -63 106.5 -275.5t127.5 -301.5z" />
<glyph unicode="]" horiz-adv-x="485" d="M277 -114h11q2 29 2 80v729h-15q-72 0 -117 -17h-19l-44 82l315 -3v-931l-315 -4l44 83h19q51 -19 119 -19z" />
<glyph unicode="^" horiz-adv-x="634" d="M276 682h88l152 -303h-102l-96 199l-101 -199h-99z" />
<glyph unicode="_" horiz-adv-x="625" d="M601 -135h-577v91h577v-91z" />
<glyph unicode="`" horiz-adv-x="523" d="M391 544l-37 -39q-113 56 -222 152q37 53 100 75q60 -103 159 -188z" />
<glyph unicode="a" horiz-adv-x="552" d="M338 200q-36 13 -79.5 13t-66.5 -16q-15 -19 -15 -50q0 -78 68 -78q56 0 93 46v85zM204 -18q-63 0 -111 38t-48 110q0 139 203 139l89 -4v61q0 52 -26 84t-80 32q-12 0 -31 -12.5t-32 -25.5q-41 -39 -66 -64q-50 59 -54 119q128 40 216 40t147 -41t59 -129v-157 q0 -45 15 -86t37 -55l2 -22l-143 -30q-16 30 -30 84q-26 -28 -42 -41.5t-44.5 -26.5t-60.5 -13z" />
<glyph unicode="b" horiz-adv-x="626" d="M223 81q71 -25 116 -25t58 10q15 19 28 76.5t13 113.5q0 169 -82 169q-53 0 -133 -47v-297zM223 642v-195q67 52 138 52q103 0 162 -67.5t59 -165.5q0 -121 -88 -203t-209 -82q-78 0 -202 47v22q11 28 11 132v388q0 76 -45 119v22l171 35l8 -22q-5 -27 -5 -82z" />
<glyph unicode="c" horiz-adv-x="542" d="M188 246q0 -175 102 -175q72 0 189 61l26 -41q-40 -37 -105.5 -73t-111.5 -36q-113 0 -178.5 69.5t-65.5 183t83 189t190 75.5t184 -51q-34 -57 -64 -89q-81 62 -155 62q-19 0 -34 -3q-26 -24 -43 -70t-17 -102z" />
<glyph unicode="d" horiz-adv-x="622" d="M289 -19q-118 0 -179 73t-61 182.5t77.5 186t196.5 76.5q44 0 85 -7v90q0 66 -45 107v22l167 35l10 -22q-3 -19 -3 -76v-467q0 -46 13.5 -86t35.5 -55l2 -22l-150 -39q-11 31 -20 68q-66 -66 -129 -66zM193 250q0 -76 27 -132.5t78 -56.5t110 47v280q-59 38 -129 38 q-30 0 -47 -13q-39 -48 -39 -163z" />
<glyph unicode="e" horiz-adv-x="540" d="M269 -19q-87 0 -156 65t-69 175.5t73 194t189 83.5q98 0 146 -63t48 -174l-38 -39h-274q1 -72 38.5 -111t90 -39t158.5 55l25 -38q-19 -18 -43 -37t-80.5 -45.5t-107.5 -26.5zM283 435q-37 0 -59 -15q-16 -25 -25 -66t-10 -73l175 10q0 144 -81 144z" />
<glyph unicode="f" horiz-adv-x="413" d="M257 208q0 -47 9 -104t20 -82v-22h-175v22q17 50 17 163v226q-59 -2 -88 -5l30 84l58 -3v54q0 87 44 143t137 56t196 -43q-34 -77 -60 -110q-82 70 -138 70q-22 0 -35 -8q-15 -23 -15 -122v-41q44 2 156 9l-36 -98q-65 9 -120 12v-201z" />
<glyph unicode="g" horiz-adv-x="595" d="M66 321q0 84 65.5 131t167.5 47q72 0 126 -27q66 0 137 10l33 -70h-101q26 -44 26 -91q0 -82 -61.5 -131.5t-158.5 -49.5q-37 0 -61 6q-25 -21 -25 -31.5t9.5 -16.5t34.5 -12q26 -6 62 -13q158 -29 202.5 -52.5t44.5 -80t-43 -97.5q-80 -78 -246 -78q-84 0 -160 25 q-40 14 -64.5 42t-24.5 66q0 81 101 121q-58 26 -58 61q0 20 10 30q31 31 62 42l14 7t13 6q-105 50 -105 156zM214 252q26 -55 87 -55q43 0 59 14q27 33 27 115q0 115 -99 115q-37 0 -62 -14q-27 -39 -27 -92.5t15 -82.5zM156 -78q0 -51 44.5 -75.5t93.5 -24.5t83.5 18.5 t34.5 59.5q0 23 -8.5 30.5t-11.5 10.5t-11 6.5t-12.5 5t-15 4.5t-16 4.5t-18.5 4.5t-40 10q-13 4 -86 18q-37 -21 -37 -72z" />
<glyph unicode="h" horiz-adv-x="647" d="M224 188q0 -113 25 -166v-22h-171v22q17 55 17 145v393q0 86 -45 129v22l165 35l12 -22q-3 -28 -3 -196v-110q52 41 90 61t82 20q80 0 123 -46.5t43 -134.5v-127q0 -99 30 -169v-22h-176v22q17 47 17 135v125q0 59 -15.5 86t-66 27t-127.5 -42v-165z" />
<glyph unicode="i" horiz-adv-x="314" d="M217 717q9 -8 12.5 -34t3.5 -40t-2 -25l-9 -8q-44 -13 -115 -18l-11 5q-8 13 -12.5 43t-4.5 41.5v15.5l9 8q54 18 107 18h11zM236 393v-214q0 -95 29 -157v-22h-175v22q17 51 17 135v148q0 55 -17 91.5t-43 50.5v22l183 34l12 -20q-6 -23 -6 -90z" />
<glyph unicode="j" horiz-adv-x="277" d="M211 384v-270q0 -157 -57 -236q-22 -29 -35 -42q-14 -14 -92 -86l-48 47q29 24 41 39q33 37 47.5 104t14.5 212v150q0 55 -20.5 94t-46.5 51v22l190 34l12 -20q-6 -27 -6 -99zM193 717q9 -8 12.5 -34t3.5 -40t-2 -25l-9 -8q-44 -13 -115 -18l-11 5q-8 13 -12.5 43 t-4.5 41.5v15.5l9 8q54 18 107 18h11z" />
<glyph unicode="k" horiz-adv-x="583" d="M241 0h-162v22q16 49 16 145v393q0 86 -45 129v22l165 35l12 -22q-3 -28 -3 -195v-194l150 114q23 18 23 37h157v-22q-38 -5 -105 -59l-141 -113l180 -193q16 -17 51.5 -44.5t58.5 -32.5v-22h-190q0 19 -20 40q-27 33 -164 184v-45q0 -109 17 -157v-22z" />
<glyph unicode="l" horiz-adv-x="297" d="M227 724q-4 -48 -4 -114t1 -81v-362q0 -93 16 -145l1 -22h-162v22q16 52 16 145v393q0 86 -45 129v22l165 35z" />
<glyph unicode="m" horiz-adv-x="929" d="M397 499q95 0 126 -84q33 27 53.5 42t51.5 28.5t59 13.5q75 0 116 -46.5t41 -134.5v-137q0 -89 30 -159v-22h-176v22q17 47 17 128v132q0 57 -14 85t-58.5 28t-106.5 -35q2 -26 2 -42v-137q0 -89 30 -159v-22h-166v22q17 47 17 128v132q0 57 -13 85t-54.5 28t-110.5 -42 v-174q0 -95 29 -157v-22h-175v22q17 51 17 135v148q0 112 -60 142v22l162 31l10 -19q8 -20 12 -64q47 42 82.5 62t78.5 20z" />
<glyph unicode="n" d="M401 499q75 0 116 -46.5t41 -134.5v-127q0 -99 30 -169v-22h-176v22q17 47 17 135v125q0 58 -14 85.5t-60 27.5t-117 -42v-164q0 -105 29 -167v-22h-175v22q17 51 17 142v134q0 119 -60 149v22l162 31l11 -19q8 -24 11 -64q51 41 88.5 61.5t79.5 20.5z" />
<glyph unicode="o" horiz-adv-x="608" d="M110.5 49q-66.5 68 -66.5 179t77 190.5t196.5 79.5t183 -66.5t63.5 -178.5t-77 -192t-193.5 -80t-183 68zM420 228q0 97 -28 151.5t-98 54.5q-45 0 -70 -22q-16 -23 -26 -69t-10 -89q0 -209 133 -209q40 0 65 21q17 23 25.5 70.5t8.5 91.5z" />
<glyph unicode="p" horiz-adv-x="633" d="M352 59q24 0 44 5q24 30 36 85.5t12 100.5q0 158 -83 158q-60 0 -132 -45v-273q65 -31 123 -31zM100 -90v394q0 44 -13.5 83.5t-35.5 51.5l-2 22l163 39l12 -19q-2 -15 -2 -49q67 67 140 67q101 0 163.5 -67t62.5 -163q0 -119 -84 -203t-191 -84q-43 0 -84 9v-27 q0 -119 40 -164v-22l-173 -21q4 52 4 153z" />
<glyph unicode="q" horiz-adv-x="586" d="M401 -20v60q-60 -58 -132 -58q-110 0 -167.5 73t-57.5 182t75 185.5t191 76.5q64 0 135 -27l41 27h5.5t21.5 -3.5t23 -6.5q-6 -46 -6 -140v-439q0 -99 4 -151l-173 11v22q40 52 40 188zM234 100q26 -29 69 -29t98 40v293q-50 23 -115 23q-19 0 -36 -4.5t-21 -8.5 q-41 -51 -41 -157t46 -157z" />
<glyph unicode="r" horiz-adv-x="412" d="M263 0h-175v22q17 54 17 134v149q0 44 -16.5 85.5t-39.5 54.5v22l141 33l10 -14q6 -9 18 -41q65 54 136 54q35 0 65 -14v-9q0 -63 -25 -126q-53 37 -114 37q-19 0 -46 -6v-197q0 -96 29 -162v-22z" />
<glyph unicode="s" horiz-adv-x="504" d="M276 65q57 0 57 55q0 51 -97 77q-40 11 -80 25t-68 45t-28 79q0 69 62 107.5t151 38.5t186 -43q-5 -44 -54 -106q-40 40 -83 61t-75 21t-49 -7q-15 -13 -15 -42.5t28.5 -45.5t69.5 -25.5t82 -23.5t69.5 -47.5t28.5 -87.5q0 -78 -60.5 -117.5t-160.5 -39.5t-191 57 q4 60 45 111q99 -92 182 -92z" />
<glyph unicode="t" horiz-adv-x="423" d="M246 116q0 -36 19 -36q27 0 101 31l30 -45q-40 -26 -95 -51.5t-96 -25.5q-88 0 -88 101v318q-15 0 -99 -7l36 90q18 -3 64 -5q-2 46 -6 85l134 34v-118q40 1 157 13l-39 -103q-51 9 -118 11v-292z" />
<glyph unicode="u" horiz-adv-x="640" d="M258 -13q-102 0 -137.5 43.5t-35.5 141.5v119q0 99 -30 167v22h174v-24q-15 -52 -15 -135v-133q0 -50 17 -77.5t48 -27.5q53 0 126 51v157q0 101 -29 167v22h173v-24q-15 -52 -15 -135v-133q0 -45 14.5 -88t34.5 -60l3 -22l-157 -40q-21 36 -24 81q-86 -72 -147 -72z" />
<glyph unicode="v" horiz-adv-x="496" d="M166 482q0 -24 41 -150l61 -176l68 215q18 54 18 103v12h143v-22q-29 -19 -57 -98l-114 -321l-14 -52l-122 -4l-18 58l-119 323q-11 30 -29 57t-30 32v22l172 13v-12z" />
<glyph unicode="w" horiz-adv-x="797" d="M161 478q0 -23 43 -149l60 -170q32 90 52 142q19 49 35 107q-21 45 -31 53v22l152 7v-15q0 -28 44 -153l59 -163q64 200 74.5 236.5t10.5 80.5v10h136l-1 -23q-27 -19 -52 -98l-104 -320l-13 -54l-116 -2l-18 58l-87 223l-81 -226l-11 -53l-113 -2l-18 58l-131 323 q-14 34 -30.5 59t-26.5 30v22l167 12v-15z" />
<glyph unicode="x" horiz-adv-x="530" d="M533 0h-203v15q0 40 -38 90l-41 55l-44 -67q-33 -50 -34 -78v-15h-173v22q22 7 53 33t53 60l83 129l-75 102q-30 41 -65 77.5t-50 40.5v22h187v-14q0 -26 48 -87l35 -47l34 53q34 54 34 82v14l172 -1v-22q-56 -18 -106 -97l-72 -113l86 -113q34 -45 68 -79t48 -40v-22z " />
<glyph unicode="y" horiz-adv-x="503" d="M166 479q0 -48 35 -141l78 -209q84 259 84 307v2q0 15 -5 26v22h145v-22q-13 -14 -40.5 -88t-119 -334.5t-94.5 -269.5v-18l-162 -9l-3 22q28 34 46 59q49 69 86 165l-143 329q-49 114 -80 140v22l173 11v-14z" />
<glyph unicode="z" horiz-adv-x="469" d="M444 426l-273 -344q172 0 252 21l22 -6l-35 -97h-366l-29 59l279 345q-171 0 -228 -25l-22 13l25 97l343 -3z" />
<glyph unicode="{" horiz-adv-x="446" d="M259 104v-69q0 -114 21 -137q11 -11 39 -11t84 10l8 -46q-78 -19 -120.5 -19t-72 11.5t-46.5 29.5t-26 49q-14 47 -14 130v82q0 79 -53 114q-10 6 -26 14v16q22 14 36.5 26t29 42t14.5 69v114q0 131 37 175q15 18 45.5 31t77 13t117.5 -19l-8 -46q-56 10 -91 10 t-43.5 -35.5t-8.5 -107.5v-116q0 -68 -34 -108q-24 -27 -63 -53v-6q97 -58 97 -163z" />
<glyph unicode="|" horiz-adv-x="274" d="M192 580v-723l-118 -46l-1 879v5l128 44q-9 -119 -9 -159z" />
<glyph unicode="}" horiz-adv-x="446" d="M187 35v69q0 105 97 163v6q-72 48 -88 100q-9 27 -9 61v116q0 72 -8.5 107.5t-43.5 35.5t-91 -10l-8 46q71 19 117.5 19t77 -13t46 -31.5t23.5 -51.5q13 -47 13 -123v-114q0 -39 14.5 -69t29 -42t36.5 -26v-16q-57 -29 -71 -74q-8 -23 -8 -54v-82q0 -137 -40 -179 q-39 -41 -118 -41q-43 0 -121 19l8 46q56 -10 91.5 -10t44 37t8.5 111z" />
<glyph unicode="~" horiz-adv-x="672" d="M440 206q-35 0 -104 26.5t-110 26.5t-101 -44l-45 87q88 48 150 48q32 0 105 -27t113.5 -27t100.5 41l43 -86q-80 -45 -152 -45z" />
<glyph unicode="&#xa1;" horiz-adv-x="306" d="M114 302l109 -20q0 -9 9 -233.5t16 -264.5l-13 -19l-172 27v17q36 23 42 89q9 177 9 404zM110 387q-1 6 -1 18.5t5 40t13 41.5l11 5q58 -4 107 -18l9 -8q2 -11 2 -25t-3.5 -40t-12.5 -34l-11 -6q-55 0 -110 18z" />
<glyph unicode="&#xa2;" horiz-adv-x="538" d="M104 52.5q-64 69.5 -64 177.5t70 180.5t171 85.5q0 47 -4 88l76 26l5 -14q-6 -48 -8 -99q86 -10 147 -49q-34 -57 -64 -89q-43 32 -83 48v-328q52 14 125 53l26 -41q-67 -63 -151 -94q0 -77 4 -112l-80 -16l-5 14q8 61 10 99q-111 1 -175 70.5zM184 246q0 -171 97 -175 v350h-3q-19 0 -34 -3q-26 -24 -43 -70t-17 -102z" />
<glyph unicode="&#xa3;" horiz-adv-x="558" d="M175 114q34 41 34 84.5t-38 136.5q-90 -3 -155 -8l36 83h14q40 -8 71 -8q-35 66 -35 115q0 75 67.5 132t177 57t183.5 -45q-31 -46 -60 -76q-73 50 -135 50q-19 0 -36 -2q-24 -14 -38.5 -47t-14.5 -69t30 -115q27 0 78.5 2t73.5 2l-35 -80h-14q-36 6 -73 6 q28 -67 28 -105q0 -55 -58 -123q-9 -10 -14.5 -15t-18.5 -18q189 7 272 59h22l-33 -142h-490l57 71q70 14 104 55z" />
<glyph unicode="&#xa4;" horiz-adv-x="676" d="M445 181q-55 -35 -115.5 -35t-115.5 35l-56 -62l-83 34l80 74q-40 55 -40 120t42 123l-82 77l83 31l56 -61q52 33 114 33t114 -33l45 51l11 11l83 -31l-84 -77q42 -55 42 -124.5t-43 -119.5l84 -77l-81 -31zM439 351q0 48 -32 81.5t-80.5 33.5t-79.5 -33.5t-31 -81.5 t31 -81t79.5 -33t80.5 33t32 81z" />
<glyph unicode="&#xa5;" horiz-adv-x="596" d="M372 240v-2q0 -38 4.5 -114t10.5 -100v-24h-162v24q15 60 15 184v32h-90q-44 0 -139 -7l35 82h188l-92 173q-39 68 -80.5 125.5t-59.5 65.5v21h185v-22q0 -41 39.5 -122.5t94.5 -182.5q84 176 103 226t19 79v22h145v-20q-37 -26 -88 -116q-19 -32 -66 -130.5t-57 -118.5 h80q45 0 139 7l-31 -82h-193z" />
<glyph unicode="&#xa6;" horiz-adv-x="274" d="M192 235v-378l-118 -46l-1 424h119zM192 355h-119v340l128 44q-9 -119 -9 -159v-225z" />
<glyph unicode="&#xa7;" horiz-adv-x="622" d="M313 -98q10 0 30 2q0 85 -34 159q-12 26 -41.5 60.5t-42 47t-52 49t-62.5 63t-43.5 74t-20.5 102.5q0 84 43 145q81 113 235 113q94 0 186 -38q-1 -25 -15.5 -61.5t-32.5 -62.5q-79 81 -151 81q-26 0 -48 -7q2 -83 47 -143q23 -30 42 -49.5t53.5 -49t48.5 -42.5t41.5 -43 t39.5 -54q33 -66 33 -138q0 -133 -81 -214t-196 -81q-51 0 -111.5 18.5t-106.5 51.5q3 67 49 124q101 -107 190 -107zM183 582q-38 -35 -38 -100.5t28 -111t73.5 -89.5t59.5 -58.5t43 -50t42 -62.5q36 -73 36 -154q15 19 26 56.5t11 76.5q0 81 -31.5 133.5t-92.5 105.5 q-34 30 -45 39.5t-38 38.5t-37 50q-34 67 -37 126z" />
<glyph unicode="&#xa8;" horiz-adv-x="544" d="M225 676q7 -8 10.5 -34t3.5 -40t-1 -23l-12 -11q-46 -12 -91 -15h-16l-15 5q-22 39 -22 98l15 11q50 13 94 15h22zM439 687q7 -8 10.5 -34t3.5 -40t-1 -23l-12 -11q-46 -12 -91 -15h-16l-15 5q-22 39 -22 98l15 11q50 13 94 15h22z" />
<glyph unicode="&#xa9;" horiz-adv-x="784" d="M647.5 606.5q105.5 -104.5 105.5 -253.5t-104.5 -254.5t-254.5 -105.5t-256.5 105.5t-106.5 253.5t106.5 253.5t255.5 105.5t254.5 -104.5zM591.5 147.5q83.5 84.5 83.5 203.5t-82 204.5t-198.5 85.5t-199.5 -85t-83 -204t82.5 -204t198 -85t199 84.5zM340.5 273.5 q18.5 -35.5 55 -35.5t80 15t59.5 25l31 -45q-1 0 -10.5 -7t-41.5 -25q-72 -41 -121 -41q-86 0 -136 54t-50 141t64.5 145.5t150.5 58.5t140 -42q-24 -43 -53 -70q-71 43 -108 43q-15 0 -32 -3q-22 -13 -34.5 -48t-12.5 -82.5t18.5 -83z" />
<glyph unicode="&#xaa;" horiz-adv-x="372" d="M214 526q-22 9 -49 9t-39 -11q-7 -17 -7 -37q0 -44 41 -44q12 0 28.5 8t25.5 19v56zM224 434q-32 -40 -83.5 -40t-81.5 22t-30 65q0 98 131 98l55 -2v35q0 54 -51 54q-24 0 -86 -57q-13 15 -24 39t-12 42q75 24 133.5 24t94 -26.5t35.5 -75.5v-103q0 -62 29 -85l3 -14 l-97 -18q-14 32 -16 42z" />
<glyph unicode="&#xab;" horiz-adv-x="632" d="M297 253l-7 23q48 27 64 41l162 140l47 -47l-133 -143l140 -149l-53 -54q-41 43 -54 53l-128 107zM70 253l-7 23q48 27 64 41l162 140l47 -47l-133 -143l140 -149l-53 -54q-41 43 -54 53l-128 107z" />
<glyph unicode="&#xac;" horiz-adv-x="569" d="M565 121h-91v217h-470v89h561v-306z" />
<glyph unicode="&#xad;" horiz-adv-x="362" d="M53 325q40 -9 87 -9l82 1q22 0 68.5 2t70.5 2l-38 -99h-14q-68 9 -174 9l-134 -6l38 100h14z" />
<glyph unicode="&#xae;" horiz-adv-x="784" d="M647.5 606.5q105.5 -104.5 105.5 -253.5t-104.5 -254.5t-254.5 -105.5t-256.5 105.5t-106.5 253.5t106.5 253.5t255.5 105.5t254.5 -104.5zM591.5 147.5q83.5 84.5 83.5 203.5t-82 204.5t-198.5 85.5t-199.5 -85t-83 -204t82.5 -204t198 -85t199 84.5zM276 550l129 1 q151 0 151 -95q0 -46 -35 -75t-89 -34l65 -78q59 -70 92 -81v-12h-130q-24 33 -116 170l-8 1v-76q0 -60 7 -83v-12h-121v12q11 28 11 78v190q0 58 -9 83v12zM426.5 494.5q-14.5 13.5 -47 13.5t-43.5 -2q-1 -11 -1 -122q13 -1 44.5 -1t46.5 15.5t15 49t-14.5 47z" />
<glyph unicode="&#xaf;" horiz-adv-x="500" d="M387 597h-274v77h274v-77z" />
<glyph unicode="&#xb0;" horiz-adv-x="367" d="M79.5 664.5q40.5 40.5 104 40.5t104 -39t40.5 -102.5t-39.5 -105.5t-103 -42t-105 40t-41.5 104t40.5 104.5zM189 487q43 0 63 20q8 21 8 44q0 83 -83 83q-40 0 -62 -20q-7 -21 -7 -44q0 -83 81 -83z" />
<glyph unicode="&#xb1;" horiz-adv-x="600" d="M341 456h217l-1 -87h-216v-206h-89v206h-210l1 88l209 -1l1 207l88 -1v-206zM558 87l-1 -87h-515l1 88z" />
<glyph unicode="&#xb2;" horiz-adv-x="398" d="M238 606q0 46 -33 46q-39 0 -122 -72q-42 41 -44 83q90 42 163 42t108 -26.5t35 -72.5q0 -96 -188 -269h43q110 6 148 34l16 -14l-27 -85h-289l-15 49q48 45 74 70.5t62 66.5q69 80 69 148z" />
<glyph unicode="&#xb3;" horiz-adv-x="364" d="M287.5 307q-50.5 -40 -128 -40t-136.5 42q0 41 30 65q24 -21 54 -33.5t54.5 -12.5t41.5 8q28 22 28 67t-19 58.5t-61 13.5t-60 -3h-3l-10 53h52q33 0 53.5 21.5t20.5 49t-13 42.5t-37 15q-35 0 -93 -58q-27 34 -32 83q85 27 140.5 27t97.5 -21t42 -64t-24 -70t-51 -33 q29 -2 55 -18q49 -30 49 -91t-50.5 -101z" />
<glyph unicode="&#xb4;" horiz-adv-x="549" d="M404 658q-109 -96 -222 -152l-37 39q100 85 160 187q63 -22 99 -74z" />
<glyph unicode="&#xb6;" horiz-adv-x="686" d="M429 -102v732h-64q-3 -230 -3 -498t4 -310l-98 -16l-4 13q11 74 11 140v230q-123 1 -196.5 79t-73.5 185.5t75 172.5t197 67l396 5l-31 -82h-14q-46 13 -112 14v-743q0 -93 4 -135l-98 -16l-4 14q11 77 11 148z" />
<glyph unicode="&#xb7;" horiz-adv-x="323" d="M233 343q10 -9 14 -40.5t4 -48.5t-2 -29l-10 -9q-44 -13 -137 -21l-12 6q-9 15 -14.5 51t-5.5 50v18l10 9q64 21 130 21h11z" />
<glyph unicode="&#xb8;" horiz-adv-x="522" d="M453 -81.5q23 -20.5 23 -58.5t-35 -61t-73 -23t-74 13t-51 22l19 41q32 -17 59.5 -17t42 9t14.5 23.5t-12 23.5q-14 4 -32 4t-39 -4l-13 19l43 88l76 -7l-34 -54q10 3 36.5 2.5t49.5 -21z" />
<glyph unicode="&#xb9;" horiz-adv-x="292" d="M221 631v-233q0 -84 9 -122v-4h-123v4q10 29 10 117v168q0 42 -3 57q-36 -8 -90 -10l-8 51q74 10 118 41h90q-3 -51 -3 -69z" />
<glyph unicode="&#xba;" horiz-adv-x="409" d="M82.5 436q-42.5 42 -42.5 110.5t49 118t124.5 49.5t115.5 -41.5t40 -110.5t-49 -118.5t-122 -49.5t-115.5 42zM252 459q21 28 21 85t-16 86t-58 29q-27 0 -41 -11q-22 -28 -22 -86q0 -114 79 -114q23 0 37 11z" />
<glyph unicode="&#xbb;" horiz-adv-x="631" d="M342 276l-7 -23l-38 -29l-128 -107q-13 -10 -54 -53l-53 54l140 149l-133 143l47 47l162 -140q16 -14 64 -41zM569 276l-7 -23l-38 -29l-128 -107q-13 -10 -54 -53l-53 54l140 149l-133 143l47 47l162 -140q16 -14 64 -41z" />
<glyph unicode="&#xbc;" horiz-adv-x="822" d="M719 99q0 -60 9 -96v-3h-120v3q5 27 7 91v5h-165l-25 52q66 113 170 271l125 7q-2 -54 -2 -264q16 0 46.5 2t32.5 2l-12 -70h-66zM593 718l108 7l15 -15q-90 -83 -416 -553l-44 -62l-71 -108l-110 -7l-15 15q55 52 193 240q214 292 340 483zM221 631v-233q0 -84 9 -122 v-4h-123v4q10 29 10 117v168q0 42 -3 57q-36 -8 -90 -10l-8 51q74 10 118 41h90q-3 -51 -3 -69zM616 164v188q-89 -133 -119 -190q33 0 119 2z" />
<glyph unicode="&#xbd;" horiz-adv-x="870" d="M591 718l108 7l15 -15q-88 -80 -416 -553l-44 -62l-71 -108l-110 -7l-15 15q55 52 193 240q214 292 340 483zM710 334q0 46 -33 46q-39 0 -122 -72q-42 41 -44 83q90 42 163 42t108 -26.5t35 -72.5q0 -96 -188 -269h43q110 6 148 34l16 -14l-27 -85h-289l-15 49 q48 45 74 70.5t62 66.5q69 80 69 148zM221 631v-233q0 -84 9 -122v-4h-123v4q10 29 10 117v168q0 42 -3 57q-36 -8 -90 -10l-8 51q74 10 118 41h90q-3 -51 -3 -69z" />
<glyph unicode="&#xbe;" horiz-adv-x="920" d="M287.5 307q-50.5 -40 -128 -40t-136.5 42q0 41 30 65q13 -12 45.5 -28.5t60 -17t44.5 7.5q28 22 28 67t-19 58.5t-61 13.5t-60 -3h-3l-10 53h52q33 0 53.5 21.5t20.5 49t-13 42.5t-37 15q-35 0 -93 -58q-27 34 -32 83q85 27 140.5 27t97.5 -21t42 -64t-24 -70t-51 -33 q29 -2 55 -18q49 -30 49 -91t-50.5 -101zM817 99q0 -60 9 -96v-3h-120v3q5 27 7 91v5h-165l-25 52q66 113 170 271l125 7q-2 -54 -2 -264q16 0 46.5 2t32.5 2l-12 -70h-66zM714 164v188q-89 -133 -119 -190q33 0 119 2zM689 718l108 7l15 -15q-88 -80 -416 -553l-44 -62 l-71 -108l-110 -7l-15 15q55 52 193 240q214 292 340 483z" />
<glyph unicode="&#xbf;" horiz-adv-x="484" d="M171 -50q0 -90 84 -90q62 0 148 66q36 -52 36 -114v-13q-90 -31 -189 -31t-156 42t-57 127q0 55 25 104t64 83q62 53 118 81v6q0 19 -12 60v18q36 7 65.5 7t61.5 -6v-19q-10 -46 -10 -63.5v-20.5l-20 -14q-158 -110 -158 -223zM238 373q-16 14 -16 71q0 13 2 24l9 8 q38 11 98 16l11 -5q8 -14 12.5 -41.5t4.5 -39v-15.5l-9 -8q-52 -16 -96 -16q-5 0 -16 6z" />
<glyph unicode="&#xc0;" d="M399 236q-38 1 -105 1t-108 -1q-33 -114 -39 -140.5t-6 -73.5v-22h-168v22q52 36 129 266t101 304.5t28 107.5l154 15q0 -38 66 -218q123 -336 171 -413q23 -39 52 -62v-22h-212v22q0 42 -63 214zM288 574q-33 -95 -83 -265h173q-6 17 -18 57q-26 89 -72 208zM438 798 l-17 -47q-133 11 -266 60q14 73 58 107q46 -35 110 -69.5t115 -50.5z" />
<glyph unicode="&#xc1;" d="M399 236q-38 1 -105 1t-108 -1q-33 -114 -39 -140.5t-6 -73.5v-22h-168v22q52 36 129 266t101 304.5t28 107.5l154 15q0 -38 66 -218q123 -336 171 -413q23 -39 52 -62v-22h-212v22q0 42 -63 214zM288 574q-33 -95 -83 -265h173q-6 17 -18 57q-26 89 -72 208zM189 751 l-17 47q51 16 115 50.5t110 69.5q44 -34 58 -107q-133 -49 -266 -60z" />
<glyph unicode="&#xc2;" d="M399 236q-38 1 -105 1t-108 -1q-33 -114 -39 -140.5t-6 -73.5v-22h-168v22q52 36 129 266t101 304.5t28 107.5l154 15q0 -38 66 -218q123 -336 171 -413q23 -39 52 -62v-22h-212v22q0 42 -63 214zM288 574q-33 -95 -83 -265h173q-6 17 -18 57q-26 89 -72 208zM279 920h80 q26 -53 75 -98q17 -16 50 -44l-42 -45q-73 44 -126 103q-46 -47 -114 -98l-43 44q87 76 120 138z" />
<glyph unicode="&#xc3;" d="M399 236q-38 1 -105 1t-108 -1q-33 -114 -39 -140.5t-6 -73.5v-22h-168v22q52 36 129 266t101 304.5t28 107.5l154 15q0 -38 66 -218q123 -336 171 -413q23 -39 52 -62v-22h-212v22q0 42 -63 214zM288 574q-33 -95 -83 -265h173q-6 17 -18 57q-26 89 -72 208zM402 773 q-24 0 -83.5 24t-76 24t-25 -2t-14 -4t-15 -7t-12.5 -7t-13.5 -8.5t-11.5 -7.5l-29 25q26 31 63.5 65t60.5 34t80.5 -21.5t72.5 -21.5t24 1.5t20.5 6.5t16 7t18.5 10t15 8l27 -25q-83 -101 -118 -101z" />
<glyph unicode="&#xc4;" d="M399 236q-38 1 -105 1t-108 -1q-33 -114 -39 -140.5t-6 -73.5v-22h-168v22q52 36 129 266t101 304.5t28 107.5l154 15q0 -38 66 -218q123 -336 171 -413q23 -39 52 -62v-22h-212v22q0 42 -63 214zM288 574q-33 -95 -83 -265h173q-6 17 -18 57q-26 89 -72 208zM278 893 q7 -8 10.5 -34t3.5 -40t-1 -23l-12 -11q-46 -12 -91 -15h-16l-15 5q-22 39 -22 98l15 11q50 13 94 15h22zM492 904q7 -8 10.5 -34t3.5 -40t-1 -23l-12 -11q-46 -12 -91 -15h-16l-15 5q-22 39 -22 98l15 11q50 13 94 15h22z" />
<glyph unicode="&#xc5;" horiz-adv-x="595" d="M407 791q0 -45 -35 -77l3 1q0 -38 66 -218q123 -336 171 -413q23 -39 52 -62v-22h-212v22q0 42 -63 214q-38 1 -105 1t-108 -1q-33 -114 -39 -140.5t-6 -73.5v-22h-168v22q52 36 129 266t101 304.5t28 107.5h3q-48 31 -48 81.5t35 82.5t83 32q49 0 81 -30t32 -75z M278 574q-33 -95 -83 -265h173q-6 17 -18 57q-26 89 -72 208zM296 743q17 0 33 7q11 11 11 38q0 51 -52 51q-20 0 -34 -8q-11 -11 -11 -33q0 -55 53 -55z" />
<glyph unicode="&#xc6;" horiz-adv-x="947" d="M648 629q-41 0 -64 -2q-2 -46 -2 -245l257 5l-35 -83h-19q-38 8 -111.5 8t-91.5 -2v-33q0 -168 3 -201q23 -2 76.5 -2t128.5 9t110 23h19l-19 -106h-474v22q17 72 17 201v44q-83 0 -160 -1q-109 -195 -120 -242l-5 -22h-168v22q31 23 91.5 111t154.5 247q149 256 166 318 l484 3l-30 -88h-19q-49 14 -189 14zM443 339v137q0 40 -3 80q-65 -109 -121 -217h124z" />
<glyph unicode="&#xc7;" horiz-adv-x="728" d="M200 375q0 87 33.5 149t85.5 98q34 5 80.5 5t102.5 -19.5t125 -70.5q44 60 57 123q-109 52 -226 52q-174 0 -291.5 -102t-117.5 -265t102 -260t247 -97q57 0 114.5 18t85 33t102.5 64l-37 54q-142 -72 -220 -72q-104 0 -173.5 76t-69.5 214zM469 -81.5q23 -20.5 23 -58.5 t-35 -61t-73 -23t-74 13t-51 22l19 41q32 -17 59.5 -17t42 9t14.5 23.5t-12 23.5q-14 4 -32 4t-39 -4l-13 19l43 88l76 -7l-34 -54q10 3 36.5 2.5t49.5 -21z" />
<glyph unicode="&#xc8;" horiz-adv-x="634" d="M335 629q-41 0 -64 -2q-2 -46 -2 -225l257 5l-35 -83h-19q-38 8 -111.5 8t-91.5 -2v-53q0 -168 3 -201q23 -2 76.5 -2t128.5 9t110 23h19l-19 -106h-479v22q17 72 17 201v253q0 130 -17 202v22l465 3l-30 -88h-19q-49 14 -189 14zM444 761l-37 -39q-113 56 -222 152 q37 53 100 75q60 -103 159 -188z" />
<glyph unicode="&#xc9;" horiz-adv-x="634" d="M335 629q-41 0 -64 -2q-2 -46 -2 -225l257 5l-35 -83h-19q-38 8 -111.5 8t-91.5 -2v-53q0 -168 3 -201q23 -2 76.5 -2t128.5 9t110 23h19l-19 -106h-479v22q17 72 17 201v253q0 130 -17 202v22l465 3l-30 -88h-19q-49 14 -189 14zM444 875q-109 -96 -222 -152l-37 39 q100 85 160 187q63 -22 99 -74z" />
<glyph unicode="&#xca;" horiz-adv-x="634" d="M335 629q-41 0 -64 -2q-2 -46 -2 -225l257 5l-35 -83h-19q-38 8 -111.5 8t-91.5 -2v-53q0 -168 3 -201q23 -2 76.5 -2t128.5 9t110 23h19l-19 -106h-479v22q17 72 17 201v253q0 130 -17 202v22l465 3l-30 -88h-19q-49 14 -189 14zM272 920h80q26 -53 74 -98 q18 -16 51 -44l-42 -45q-73 44 -126 103q-46 -47 -114 -98l-43 44q87 76 120 138z" />
<glyph unicode="&#xcb;" d="M342 629q-41 0 -64 -2q-2 -46 -2 -225l257 5l-35 -83h-19q-38 8 -111.5 8t-91.5 -2v-53q0 -168 3 -201q23 -2 76.5 -2t128.5 9t110 23h19l-19 -106h-479v22q17 72 17 201v253q0 130 -17 202v22l465 3l-30 -88h-19q-49 14 -189 14zM278 893q7 -8 10.5 -34t3.5 -40t-1 -23 l-12 -11q-46 -12 -91 -15h-16l-15 5q-22 39 -22 98l15 11q50 13 94 15h22zM492 904q7 -8 10.5 -34t3.5 -40t-1 -23l-12 -11q-46 -12 -91 -15h-16l-15 5q-22 39 -22 98l15 11q50 13 94 15h22z" />
<glyph unicode="&#xcc;" horiz-adv-x="404" d="M273 469v-239q0 -148 16 -208v-22h-174v22q16 60 16 208v249q0 139 -16 199v22h174v-22q-7 -23 -11.5 -96.5t-4.5 -112.5zM332 761l-37 -39q-113 56 -222 152q37 53 100 75q60 -103 159 -188z" />
<glyph unicode="&#xcd;" horiz-adv-x="404" d="M273 469v-239q0 -148 16 -208v-22h-174v22q16 60 16 208v249q0 139 -16 199v22h174v-22q-7 -23 -11.5 -96.5t-4.5 -112.5zM332 875q-109 -96 -222 -152l-37 39q100 85 160 187q63 -22 99 -74z" />
<glyph unicode="&#xce;" horiz-adv-x="404" d="M273 469v-239q0 -148 16 -208v-22h-174v22q16 60 16 208v249q0 139 -16 199v22h174v-22q-7 -23 -11.5 -96.5t-4.5 -112.5zM159 920h80q26 -53 75 -98q17 -16 50 -44l-42 -45q-73 44 -126 103q-46 -47 -114 -98l-43 44q87 76 120 138z" />
<glyph unicode="&#xcf;" horiz-adv-x="404" d="M273 469v-239q0 -148 16 -208v-22h-174v22q16 60 16 208v249q0 139 -16 199v22h174v-22q-7 -23 -11.5 -96.5t-4.5 -112.5zM159 893q7 -8 10.5 -34t3.5 -40t-1 -23l-12 -11q-46 -12 -91 -15h-16l-15 5q-22 39 -22 98l15 11q50 13 94 15h22zM373 904q7 -8 10.5 -34t3.5 -40 t-1 -23l-12 -11q-46 -12 -91 -15h-16l-15 5q-22 39 -22 98l15 11q50 13 94 15h22z" />
<glyph unicode="&#xd0;" horiz-adv-x="810" d="M356 0l-184 1h-78v22q17 64 17 198v109l-122 -5l34 77h14q48 0 74 -1v78q0 135 -17 199v22q44 -2 78 -2l199 3q198 0 294 -80.5t96 -247.5q0 -103 -37 -185t-108 -129q-88 -59 -241 -59h-19zM366 325q-39 0 -113 2q0 -208 3 -240q65 -5 114 -5q125 0 173 28q67 70 67 247 q0 147 -59.5 208.5t-198.5 61.5q-4 0 -97 -1q-2 -47 -2 -226l161 4l-34 -79h-14z" />
<glyph unicode="&#xd1;" horiz-adv-x="788" d="M216 0h-137v22q16 60 16 227v203q0 149 -13 225v22l158 11l352 -494v263q0 51 -7 112.5t-16 86.5v22h141v-22q-6 -25 -11 -97.5t-5 -129.5v-238q0 -58 6 -127t10 -84l-131 -13l-382 535v-304q0 -126 19 -198v-22zM480 773q-24 0 -83.5 24t-76 24t-25 -2t-14 -4t-15 -7 t-12.5 -7t-13.5 -8.5t-11.5 -7.5l-29 25q26 31 63.5 65t60.5 34t80.5 -21.5t72.5 -21.5t24 1.5t20.5 6.5t16 7t18.5 10t15 8l27 -25q-83 -101 -118 -101z" />
<glyph unicode="&#xd2;" horiz-adv-x="824" d="M144.5 89q-95.5 101 -95.5 255.5t107 262t273 107.5t256 -100t90 -246q0 -165 -107.5 -272.5t-267.5 -107.5t-255.5 101zM624 341q0 83 -19.5 145t-71.5 103.5t-134 41.5q-37 0 -75 -8.5t-55 -18.5q-30 -31 -49.5 -95t-19.5 -134.5t12.5 -121t39 -93t73.5 -67 t113.5 -24.5t116.5 28q69 66 69 244zM541 761l-37 -39q-113 56 -222 152q37 53 100 75q60 -103 159 -188z" />
<glyph unicode="&#xd3;" horiz-adv-x="824" d="M144.5 89q-95.5 101 -95.5 255.5t107 262t273 107.5t256 -100t90 -246q0 -165 -107.5 -272.5t-267.5 -107.5t-255.5 101zM624 341q0 83 -19.5 145t-71.5 103.5t-134 41.5q-37 0 -75 -8.5t-55 -18.5q-30 -31 -49.5 -95t-19.5 -134.5t12.5 -121t39 -93t73.5 -67 t113.5 -24.5t116.5 28q69 66 69 244zM541 875q-109 -96 -222 -152l-37 39q100 85 160 187q63 -22 99 -74z" />
<glyph unicode="&#xd4;" horiz-adv-x="824" d="M144.5 89q-95.5 101 -95.5 255.5t107 262t273 107.5t256 -100t90 -246q0 -165 -107.5 -272.5t-267.5 -107.5t-255.5 101zM624 341q0 83 -19.5 145t-71.5 103.5t-134 41.5q-37 0 -75 -8.5t-55 -18.5q-30 -31 -49.5 -95t-19.5 -134.5t12.5 -121t39 -93t73.5 -67 t113.5 -24.5t116.5 28q69 66 69 244zM369 920h80q26 -53 75 -98q17 -16 50 -44l-42 -45q-73 44 -126 103q-46 -47 -114 -98l-43 44q87 76 120 138z" />
<glyph unicode="&#xd5;" horiz-adv-x="823" d="M144.5 89q-95.5 101 -95.5 255.5t107 262t273 107.5t256 -100t90 -246q0 -165 -107.5 -272.5t-267.5 -107.5t-255.5 101zM624 341q0 83 -19.5 145t-71.5 103.5t-134 41.5q-37 0 -75 -8.5t-55 -18.5q-30 -31 -49.5 -95t-19.5 -134.5t12.5 -121t39 -93t73.5 -67 t113.5 -24.5t116.5 28q69 66 69 244zM492 773q-24 0 -83.5 24t-76 24t-25 -2t-14 -4t-15 -7t-12.5 -7t-13.5 -8.5t-11.5 -7.5l-29 25q26 31 63.5 65t60.5 34t80.5 -21.5t72.5 -21.5t24 1.5t20.5 6.5t16 7t18.5 10t15 8l27 -25q-83 -101 -118 -101z" />
<glyph unicode="&#xd6;" horiz-adv-x="823" d="M144.5 89q-95.5 101 -95.5 255.5t107 262t273 107.5t256 -100t90 -246q0 -165 -107.5 -272.5t-267.5 -107.5t-255.5 101zM624 341q0 83 -19.5 145t-71.5 103.5t-134 41.5q-37 0 -75 -8.5t-55 -18.5q-30 -31 -49.5 -95t-19.5 -134.5t12.5 -121t39 -93t73.5 -67 t113.5 -24.5t116.5 28q69 66 69 244zM368 893q7 -8 10.5 -34t3.5 -40t-1 -23l-12 -11q-46 -12 -91 -15h-16l-15 5q-22 39 -22 98l15 11q50 13 94 15h22zM582 904q7 -8 10.5 -34t3.5 -40t-1 -23l-12 -11q-46 -12 -91 -15h-16l-15 5q-22 39 -22 98l15 11q50 13 94 15h22z" />
<glyph unicode="&#xd7;" horiz-adv-x="612" d="M72 150l161 150l-161 150l74 70l160 -152l159 152l73 -71l-160 -150q135 -124 162 -150l-73 -70l-162 152q-22 -21 -159 -152z" />
<glyph unicode="&#xd8;" horiz-adv-x="811" d="M2 339q0 160 107 267.5t276 107.5q119 0 204 -59l47 72l126 14v-6q-68 -78 -113 -134q79 -94 79 -233q0 -165 -107.5 -272.5t-269.5 -107.5q-89 0 -160 34q-38 -52 -55 -81l-131 -17v6q37 41 115 138q-57 48 -87.5 118.5t-30.5 152.5zM352 631q-37 0 -75 -8.5t-55 -18.5 q-30 -31 -49.5 -95t-19.5 -145q0 -121 47 -198q226 273 318 393q-59 72 -166 72zM577 341q0 81 -21 145q-172 -214 -301 -379q54 -38 128.5 -38t124.5 28q69 66 69 244z" />
<glyph unicode="&#xd9;" horiz-adv-x="769" d="M676 491v-179q0 -182 -66.5 -252.5t-223.5 -70.5t-227 68.5t-70 219.5v198q0 149 -16 203v22h172v-22q-14 -90 -14 -233v-123q0 -101 12.5 -144t30.5 -62q41 -45 125.5 -45t125.5 26q26 39 33 107t7 230.5t-16 243.5v22h143v-21q-7 -23 -11.5 -87.5t-4.5 -100.5zM514 761 l-37 -39q-113 56 -222 152q37 53 100 75q60 -103 159 -188z" />
<glyph unicode="&#xda;" horiz-adv-x="769" d="M676 491v-179q0 -182 -66.5 -252.5t-223.5 -70.5t-227 68.5t-70 219.5v198q0 149 -16 203v22h172v-22q-14 -90 -14 -233v-123q0 -101 12.5 -144t30.5 -62q41 -45 125.5 -45t125.5 26q26 39 33 107t7 230.5t-16 243.5v22h143v-21q-7 -23 -11.5 -87.5t-4.5 -100.5zM514 875 q-109 -96 -222 -152l-37 39q100 85 160 187q63 -22 99 -74z" />
<glyph unicode="&#xdb;" horiz-adv-x="769" d="M676 491v-179q0 -182 -66.5 -252.5t-223.5 -70.5t-227 68.5t-70 219.5v198q0 149 -16 203v22h172v-22q-14 -90 -14 -233v-123q0 -101 12.5 -144t30.5 -62q41 -45 125.5 -45t125.5 26q26 39 33 107t7 230.5t-16 243.5v22h143v-21q-7 -23 -11.5 -87.5t-4.5 -100.5zM342 920 h80q26 -53 74 -98q18 -16 51 -44l-42 -45q-73 44 -126 103q-46 -47 -114 -98l-43 44q87 76 120 138z" />
<glyph unicode="&#xdc;" horiz-adv-x="769" d="M676 491v-179q0 -182 -66.5 -252.5t-223.5 -70.5t-227 68.5t-70 219.5v198q0 149 -16 203v22h172v-22q-14 -90 -14 -233v-123q0 -101 12.5 -144t30.5 -62q41 -45 125.5 -45t125.5 26q26 39 33 107t7 230.5t-16 243.5v22h143v-21q-7 -23 -11.5 -87.5t-4.5 -100.5zM341 893 q7 -8 10.5 -34t3.5 -40t-1 -23l-12 -11q-46 -12 -91 -15h-16l-15 5q-22 39 -22 98l15 11q50 13 94 15h22zM555 904q7 -8 10.5 -34t3.5 -40t-1 -23l-12 -11q-46 -12 -91 -15h-16l-15 5q-22 39 -22 98l15 11q50 13 94 15h22z" />
<glyph unicode="&#xdd;" horiz-adv-x="579" d="M361 220q0 -36 4.5 -105.5t10.5 -92.5v-22h-162v22q15 57 15 172v100l-98 182q-39 71 -80 132t-60 70v22h185v-22q0 -40 37 -115t97 -183q84 170 103 220.5t19 77.5v22h145v-22q-36 -25 -88 -122q-29 -54 -128 -264v-72zM419 875q-109 -96 -222 -152l-37 39 q100 85 160 187q63 -22 99 -74z" />
<glyph unicode="&#xde;" horiz-adv-x="676" d="M334 176q-32 0 -68 6q5 -124 13 -160v-22h-171v22q15 57 15 201v254q0 144 -15 201v22h171v-22q-4 -15 -9 -72q24 1 80 1q141 0 214.5 -44.5t73.5 -153.5t-86 -171t-218 -62zM265 479v-236q32 -8 68 -8q76 0 115.5 43.5t39.5 120.5t-33 110t-105 33t-83 -1q-2 -52 -2 -62 z" />
<glyph unicode="&#xdf;" horiz-adv-x="664" d="M310.5 328q-10.5 25 -10.5 56.5t13.5 59t26.5 41t33.5 30t28.5 23.5q23 22 23 51q0 62 -96 62q-35 0 -54 -12q-19 -24 -19 -113v-538h-150v22q18 47 18 158v215q-36 0 -89 -3l34 80l55 -3v34q0 105 70.5 174.5t176.5 69.5h4q75 -1 122.5 -34.5t47.5 -103.5 q0 -27 -12.5 -49.5t-24 -33.5t-33.5 -27t-31 -25q-28 -26 -28 -63q0 -32 26 -52q21 -16 55 -33t52.5 -28.5t42.5 -31.5q46 -41 46 -114t-50.5 -116.5t-135.5 -45.5h-6q-87 0 -151 47q1 56 34 114q23 -28 63.5 -53.5t67 -25.5t38.5 6q12 12 12 69q0 33 -26 55 q-21 16 -53.5 34t-50 29.5t-38.5 30.5t-31.5 44z" />
<glyph unicode="&#xe0;" horiz-adv-x="552" d="M245 69q56 0 93 46v85q-36 13 -79.5 13t-66.5 -16q-15 -19 -15 -50q0 -78 68 -78zM470 172q0 -45 15 -86t37 -55l2 -22l-143 -30q-16 30 -30 84q-26 -28 -42 -41.5t-44.5 -26.5t-60.5 -13q-63 0 -111 38t-48 110q0 139 203 139l89 -4v61q0 52 -26 84t-80 32 q-12 0 -34 -14.5t-95 -87.5q-50 59 -54 119q128 40 216 40t147 -41t59 -129v-157zM370 544l-37 -39q-113 56 -222 152q37 53 100 75q60 -103 159 -188z" />
<glyph unicode="&#xe1;" horiz-adv-x="552" d="M245 69q56 0 93 46v85q-36 13 -79.5 13t-66.5 -16q-15 -19 -15 -50q0 -78 68 -78zM470 172q0 -45 15 -86t37 -55l2 -22l-143 -30q-16 30 -30 84q-26 -28 -42 -41.5t-44.5 -26.5t-60.5 -13q-63 0 -111 38t-48 110q0 139 203 139l89 -4v61q0 52 -26 84t-80 32 q-12 0 -34 -14.5t-95 -87.5q-50 59 -54 119q128 40 216 40t147 -41t59 -129v-157zM456 658q-109 -96 -222 -152l-37 39q100 85 160 187q63 -22 99 -74z" />
<glyph unicode="&#xe2;" horiz-adv-x="552" d="M245 69q56 0 93 46v85q-36 13 -79.5 13t-66.5 -16q-15 -19 -15 -50q0 -78 68 -78zM470 172q0 -45 15 -86t37 -55l2 -22l-143 -30q-16 30 -30 84q-26 -28 -42 -41.5t-44.5 -26.5t-60.5 -13q-63 0 -111 38t-48 110q0 139 203 139l89 -4v61q0 52 -26 84t-80 32 q-12 0 -34 -14.5t-95 -87.5q-50 59 -54 119q128 40 216 40t147 -41t59 -129v-157zM240 703h80q26 -53 74 -98q18 -16 51 -44l-42 -45q-73 44 -126 103q-46 -47 -114 -98l-43 44q87 76 120 138z" />
<glyph unicode="&#xe3;" horiz-adv-x="552" d="M245 69q56 0 93 46v85q-36 13 -79.5 13t-66.5 -16q-15 -19 -15 -50q0 -78 68 -78zM470 172q0 -45 15 -86t37 -55l2 -22l-143 -30q-16 30 -30 84q-26 -28 -42 -41.5t-44.5 -26.5t-60.5 -13q-63 0 -111 38t-48 110q0 139 203 139l89 -4v61q0 52 -26 84t-80 32 q-12 0 -34 -14.5t-95 -87.5q-50 59 -54 119q128 40 216 40t147 -41t59 -129v-157zM365 556q-24 0 -83.5 24t-76 24t-25 -2t-14 -4t-15 -7t-12.5 -7t-13.5 -8.5t-11.5 -7.5l-29 25q26 31 63.5 65t60.5 34t80.5 -21.5t72.5 -21.5t24 1.5t20.5 6.5t16 7t18.5 10t15 8l27 -25 q-83 -101 -118 -101z" />
<glyph unicode="&#xe4;" horiz-adv-x="552" d="M245 69q56 0 93 46v85q-36 13 -79.5 13t-66.5 -16q-15 -19 -15 -50q0 -78 68 -78zM470 172q0 -45 15 -86t37 -55l2 -22l-143 -30q-16 30 -30 84q-26 -28 -42 -41.5t-44.5 -26.5t-60.5 -13q-63 0 -111 38t-48 110q0 139 203 139l89 -4v61q0 52 -26 84t-80 32 q-12 0 -34 -14.5t-95 -87.5q-50 59 -54 119q128 40 216 40t147 -41t59 -129v-157zM241 676q7 -8 10.5 -34t3.5 -40t-1 -23l-12 -11q-46 -12 -91 -15h-16l-15 5q-22 39 -22 98l15 11q50 13 94 15h22zM455 687q7 -8 10.5 -34t3.5 -40t-1 -23l-12 -11q-46 -12 -91 -15h-16 l-15 5q-22 39 -22 98l15 11q50 13 94 15h22z" />
<glyph unicode="&#xe5;" horiz-adv-x="552" d="M245 69q56 0 93 46v85q-36 13 -79.5 13t-66.5 -16q-15 -19 -15 -50q0 -78 68 -78zM470 172q0 -45 15 -86t37 -55l2 -22l-143 -30q-16 30 -30 84q-26 -28 -42 -41.5t-44.5 -26.5t-60.5 -13q-63 0 -111 38t-48 110q0 139 203 139l89 -4v61q0 52 -26 84t-80 32 q-12 0 -34 -14.5t-95 -87.5q-50 59 -54 119q128 40 216 40t147 -41t59 -129v-157zM366 638q0 -45 -32 -77q-32 -33 -78.5 -33t-76 30.5t-29.5 76t32.5 77.5t77.5 32q47 0 76.5 -30.5t29.5 -75.5zM262 594q19 0 30 7q10 12 10 32q0 45 -47 45q-19 0 -30 -7q-10 -10 -10 -28 q0 -49 47 -49z" />
<glyph unicode="&#xe6;" horiz-adv-x="834" d="M563 -19q-96 0 -163 72q-87 -71 -169.5 -71t-134 36.5t-51.5 108.5q0 137 203 137l89 -4v63q0 54 -26 86.5t-80 32.5q-12 0 -31 -12.5t-32 -25.5q-41 -39 -66 -64q-50 59 -54 119q128 40 218 40q112 0 167 -62q70 62 167.5 62t145.5 -63t48 -174l-38 -39h-274 q1 -72 38.5 -111t90 -39t158.5 55l25 -38q-19 -18 -43 -37t-80.5 -45.5t-107.5 -26.5zM577 435q-37 0 -59 -15q-16 -25 -25 -66t-10 -73l175 10q0 144 -81 144zM256 208q-41 0 -64 -15q-15 -19 -15 -49q0 -75 70 -75q61 0 112 44q-20 40 -20 83v1q-42 11 -83 11z" />
<glyph unicode="&#xe7;" horiz-adv-x="542" d="M188 246q0 -175 102 -175q72 0 189 61l26 -41q-33 -31 -88.5 -63.5t-101.5 -42.5l-30 -48q10 3 36.5 2.5t49.5 -21t23 -58.5t-35 -61t-73 -23t-74 13t-51 22l19 41q32 -17 59.5 -17t42 9t14.5 23.5t-12 23.5q-14 4 -32 4t-39 -4l-13 19l37 76q-91 15 -142 82t-51 173.5 t83 182t190 75.5t184 -51q-34 -57 -64 -89q-81 62 -155 62q-19 0 -34 -3q-26 -24 -43 -70t-17 -102z" />
<glyph unicode="&#xe8;" horiz-adv-x="540" d="M269 -19q-87 0 -156 65t-69 175.5t73 194t189 83.5q98 0 146 -63t48 -174l-38 -39h-274q1 -72 38.5 -111t90 -39t158.5 55l25 -38q-19 -18 -43 -37t-80.5 -45.5t-107.5 -26.5zM283 435q-37 0 -59 -15q-16 -25 -25 -66t-10 -73l175 10q0 144 -81 144zM358 544l-37 -39 q-113 56 -222 152q37 53 100 75q60 -103 159 -188z" />
<glyph unicode="&#xe9;" horiz-adv-x="540" d="M269 -19q-87 0 -156 65t-69 175.5t73 194t189 83.5q98 0 146 -63t48 -174l-38 -39h-274q1 -72 38.5 -111t90 -39t158.5 55l25 -38q-19 -18 -43 -37t-80.5 -45.5t-107.5 -26.5zM283 435q-37 0 -59 -15q-16 -25 -25 -66t-10 -73l175 10q0 144 -81 144zM444 658 q-109 -96 -222 -152l-37 39q100 85 160 187q63 -22 99 -74z" />
<glyph unicode="&#xea;" horiz-adv-x="540" d="M269 -19q-87 0 -156 65t-69 175.5t73 194t189 83.5q98 0 146 -63t48 -174l-38 -39h-274q1 -72 38.5 -111t90 -39t158.5 55l25 -38q-19 -18 -43 -37t-80.5 -45.5t-107.5 -26.5zM283 435q-37 0 -59 -15q-16 -25 -25 -66t-10 -73l175 10q0 144 -81 144zM230 703h80 q26 -53 74 -98q18 -16 51 -44l-42 -45q-73 44 -126 103q-46 -47 -114 -98l-43 44q87 76 120 138z" />
<glyph unicode="&#xeb;" horiz-adv-x="540" d="M269 -19q-87 0 -156 65t-69 175.5t73 194t189 83.5q98 0 146 -63t48 -174l-38 -39h-274q1 -72 38.5 -111t90 -39t158.5 55l25 -38q-19 -18 -43 -37t-80.5 -45.5t-107.5 -26.5zM283 435q-37 0 -59 -15q-16 -25 -25 -66t-10 -73l175 10q0 144 -81 144zM233 676 q7 -8 10.5 -34t3.5 -40t-1 -23l-12 -11q-46 -12 -91 -15h-16l-15 5q-22 39 -22 98l15 11q50 13 94 15h22zM447 687q7 -8 10.5 -34t3.5 -40t-1 -23l-12 -11q-46 -12 -91 -15h-16l-15 5q-22 39 -22 98l15 11q50 13 94 15h22z" />
<glyph unicode="&#xec;" horiz-adv-x="335" d="M226 179q0 -95 29 -157v-22h-178v22q17 51 17 135v148q0 55 -17 91.5t-43 50.5v22l186 34l12 -20q-6 -23 -6 -90v-214zM231 544l-37 -39q-113 56 -222 152q37 53 100 75q60 -103 159 -188z" />
<glyph unicode="&#xed;" horiz-adv-x="303" d="M259 179q0 -95 29 -157v-22h-178v22q17 51 17 135v148q0 55 -17 91.5t-43 50.5v22l186 34l12 -20q-6 -23 -6 -90v-214zM350 658q-109 -96 -222 -152l-37 39q100 85 160 187q63 -22 99 -74z" />
<glyph unicode="&#xee;" horiz-adv-x="397" d="M137 136v189q0 83 -52 116v26l174 28l14 -22q-4 -30 -4 -83v-230q0 -93 26 -152v-20h-174v20q16 45 16 128zM121 711l99 14q13 -35 35 -69t37 -51.5t49 -54.5l-54 -51q-27 21 -65 57.5t-60 63.5q-44 -53 -107 -114l-53 45q33 34 48.5 51t37 48t33.5 61z" />
<glyph unicode="&#xef;" horiz-adv-x="402" d="M182 598q0 -5 -2 -19l-14 -12q-43 -14 -86 -17h-17l-21 6q-19 36 -19 89l17 15q42 14 85 17h22l15 -8q20 -20 20 -71zM358 606q0 -11 -1 -19l-14 -12q-45 -13 -87 -16h-17l-20 5q-19 35 -19 91l17 14q42 14 84 16h22l16 -7q19 -19 19 -72zM137 135v190q0 38 -14 69 t-38 47v25l174 28l13 -21q-3 -30 -3 -83v-230q0 -93 26 -152v-20h-174v20q16 45 16 127z" />
<glyph unicode="&#xf0;" horiz-adv-x="615" d="M494 61q-77 -80 -193.5 -80t-183 68t-66.5 181q0 145 115 220q62 42 129 42q-31 33 -51 52q-114 -42 -159 -61l7 86q20 6 89 28q-60 48 -134 84l-3 22l178 38q33 -52 78 -102l152 56l-5 -82q-33 -10 -96 -31q45 -45 78 -75.5t67 -64.5q75 -75 75 -188t-77 -193zM427 228 q0 97 -28 151.5t-98 54.5q-45 0 -70 -22q-16 -23 -26 -69t-10 -89q0 -209 133 -209q40 0 65 21q17 23 25.5 70.5t8.5 91.5z" />
<glyph unicode="&#xf1;" d="M109 298q0 119 -60 149v22l162 31l11 -19q8 -24 11 -64q51 41 88.5 61.5t79.5 20.5q75 0 116 -46.5t41 -134.5v-127q0 -99 30 -169v-22h-176v22q17 47 17 135v125q0 58 -14 85.5t-60 27.5t-117 -42v-164q0 -105 29 -167v-22h-175v22q17 51 17 142v134zM401 556 q-24 0 -83.5 24t-76 24t-25 -2t-14 -4t-15 -7t-12.5 -7t-13.5 -8.5t-11.5 -7.5l-29 25q26 31 63.5 65t60.5 34t80.5 -21.5t72.5 -21.5t24 1.5t20.5 6.5t16 7t18.5 10t15 8l27 -25q-83 -101 -118 -101z" />
<glyph unicode="&#xf2;" horiz-adv-x="608" d="M110.5 49q-66.5 68 -66.5 179t77 190.5t196.5 79.5t183 -66.5t63.5 -178.5t-77 -192t-193.5 -80t-183 68zM420 228q0 97 -28 151.5t-98 54.5q-45 0 -70 -22q-16 -23 -26 -69t-10 -89q0 -209 133 -209q40 0 65 21q17 23 25.5 70.5t8.5 91.5zM390 544l-37 -39 q-113 56 -222 152q37 53 100 75q60 -103 159 -188z" />
<glyph unicode="&#xf3;" horiz-adv-x="608" d="M110.5 49q-66.5 68 -66.5 179t77 190.5t196.5 79.5t183 -66.5t63.5 -178.5t-77 -192t-193.5 -80t-183 68zM420 228q0 97 -28 151.5t-98 54.5q-45 0 -70 -22q-16 -23 -26 -69t-10 -89q0 -209 133 -209q40 0 65 21q17 23 25.5 70.5t8.5 91.5zM476 658q-109 -96 -222 -152 l-37 39q100 85 160 187q63 -22 99 -74z" />
<glyph unicode="&#xf4;" horiz-adv-x="608" d="M110.5 49q-66.5 68 -66.5 179t77 190.5t196.5 79.5t183 -66.5t63.5 -178.5t-77 -192t-193.5 -80t-183 68zM420 228q0 97 -28 151.5t-98 54.5q-45 0 -70 -22q-16 -23 -26 -69t-10 -89q0 -209 133 -209q40 0 65 21q17 23 25.5 70.5t8.5 91.5zM261 703h80q26 -53 75 -98 q17 -16 50 -44l-42 -45q-73 44 -126 103q-46 -47 -114 -98l-43 44q87 76 120 138z" />
<glyph unicode="&#xf5;" horiz-adv-x="608" d="M110.5 49q-66.5 68 -66.5 179t77 190.5t196.5 79.5t183 -66.5t63.5 -178.5t-77 -192t-193.5 -80t-183 68zM420 228q0 97 -28 151.5t-98 54.5q-45 0 -70 -22q-16 -23 -26 -69t-10 -89q0 -209 133 -209q40 0 65 21q17 23 25.5 70.5t8.5 91.5zM385 556q-24 0 -83.5 24 t-76 24t-25 -2t-14 -4t-15 -7t-12.5 -7t-13.5 -8.5t-11.5 -7.5l-29 25q26 31 63.5 65t60.5 34t80.5 -21.5t72.5 -21.5t24 1.5t20.5 6.5t16 7t18.5 10t15 8l27 -25q-83 -101 -118 -101z" />
<glyph unicode="&#xf6;" horiz-adv-x="608" d="M110.5 49q-66.5 68 -66.5 179t77 190.5t196.5 79.5t183 -66.5t63.5 -178.5t-77 -192t-193.5 -80t-183 68zM420 228q0 97 -28 151.5t-98 54.5q-45 0 -70 -22q-16 -23 -26 -69t-10 -89q0 -209 133 -209q40 0 65 21q17 23 25.5 70.5t8.5 91.5zM257 676q7 -8 10.5 -34 t3.5 -40t-1 -23l-12 -11q-46 -12 -91 -15h-16l-15 5q-22 39 -22 98l15 11q50 13 94 15h22zM471 687q7 -8 10.5 -34t3.5 -40t-1 -23l-12 -11q-46 -12 -91 -15h-16l-15 5q-22 39 -22 98l15 11q50 13 94 15h22z" />
<glyph unicode="&#xf7;" horiz-adv-x="573" d="M215 438q0 25 19 41.5t47.5 16.5t47.5 -16.5t19 -41.5t-19 -41t-48 -16t-47.5 16t-18.5 41zM234 122.5q-19 16.5 -19 41t19 41t47.5 16.5t47.5 -16.5t19 -41t-19.5 -41t-47.5 -16.5t-47 16.5zM563 344l-2 -87h-551l1 88z" />
<glyph unicode="&#xf8;" horiz-adv-x="594" d="M551 250q0 -109 -77 -189t-191 -80q-50 0 -94 14q-26 -52 -34 -71l-107 -18l2 21q24 31 70 102q-89 68 -89 201q0 109 77 188.5t191 79.5q44 0 80 -9q14 26 33 70l93 8l-2 -22q-22 -30 -54 -83q102 -62 102 -212zM373 66q34 46 34 182q0 63 -19 111q-27 -46 -159 -287 q32 -27 75.5 -27t68.5 21zM185 343q-10 -46 -10 -100t13 -100q50 86 148 266l5 10q-27 15 -66 15t-64 -22q-16 -23 -26 -69z" />
<glyph unicode="&#xf9;" horiz-adv-x="640" d="M534 188q0 -45 14.5 -88t34.5 -60l3 -22l-157 -40q-21 36 -24 81q-86 -72 -147 -72q-102 0 -137.5 43.5t-35.5 141.5v119q0 99 -30 167v22h174v-24q-15 -52 -15 -135v-133q0 -50 17 -77.5t48 -27.5q53 0 126 51v157q0 101 -29 167v22h173v-24q-15 -52 -15 -135v-133z M406 544l-37 -39q-113 56 -222 152q37 53 100 75q60 -103 159 -188z" />
<glyph unicode="&#xfa;" horiz-adv-x="640" d="M534 188q0 -45 14.5 -88t34.5 -60l3 -22l-157 -40q-21 36 -24 81q-86 -72 -147 -72q-102 0 -137.5 43.5t-35.5 141.5v119q0 99 -30 167v22h174v-24q-15 -52 -15 -135v-133q0 -50 17 -77.5t48 -27.5q53 0 126 51v157q0 101 -29 167v22h173v-24q-15 -52 -15 -135v-133z M492 658q-109 -96 -222 -152l-37 39q100 85 160 187q63 -22 99 -74z" />
<glyph unicode="&#xfb;" horiz-adv-x="640" d="M534 188q0 -45 14.5 -88t34.5 -60l3 -22l-157 -40q-21 36 -24 81q-86 -72 -147 -72q-102 0 -137.5 43.5t-35.5 141.5v119q0 99 -30 167v22h174v-24q-15 -52 -15 -135v-133q0 -50 17 -77.5t48 -27.5q53 0 126 51v157q0 101 -29 167v22h173v-24q-15 -52 -15 -135v-133z M279 703h80q26 -53 75 -98q17 -16 50 -44l-42 -45q-73 44 -126 103q-46 -47 -114 -98l-43 44q87 76 120 138z" />
<glyph unicode="&#xfc;" horiz-adv-x="640" d="M534 188q0 -45 14.5 -88t34.5 -60l3 -22l-157 -40q-21 36 -24 81q-86 -72 -147 -72q-102 0 -137.5 43.5t-35.5 141.5v119q0 99 -30 167v22h174v-24q-15 -52 -15 -135v-133q0 -50 17 -77.5t48 -27.5q53 0 126 51v157q0 101 -29 167v22h173v-24q-15 -52 -15 -135v-133z M258 676q7 -8 10.5 -34t3.5 -40t-1 -23l-12 -11q-46 -12 -91 -15h-16l-15 5q-22 39 -22 98l15 11q50 13 94 15h22zM472 687q7 -8 10.5 -34t3.5 -40t-1 -23l-12 -11q-46 -12 -91 -15h-16l-15 5q-22 39 -22 98l15 11q50 13 94 15h22z" />
<glyph unicode="&#xfd;" horiz-adv-x="503" d="M166 479q0 -48 35 -141l78 -209q84 259 84 307v2q0 15 -5 26v22h145v-22q-13 -14 -40.5 -88t-119 -334.5t-94.5 -269.5v-18l-162 -9l-3 22q28 34 46 59q49 69 86 165l-143 329q-49 114 -80 140v22l173 11v-14zM420 658q-109 -96 -222 -152l-37 39q100 85 160 187 q63 -22 99 -74z" />
<glyph unicode="&#xfe;" horiz-adv-x="637" d="M226 636v-202q67 67 140 67q101 0 163.5 -67t62.5 -163q0 -119 -84 -203t-191 -84q-38 0 -84 8v-47q0 -113 43 -162v-22l-180 -18q5 49 5 157l-2 672q0 76 -49 118v24l165 27l14 -22q-3 -30 -3 -83zM356 61q24 0 44 5q24 30 36 85.5t12 100.5q0 158 -83 158 q-60 0 -132 -45v-273q65 -31 123 -31z" />
<glyph unicode="&#xff;" horiz-adv-x="542" d="M175 479q0 -48 35 -141l78 -209q84 259 84 307v2q0 15 -5 26v22h145v-22q-13 -14 -40.5 -88t-119 -334.5t-94.5 -269.5v-18l-162 -9l-3 22q28 34 45 59q50 69 87 165l-143 329q-49 114 -80 140v22l173 11v-14zM222 676q7 -8 10.5 -34t3.5 -40t-1 -23l-12 -11 q-46 -12 -91 -15h-16l-15 5q-22 39 -22 98l15 11q50 13 94 15h22zM436 687q7 -8 10.5 -34t3.5 -40t-1 -23l-12 -11q-46 -12 -91 -15h-16l-15 5q-22 39 -22 98l15 11q50 13 94 15h22z" />
<glyph unicode="&#x152;" horiz-adv-x="1151" d="M1033 615q-64 14 -152 14t-100 -1q-2 -46 -2 -226l256 4l-21 -82h-22q-74 8 -123.5 8t-89.5 -2v-53q0 -168 4 -201q20 -2 71 -2q162 0 239 32h30l-22 -106h-483v15q5 14 10 49q-101 -75 -227 -75q-162 0 -257 100t-95 256t107 262.5t275 106.5q114 0 197 -61q-3 21 -6 33 v14l467 3l-32 -88h-24zM608 201q17 65 17 131t-10.5 116t-35.5 92q-52 87 -184 87q-33 0 -70.5 -8t-57.5 -19q-29 -34 -47.5 -98.5t-18.5 -130.5q0 -298 243 -298q66 0 117 31l-3 -1q33 33 50 98z" />
<glyph unicode="&#x153;" horiz-adv-x="940" d="M776.5 7.5q-56.5 -26.5 -106.5 -26.5t-97 22.5t-80 64.5q-79 -87 -197.5 -87t-185 68t-66.5 179t77 190.5t191 79.5q139 0 204 -84q75 85 190 85q98 0 146 -63t48 -174l-38 -39h-274q1 -72 38.5 -111t90 -39t158.5 55l25 -38q-19 -18 -43 -37t-80.5 -45.5zM420 228 q0 97 -28 151.5t-98 54.5q-45 0 -70 -22q-16 -23 -26 -69t-10 -89q0 -209 133 -209q40 0 65 21q17 23 25.5 70.5t8.5 91.5zM683 435q-37 0 -59 -15q-16 -25 -25 -66t-10 -73l175 10q0 144 -81 144z" />
<glyph unicode="&#x2c6;" horiz-adv-x="500" d="M207 703h80q26 -53 75 -98q17 -16 50 -44l-42 -45q-73 44 -126 103q-46 -47 -114 -98l-43 44q87 76 120 138z" />
<glyph unicode="&#x2dc;" horiz-adv-x="527" d="M344 556q-24 0 -83.5 24t-76 24t-25 -2t-14 -4t-15 -7t-12.5 -7t-13.5 -8.5t-11.5 -7.5l-29 25q26 31 63.5 65t60.5 34t80.5 -21.5t72.5 -21.5t24 1.5t20.5 6.5t16 7t18.5 10t15 8l27 -25q-83 -101 -118 -101z" />
<glyph unicode="&#x2000;" horiz-adv-x="474" />
<glyph unicode="&#x2001;" horiz-adv-x="949" />
<glyph unicode="&#x2002;" horiz-adv-x="474" />
<glyph unicode="&#x2003;" horiz-adv-x="949" />
<glyph unicode="&#x2004;" horiz-adv-x="316" />
<glyph unicode="&#x2005;" horiz-adv-x="237" />
<glyph unicode="&#x2006;" horiz-adv-x="158" />
<glyph unicode="&#x2007;" horiz-adv-x="158" />
<glyph unicode="&#x2008;" horiz-adv-x="118" />
<glyph unicode="&#x2009;" horiz-adv-x="189" />
<glyph unicode="&#x200a;" horiz-adv-x="52" />
<glyph unicode="&#x2010;" horiz-adv-x="362" d="M53 325q40 -9 87 -9l82 1q22 0 68.5 2t70.5 2l-38 -99h-14q-68 9 -174 9l-134 -6l38 100h14z" />
<glyph unicode="&#x2011;" horiz-adv-x="362" d="M53 325q40 -9 87 -9l82 1q22 0 68.5 2t70.5 2l-38 -99h-14q-68 9 -174 9l-134 -6l38 100h14z" />
<glyph unicode="&#x2012;" horiz-adv-x="362" d="M53 325q40 -9 87 -9l82 1q22 0 68.5 2t70.5 2l-38 -99h-14q-68 9 -174 9l-134 -6l38 100h14z" />
<glyph unicode="&#x2013;" horiz-adv-x="572" d="M49 328q77 -10 190 -10l194 2q22 0 68.5 2t70.5 2l-35 -97h-14q-74 9 -279 9l-244 -6l35 98h14z" />
<glyph unicode="&#x2014;" horiz-adv-x="948" d="M51 328q78 -9 327.5 -9t350.5 0.5t147.5 2.5t70.5 2l-36 -97h-14q-74 9 -652 9l-244 -6l36 98h14z" />
<glyph unicode="&#x2018;" horiz-adv-x="310" d="M189 580q0 -14 2 -26q13 -34 51 -65l-1 -16q-18 -18 -45 -33.5t-49 -20.5q-14 7 -19 12q-20 22 -39 64q-8 19 -8 48q1 71 84 182l64 -17q-40 -73 -40 -128z" />
<glyph unicode="&#x2019;" horiz-adv-x="310" d="M121 564q0 14 -2 26q-13 34 -51 65l1 16q18 18 45 33.5t49 20.5q14 -7 19 -12q20 -22 39 -64q8 -19 8 -48q-1 -71 -84 -182l-64 17q40 73 40 128z" />
<glyph unicode="&#x201a;" horiz-adv-x="322" d="M245 30q0 -108 -110 -223l-70 32q34 51 47.5 86.5t13.5 80t-30 76.5q0 8 3 13q53 18 107 18q7 0 13 -1q9 -4 12 -11q14 -28 14 -71z" />
<glyph unicode="&#x201c;" horiz-adv-x="528" d="M390 537q10 -25 58 -60l-1 -16q-21 -21 -50 -38t-49 -21l-17 8q-10 8 -25 28t-24.5 39t-9.5 49q1 72 84 200l66 -14q0 -7 -8 -25.5t-13.5 -35.5t-6.5 -23.5t-4 -21.5t-3 -33.5t3 -35.5zM97 437q-15 20 -24.5 39t-9.5 49q1 73 84 201l66 -14q0 -1 -6 -16.5t-7 -19.5 t-6 -18.5t-6 -20.5t-4.5 -19t-4 -21.5t-1.5 -19.5q-2 -18 3 -41q10 -25 58 -60l-1 -16q-21 -21 -50 -38t-49 -21l-17 8q-10 8 -25 28z" />
<glyph unicode="&#x201d;" horiz-adv-x="528" d="M123 590q-10 25 -58 60l1 16q21 21 50 38t49 21l17 -8q10 -8 25 -28t24.5 -39t9.5 -49q-1 -72 -84 -200l-66 14q0 7 8 25.5t13.5 35.5t6.5 23.5t4 21.5t3 34t-3 35zM416 690q15 -20 24.5 -39t9.5 -49q-1 -73 -84 -201l-66 14q0 1 6 16.5t7 19.5t6 18.5t6 20.5t4.5 19 t4 21.5t1.5 19.5q2 18 -3 41q-10 25 -58 60l1 16q21 21 50 38t49 21l17 -8q10 -8 25 -28z" />
<glyph unicode="&#x201e;" horiz-adv-x="514" d="M245 30q0 -108 -110 -223l-70 32q34 51 47.5 86.5t13.5 80t-30 76.5q0 8 3 13q53 18 107 18q7 0 13 -1q9 -4 12 -11q14 -28 14 -71zM437 30q0 -108 -110 -223l-70 32q34 51 47.5 86.5t13.5 80t-30 76.5q0 8 3 13q53 18 107 18q7 0 13 -1q9 -4 12 -11q14 -28 14 -71z" />
<glyph unicode="&#x2022;" horiz-adv-x="567" d="M424 284q0 -28 -5 -49l-19 -17q-35 -22 -88.5 -31t-76 -9t-34.5 2l-22 12q-21 27 -29 78.5t-8 80t4 50.5l19 18q35 19 86.5 29.5t77 10.5t40.5 -2l19 -10q21 -31 28.5 -83t7.5 -80z" />
<glyph unicode="&#x202f;" horiz-adv-x="189" />
<glyph unicode="&#x2039;" horiz-adv-x="398" d="M64 248l-7 23q48 27 64 41l162 140l58 -53l-28 -31l-108 -112l137 -142l-61 -58q-41 43 -54 53z" />
<glyph unicode="&#x203a;" horiz-adv-x="398" d="M341 268l-7 -23l-163 -139q-13 -10 -54 -53l-61 58l137 142l-108 112l-28 31l58 53l162 -140q16 -14 64 -41z" />
<glyph unicode="&#x205f;" horiz-adv-x="237" />
<glyph unicode="&#x20ac;" horiz-adv-x="715" d="M498 712q86 0 170 -37q-10 -53 -47 -107q-98 59 -197 59q-32 0 -66 -5q-86 -58 -110 -165h189q55 0 149 7l-33 -82h-314v-7q0 -17 2 -47h192q55 0 149 7l-33 -82h-294q25 -83 83.5 -129t137.5 -46q35 0 86 19t85 39l40 -58l-26 -16q-117 -74 -235 -74t-212 67t-119 199 h-90l34 74h49v12q0 15 2 43h-76l35 74h56q37 118 143.5 186.5t249.5 68.5z" />
<glyph unicode="&#x25fc;" horiz-adv-x="485" d="M0 485h485v-485h-485v485z" />
</font>
</defs>
</svg>
