<?xml version="1.0" standalone="no"?>
<!DOCTYPE svg PUBLIC "-//W3C//DTD SVG 1.1//EN" "http://www.w3.org/Graphics/SVG/1.1/DTD/svg11.dtd" >
<svg xmlns="http://www.w3.org/2000/svg">
<metadata></metadata>
<defs>
<font id="asulregular" horiz-adv-x="562" >
<font-face units-per-em="1000" ascent="800" descent="-200" />
<missing-glyph horiz-adv-x="225" />
<glyph horiz-adv-x="0" />
<glyph unicode="&#xd;" horiz-adv-x="333" />
<glyph unicode=" "  horiz-adv-x="225" />
<glyph unicode="&#x09;" horiz-adv-x="225" />
<glyph unicode="&#xa0;" horiz-adv-x="225" />
<glyph unicode="!" horiz-adv-x="268" d="M98 167q1 8 1 53t-2 135t-3 120t-2 49.5t-2 34t-2 29.5q-7 70 -38 92v10l137 24l6 -10q-6 -45 -24 -524zM204 20v-8l-8 -8q-51 -13 -84 -15l-10 4q-13 28 -13 66v10l8 8q47 15 82 15q4 0 13 -5q12 -30 12 -67z" />
<glyph unicode="&#x22;" horiz-adv-x="471" d="M184 694q8 -6 8 -38t-11 -119t-22 -110h-28q-11 23 -21 106.5t-10 116.5t7 43l9 6q16 4 27 4q14 0 34 -4zM364 694q8 -6 8 -38t-11 -119t-22 -110h-28q-11 23 -21 106.5t-10 116.5t7 43l9 6q16 4 27 4q14 0 34 -4z" />
<glyph unicode="#" horiz-adv-x="573" d="M516 216h-120q-10 -79 -26 -216l-77 -6l-1 6q17 57 45 216h-146q-10 -79 -26 -216l-77 -6l-1 6q17 57 45 216h-130l17 72h126q9 45 20 122h-136l17 72h130l26 206l75 18l1 -6q-19 -74 -43 -218h146l26 206l75 18l1 -6q-19 -74 -43 -218h116l-11 -72h-117l-20 -122h123z M223 410l-20 -122h147q9 45 20 122h-147z" />
<glyph unicode="$" horiz-adv-x="560" d="M500 205q0 -196 -197 -214q0 -62 4 -106l-59 -16l-4 7q9 61 10 113q-118 3 -200 59q3 60 36 105q71 -78 165 -96v278q-38 17 -55.5 25t-48 27t-44.5 36q-38 46 -38 103q0 87 51 132t135 52q-2 52 -4 82l55 26l4 -7q-7 -53 -7 -99q89 -5 179 -46q-11 -50 -36 -97 q-68 58 -143 77v-236q40 -18 58 -26.5t50.5 -29t47.5 -38.5t28 -47.5t13 -63.5zM389 77q26 33 26 89t-29 88t-83 59v-260q49 0 86 24zM169 636q-22 -28 -22 -74.5t28 -75.5t80 -55v222h-3q-53 0 -83 -17z" />
<glyph unicode="%" horiz-adv-x="778" d="M552 716l84 4l-1 -6q-42 -60 -145 -232.5t-149 -255.5l-127 -237l-85 -8l1 6q41 59 142.5 231t151.5 261zM65.5 367.5q-39.5 55.5 -39.5 146.5t43.5 144.5t112.5 53.5t104 -54t35 -141t-40 -146t-108 -59t-107.5 55.5zM243 503q0 151 -75 151q-29 0 -42 -15 q-22 -37 -22 -108q0 -164 82 -164q24 0 35 17q22 28 22 119zM483.5 43.5q-39.5 55.5 -39.5 146.5t43.5 144.5t112.5 53.5t104 -54t35 -141t-40 -146t-108 -59t-107.5 55.5zM661 179q0 151 -75 151q-29 0 -42 -15q-22 -37 -22 -108q0 -161 82 -161q24 0 35 17q22 28 22 116z " />
<glyph unicode="&#x26;" horiz-adv-x="773" d="M666 402h-67q4 -44 4 -80q0 -98 -32 -168q92 -63 206 -122l-66 -89q-76 62 -109 85l-73 57q-82 -97 -231 -97q-129 0 -193.5 64t-64.5 166q0 49 15 88t38 60q41 37 80 48q-65 85 -65 161q0 136 179 136q98 0 185 -29q-7 -63 -37 -102q-89 75 -155 75q-44 0 -68.5 -24.5 t-24.5 -71.5q0 -92 188 -253q71 -62 147 -117q10 47 10 101.5t-19 114.5l-106 -2l40 58q76 -7 111 -7l135 6zM490 117q-203 166 -288 263q-66 -45 -66 -142q0 -77 47 -131t142 -54q115 0 165 64z" />
<glyph unicode="'" horiz-adv-x="281" d="M179 694q8 -6 8 -38t-11 -119t-22 -110h-28q-11 23 -21 106.5t-10 116.5t7 43l9 6q16 4 27 4q14 0 34 -4z" />
<glyph unicode="(" horiz-adv-x="400" d="M368 -135q-8 -31 -17 -38q-113 40 -192 151q-40 56 -63 136.5t-23 176.5q0 263 159 397q56 46 119 69l4 -3q12 -30 13 -35q-118 -52 -163 -172q-40 -107 -40 -275.5t47.5 -263.5t155.5 -143z" />
<glyph unicode=")" horiz-adv-x="400" d="M327 291q0 -96 -23 -176.5t-63 -136.5q-79 -111 -192 -151q-9 7 -17 38q108 48 155.5 143t47.5 275q0 257 -103 367q-41 43 -100 69q1 5 13 35l4 3q63 -23 119 -69q159 -134 159 -397z" />
<glyph unicode="*" horiz-adv-x="419" d="M45 481l-7 3l-1 89l7 1q43 -13 126 -19q-43 59 -81 91l-3 7l76 47l6 -5q14 -70 41 -126q44 76 55 126l5 5l76 -47l-1 -7q-39 -25 -98 -93q91 9 129 21l7 -1l-1 -91l-7 -2q-52 23 -130 32q51 -64 98 -96l3 -7l-76 -48l-5 5q-8 41 -55 124q-29 -63 -41 -123l-6 -6l-75 47 l2 7q47 41 85 96q-86 -10 -129 -30z" />
<glyph unicode="+" horiz-adv-x="600" d="M330 358h228l-1 -66h-227v-228h-68v228h-220l1 67l219 -1l1 220l67 -1v-219z" />
<glyph unicode="," horiz-adv-x="277" d="M174 112q23 -23 23 -79.5t-29.5 -105.5t-83.5 -107l-52 21q34 52 49 88t15 77t-23 80q2 6 6 10q41 17 84 17q6 0 11 -1z" />
<glyph unicode="-" horiz-adv-x="354" d="M38 323q40 -9 90 -9l86 1q22 0 68.5 2t70.5 2l-30 -78h-7q-68 9 -181 9l-134 -6l30 79h7z" />
<glyph unicode="." horiz-adv-x="311" d="M225 108q16 -16 16 -67q0 -13 -2 -24l-10 -8q-49 -15 -110 -19l-11 5q-17 32 -17 81v10l10 9q53 19 103 19h10z" />
<glyph unicode="/" horiz-adv-x="329" d="M273 716l88 18v-6q-69 -136 -266 -687q-7 -20 -21 -64t-22 -68l-98 -27v6q30 59 116.5 278t120.5 313z" />
<glyph unicode="0" horiz-adv-x="675" d="M141.5 89q-71.5 101 -71.5 266.5t79 262t204 96.5t188.5 -98t63.5 -256.5t-72 -265t-186 -106.5q-134 0 -205.5 101zM499 334q0 309 -171 309q-31 0 -59.5 -9.5t-40.5 -21.5q-22 -31 -37 -98t-15 -131t8.5 -118.5t28.5 -102.5t57.5 -75.5t89.5 -27.5q18 0 45.5 9t40.5 24 q25 28 39 99t14 143z" />
<glyph unicode="1" horiz-adv-x="374" d="M251 587v-377q0 -145 15 -203v-7h-126v7q15 58 15 203v299q0 73 -3 98q-68 -15 -124 -18l-8 45q96 17 163 66h72z" />
<glyph unicode="2" horiz-adv-x="528" d="M345 547q0 103 -91 103q-68 0 -170 -88q-34 41 -39 102q114 48 210.5 48t146 -42t49.5 -116q0 -109 -107 -250q-54 -71 -93 -116t-107 -117q76 0 106 1q177 6 228 50l9 -7l-41 -115h-388l-19 49q180 193 239 295q67 115 67 203z" />
<glyph unicode="3" horiz-adv-x="504" d="M395.5 52.5q-63.5 -63.5 -175 -63.5t-201.5 51v7q0 48 26 77q97 -74 177 -74q61 0 90 19q46 44 46 141q0 74 -32.5 105t-101.5 31t-96 -4h-4l-17 62h85q54 0 88 42t34 96q0 113 -86 113q-71 0 -150 -68q-26 36 -32 95q96 30 192 30q172 0 172 -146q0 -70 -35.5 -116.5 t-75.5 -58.5q160 -20 160 -176q0 -99 -63.5 -162.5z" />
<glyph unicode="4" horiz-adv-x="566" d="M410 191q0 -127 11 -184v-7h-113v7q9 56 11 174v10q-246 0 -280 -1l-23 48q104 191 277 462l119 12q-4 -88 -4 -448q21 0 58 3t47 3l-16 -79h-87zM321 262v368q-175 -285 -221 -371q8 0 221 3z" />
<glyph unicode="5" horiz-adv-x="538" d="M446 569q-61 59 -195 63h-50q-14 -47 -43 -207q131 -8 171 -16.5t80 -28.5q81 -40 81 -156q0 -101 -68 -168.5t-180 -67.5t-228 63q3 20 16.5 49t25.5 41q111 -87 211 -87q51 0 83 16q18 23 28.5 63.5t10.5 76.5q0 127 -173 140l-117 9l-18 21q13 111 50 318l303 5 l23 -134h-11z" />
<glyph unicode="6" horiz-adv-x="594" d="M348 449q70 0 126 -43q28 -23 45.5 -66t17.5 -101q0 -110 -60 -180t-170 -70t-173.5 71t-63.5 219q0 284 254 398q62 28 113 35l10 -45q-120 -37 -181 -108.5t-82 -178.5q69 69 164 69zM176 252q0 -106 29.5 -155.5t105.5 -49.5q57 0 81 17q39 52 39 142.5t-31 129.5 t-83 39q-69 0 -139 -54q-2 -42 -2 -69z" />
<glyph unicode="7" horiz-adv-x="443" d="M221 700l228 1l1 -4q-21 -40 -116.5 -303.5t-116.5 -396.5h-142l-1 7q151 273 281 622q-42 4 -96 4q-143 0 -202 -59h-11l-25 132q114 -3 200 -3z" />
<glyph unicode="8" horiz-adv-x="574" d="M397 542q0 119 -110 119q-39 0 -69 -14q-33 -32 -33 -96q0 -42 29 -74.5t114 -78.5q69 50 69 144zM158 191q0 -135 135 -135q54 0 84 13q39 30 39 94q0 46 -35 81t-131 87q-92 -40 -92 -140zM522 181q0 -91 -66.5 -142t-168 -51t-168.5 49.5t-67 141.5q0 74 42 118.5 t104 65.5q-55 37 -81 75.5t-26 95.5q0 86 55 132t144.5 46t145 -39.5t55.5 -124.5q0 -66 -31.5 -107t-83.5 -74q81 -50 113.5 -87.5t32.5 -98.5z" />
<glyph unicode="9" horiz-adv-x="595" d="M121 280q-29 24 -46 68.5t-17 104.5q0 116 61 187t170 71t172.5 -72.5t63.5 -225.5q0 -229 -147 -342q-81 -62 -218 -82l-12 44q50 9 100 36t87.5 70.5t69.5 148.5q-70 -52 -149.5 -52t-134.5 44zM419 443q0 108 -29.5 158t-105.5 50q-58 0 -81 -18q-39 -54 -39 -148 t32.5 -133.5t93.5 -39.5t124 36q5 48 5 95z" />
<glyph unicode=":" horiz-adv-x="333" d="M214 456q15 -14 15 -62q0 -12 -1 -21l-9 -9q-50 -13 -102 -17l-11 5q-15 30 -15 73v11l9 9q54 17 99 17q5 0 15 -6zM232 99q15 -14 15 -62q0 -12 -1 -21l-9 -9q-50 -13 -102 -17l-11 5q-15 30 -15 73v11l9 9q54 17 99 17q5 0 15 -6z" />
<glyph unicode=";" horiz-adv-x="315" d="M198 -48q-19 -41 -38 -65t-56 -67l-52 21q2 4 12 19.5t12 19t9.5 16t9 17t6 16t5.5 19t4 19.5q3 17 3 46t-20 73l6 10q41 17 84 17q6 0 11 -1q23 -23 23 -71t-19 -89zM182 451q15 -14 15 -62q0 -12 -1 -21l-9 -9q-50 -13 -102 -17l-11 5q-15 30 -15 73v11l9 9 q54 17 99 17q5 0 15 -6z" />
<glyph unicode="&#x3c;" horiz-adv-x="536" d="M526 115v-70l-516 242v70l516 243v-71l-434 -207z" />
<glyph unicode="=" horiz-adv-x="536" d="M526 446l-1 -66h-515l1 67zM526 279l-1 -66h-515l1 67z" />
<glyph unicode="&#x3e;" horiz-adv-x="534" d="M9 45v70l434 207l-434 207v71l516 -243v-70z" />
<glyph unicode="?" horiz-adv-x="430" d="M297 534q0 100 -94 100q-65 0 -134 -57q-24 43 -24 96v12q73 27 161 27t137.5 -41t49.5 -123q0 -49 -19.5 -94.5t-44 -74.5t-56.5 -54q-44 -34 -74 -48v-23t11 -54v-7q-20 -4 -43 -4t-47 4v7q11 47 11 66t-1 25l12 9q64 45 109.5 107.5t45.5 126.5zM212 85q13 -13 13 -57 q0 -10 -1 -18l-8 -8q-34 -10 -76 -13l-10 4q-12 25 -12 44t2 31l8 8q33 11 75 14z" />
<glyph unicode="@" horiz-adv-x="806" d="M389 -43q-147 0 -250.5 97t-103.5 264t105 281t286 114q162 0 252.5 -91t90.5 -212t-70 -199.5t-162 -78.5t-92 82q0 24 4 47l-3 -1q-105 -128 -176 -128q-65 0 -65 109q0 75 29 145t93 119.5t151 49.5q66 0 106 -14l-68 -246q-10 -36 -10 -66q0 -44 40 -44 q65 0 112 64.5t47 142.5t-32 130.5t-81 79.5q-99 55 -198 55q-62 0 -119 -20q-156 -95 -156 -301q0 -159 82.5 -241.5t203.5 -82.5q91 0 191 52l21 -33q-103 -74 -228 -74zM498 495q-22 13 -58 13t-67 -13q-50 -63 -72 -153q-13 -52 -13 -89q0 -52 29 -52q24 0 80 54t66 100 z" />
<glyph unicode="A" horiz-adv-x="573" d="M261 245q-73 0 -111 -1q-28 -112 -34.5 -148.5t-6.5 -78.5v-17h-136v10q45 35 120.5 277.5t98 317.5t24.5 96l117 12q0 -35 63 -218.5t101.5 -283.5t59.5 -139t47 -62v-10h-168v17q0 36 -9.5 67t-12.5 40l-40 120q-40 1 -113 1zM258 626q-20 -53 -96 -325h195 q-18 55 -53 173t-46 152z" />
<glyph unicode="B" horiz-adv-x="660" d="M306 52q78 0 126 43.5t48 115.5t-46.5 109t-154.5 39l-49 1q0 -250 4 -299q30 -9 72 -9zM230 411h79q136 0 136 121q0 63 -33.5 91.5t-91 28.5t-88.5 -3q-2 -15 -2 -238zM170 698l162 2q214 0 214 -140q0 -56 -28 -95.5t-69 -61.5q43 -8 87 -43q26 -19 41.5 -56t15.5 -86 q0 -75 -36 -125t-93.5 -72.5t-143.5 -22.5l-119 5l-93 -3v7q19 51 19 143v390q0 100 -16 153v7z" />
<glyph unicode="C" horiz-adv-x="658" d="M162 375q0 -144 69.5 -224t172.5 -80q75 0 199 68l27 -41q-46 -34 -71.5 -49t-57.5 -31q-65 -31 -139 -31q-130 0 -221.5 97t-91.5 260t106 265.5t263 102.5q105 0 197 -48q-12 -63 -42 -106q-103 83 -223 83q-36 0 -70 -7q-51 -38 -84.5 -103t-33.5 -156z" />
<glyph unicode="D" horiz-adv-x="754" d="M166 698q185 3 188 3q177 0 264 -80.5t87 -247.5q0 -105 -33 -187q-75 -186 -315 -186l-190 1h-59v7q16 62 16 203v279q0 141 -16 203v7zM353 68q121 0 173 31q66 75 66 244.5t-60.5 233.5t-203.5 64q-3 0 -99 -1q-2 -38 -2 -246v-60q0 -230 4 -260q60 -6 122 -6z" />
<glyph unicode="E" horiz-adv-x="573" d="M480 628q-59 15 -142.5 15t-106.5 -2q-2 -38 -2 -246l238 5l-29 -69h-7q-68 8 -108 8t-94 -3q0 -243 4 -273q23 -3 76 -3q157 0 229 32h7l-18 -92h-419v7q16 62 16 203v280q0 141 -16 203v7l404 3l-25 -75h-7z" />
<glyph unicode="F" horiz-adv-x="530" d="M422 320q-54 8 -106.5 8t-88.5 -2v-115q0 -142 16 -204v-7h-135v7q16 62 16 203v279q0 141 -16 203v7l405 3l-25 -76h-7q-63 16 -145 16t-105 -2q-4 -30 -4 -253l234 5l-32 -72h-7z" />
<glyph unicode="G" horiz-adv-x="707" d="M626 273q0 -138 7 -195q-143 -90 -277 -90t-220.5 95.5t-86.5 253t95.5 266.5t253.5 109q127 0 242 -86q-37 -39 -95 -75q-68 90 -199 90q-55 0 -87 -10q-97 -82 -97 -264q0 -305 237 -305q85 0 126 26q12 62 12 178h-131l42 66q79 -6 137 -6t99 2l-28 -55h-30z" />
<glyph unicode="H" horiz-adv-x="767" d="M541 336l-158 1q-99 0 -157 -1v-127q0 -37 4.5 -108t10.5 -94v-7h-133v7q15 58 15 203v280q0 145 -15 203v7h133v-7q-6 -23 -10.5 -94.5t-4.5 -108.5v-91h315v91q0 37 -4.5 108.5t-10.5 94.5v7h133v-7q-15 -58 -15 -203v-280q0 -145 15 -203v-7h-133v7q6 23 10.5 94 t4.5 108v127z" />
<glyph unicode="I" horiz-adv-x="349" d="M226 480v-270q0 -37 4.5 -108.5t10.5 -94.5v-7h-133v7q15 58 15 213v270q0 145 -15 203v7h133v-7q-6 -23 -10.5 -99t-4.5 -114z" />
<glyph unicode="J" horiz-adv-x="356" d="M130 199v291q0 153 -17 203v7h135v-7q-15 -48 -15 -203v-334q0 -83 -19 -170q-8 -40 -50 -107q-10 -16 -36 -40q-30 -28 -105 -86l-36 34q14 9 46 39q60 54 78.5 129t18.5 244z" />
<glyph unicode="K" horiz-adv-x="610" d="M649 0h-164q-35 43 -259 346v-136q0 -37 4.5 -108.5t10.5 -94.5v-7h-133v7q15 58 15 203v279q0 146 -15 204v7h133v-7q-6 -23 -10.5 -95t-4.5 -109v-120l163 211q64 83 64 120h126v-10q-42 -7 -117 -105l-155 -200l130 -168q78 -100 127.5 -148.5t84.5 -58.5v-10z" />
<glyph unicode="L" horiz-adv-x="523" d="M108 0v7q15 58 15 203v280q0 145 -15 203v7h133v-7q-6 -24 -10.5 -96.5t-4.5 -109.5v-281q0 -66 6 -143q22 -3 80 -3q153 0 224 32h7l-18 -92h-417z" />
<glyph unicode="M" horiz-adv-x="889" d="M75 10q37 280 37 553q0 81 -5 129v10l139 11q6 -39 24 -95q34 -108 177 -522q82 249 127.5 408.5t51.5 195.5l148 15v-10q-1 -27 -1 -97t11.5 -259t35.5 -342v-7h-130v17q2 88 2 166.5t-3 144.5t-7 115.5t-8 83t-5 51.5q-29 -86 -90 -278t-90 -299l-109 -10 q0 46 -161 501q-31 88 -34 94q0 -1 -2 -38q-11 -205 -11 -313.5t2 -217.5v-17h-99v10z" />
<glyph unicode="N" horiz-adv-x="710" d="M173 0h-101v7q15 66 15 232v224q0 154 -13 230v7l121 9l350 -544v325q0 53 -6 115.5t-15 87.5v7h105v-7q-15 -66 -15 -232v-251q0 -60 4.5 -128.5t8.5 -81.5l-94 -10l-378 585v-365q0 -133 18 -203v-7z" />
<glyph unicode="O" horiz-adv-x="753" d="M134.5 89q-85.5 101 -85.5 255.5t97 262t250 107.5q99 0 170 -49q138 -95 138 -297q0 -165 -97.5 -272.5t-242 -107.5t-230 101zM591 341q0 128 -48 209q-53 91 -178 91q-88 0 -138 -31q-29 -36 -47 -101.5t-18 -147t21 -147t75.5 -110.5t134 -45t131.5 33q67 75 67 249z " />
<glyph unicode="P" horiz-adv-x="623" d="M170 698l157 2q258 0 258 -191q0 -110 -75.5 -171t-193.5 -61q-41 0 -86 9v-151q0 -82 19 -129v-6h-141v7q19 51 19 143v383q0 105 -16 160v7zM472 499q0 150 -144 150q-73 0 -96 -3q-2 -27 -2 -176v-137q39 -11 81 -11q79 0 120 46.5t41 130.5z" />
<glyph unicode="Q" horiz-adv-x="752" d="M134.5 88.5q-85.5 100.5 -85.5 256t97.5 262.5t245.5 107t230 -98t82 -251q0 -190 -133 -303q88 -82 152 -115l1 -6l-112 -40q-58 71 -104 120q-68 -33 -145 -33q-143 0 -228.5 100.5zM591 344q0 121 -45 203q-25 44 -71 69t-122 25t-126 -31q-65 -82 -65 -248 q0 -123 48 -208q25 -45 73.5 -71.5t115.5 -26.5q35 0 66 9q-25 26 -95 91v4l69 30q31 -37 91 -91q61 88 61 245z" />
<glyph unicode="R" horiz-adv-x="641" d="M174 698l149 2q240 0 240 -173q0 -84 -55.5 -140.5t-147.5 -67.5l115 -145q72 -91 108 -124t62 -40v-10h-164q-19 31 -60 89l-162 227l-29 2v-157q0 -105 15 -154v-7h-137v7q19 51 19 143v388q0 104 -15 155v7zM310 649q-48 0 -77 -4q-3 -22 -3 -278q36 -4 69 -4 q84 0 118.5 38.5t34.5 114t-32 104.5t-110 29z" />
<glyph unicode="S" d="M173 632q-21 -27 -21 -65.5t19 -63.5t50 -41.5t68 -32t74 -34t68 -43t50 -65t19 -93.5q0 -101 -65 -153t-178 -52t-203 64q3 66 36 115q40 -48 97 -79t109 -31t89 23q25 30 25 79t-25.5 80t-63 48.5t-82 39t-82 43.5t-63 63t-25.5 96q0 92 62.5 137t157 45t193.5 -46 q-11 -59 -36 -112q-41 41 -94.5 67.5t-101.5 26.5t-77 -16z" />
<glyph unicode="T" horiz-adv-x="487" d="M-10 614q0 45 -5 89q201 -3 258.5 -3t258.5 3q-7 -61 -7 -89h-7q-111 28 -189 30q-5 -52 -5 -161v-275q0 -135 15 -201v-7h-131v7q13 65 13 197v275q0 113 -5 165q-76 -2 -189 -30h-7z" />
<glyph unicode="U" horiz-adv-x="701" d="M609 501v-190q0 -182 -59 -252.5t-198.5 -70.5t-201.5 68.5t-62 218.5v211q0 149 -15 207v7h130v-7q-13 -85 -13 -238v-134q0 -168 44 -217q42 -47 130 -47t131 30q26 42 33 115t7 240t-15 251v7h104v-7q-6 -24 -10.5 -90.5t-4.5 -101.5z" />
<glyph unicode="V" horiz-adv-x="623" d="M484 700h146v-10q-50 -39 -134 -291q-105 -331 -124 -400l-122 -12q0 33 -64 227q-146 445 -191 476v10h163v-17q0 -53 41 -185l131 -423q89 307 97 337.5t18 65.5q25 88 31 122.5t8 82.5v17z" />
<glyph unicode="W" horiz-adv-x="953" d="M826 683v17h135v-10q-71 -152 -157 -496q-43 -169 -50 -195l-128 -12q0 55 -105 423q-4 14 -9 33.5t-13.5 51t-15.5 57.5h-2q-7 -27 -22 -74.5t-47.5 -160.5t-47 -175t-37.5 -143l-128 -12q0 48 -130 505q-31 109 -44 144t-29 54v10h149v-17q0 -66 31 -185l106 -423 q93 314 128 515q12 71 13 110h123q10 -95 62 -280q19 -67 98 -345q4 19 30 111q90 327 90 497z" />
<glyph unicode="X" horiz-adv-x="593" d="M281 302q-152 -229 -152 -303l-143 1v10q51 29 117 133q111 169 137 212l-79 133q-105 177 -158 202v10h174v-11q0 -34 23 -80q23 -49 102 -179q56 84 83 137q49 94 49 133h144v-10q-33 -21 -56.5 -49t-93.5 -133t-86 -130l83 -133q74 -124 110.5 -171.5t66.5 -63.5v-10 h-177v8q0 33 -34 96q-49 89 -70 129z" />
<glyph unicode="Y" horiz-adv-x="511" d="M277 348q127 275 127 335v17h116v-10q-41 -30 -209 -400v-80q0 -35 4.5 -107t9.5 -96v-7h-128v7q14 61 14 176v110l-96 189q-99 189 -130 208v10h148v-17q0 -39 32.5 -109t48.5 -104t20 -41q13 -20 43 -81z" />
<glyph unicode="Z" horiz-adv-x="514" d="M124 63q23 -3 109 -3t167 9t112 23h7l-18 -92h-476l-29 51l388 587q-23 3 -96.5 3t-143.5 -11.5t-106 -27.5h-7l17 96l427 7l34 -60z" />
<glyph unicode="[" horiz-adv-x="431" d="M203 -135q70 0 116 19h7l30 -60l-261 3l1 930l260 3l-30 -60h-7q-44 18 -115 18h-27v-760q0 -48 3 -93h23z" />
<glyph unicode="\" horiz-adv-x="291" d="M-72 654l46 77l5 -4q54 -145 324 -662q7 -13 30 -53.5t37 -67.5l-46 -90l-4 4q-24 61 -124.5 271t-148.5 304z" />
<glyph unicode="]" horiz-adv-x="431" d="M228 -135h23q3 45 3 93v760h-27q-71 0 -115 -18h-7l-30 60l260 -3l1 -930l-261 -3l30 60h7q46 -19 116 -19z" />
<glyph unicode="^" horiz-adv-x="602" d="M272 682h64l148 -303h-81l-101 213l-106 -213h-78z" />
<glyph unicode="_" horiz-adv-x="560" d="M536 -138h-512v56h512v-56z" />
<glyph unicode="`" horiz-adv-x="500" d="M319 530q-89 49 -187 144q25 41 68 58q54 -96 142 -176z" />
<glyph unicode="a" horiz-adv-x="504" d="M330 200q-41 15 -94.5 15t-77.5 -17q-15 -23 -15 -61.5t21 -60.5t52.5 -22t64.5 16.5t49 35.5v94zM346 56q-61 -67 -137.5 -67t-120 33t-43.5 106.5t51.5 105.5t145.5 32l88 -3v57q0 53 -26 86t-79 33q-39 -1 -125 -75q-29 37 -41 96q99 32 182 32t133 -43t50 -122v-168 q1 -45 14.5 -83.5t35.5 -53.5l2 -10l-107 -26q-13 32 -23 70z" />
<glyph unicode="b" horiz-adv-x="588" d="M191 88q66 -34 124 -34t79 12q17 20 30 76t13 108q0 167 -104 167q-58 0 -142 -57v-272zM191 654v-237q83 74 165.5 74t135 -65t52.5 -158q0 -117 -71 -198t-163.5 -81t-223.5 42v6q11 30 11 137v413q0 79 -47 124v12l138 24l6 -10q-3 -29 -3 -83z" />
<glyph unicode="c" horiz-adv-x="490" d="M169 354.5q-19 -49.5 -19 -118t27.5 -119.5t87.5 -51q40 0 93 18.5t70 31.5l25 -39q-128 -88 -194 -88q-100 0 -157.5 68t-57.5 178t74.5 184t170 74t158.5 -43q-39 -62 -51 -75q-68 52 -130 52q-23 0 -45 -3q-33 -20 -52 -69.5z" />
<glyph unicode="d" horiz-adv-x="571" d="M255 -11q-104 0 -155 70.5t-51 177.5t65.5 181t165.5 74q56 0 111 -19v114q0 80 -46 124v12l137 24l6 -10q-3 -29 -3 -83v-495q0 -45 14 -85.5t36 -55.5l2 -10l-109 -26q-10 25 -25 82q-77 -75 -148 -75zM208 93q29 -30 79 -30t104 48v282q-52 38 -130 38q-45 0 -69 -18 q-37 -59 -37 -163t53 -157z" />
<glyph unicode="e" horiz-adv-x="494" d="M267 -11q-105 0 -164 65t-59 171.5t66 186.5t164 80q179 0 179 -221l-37 -36h-266q0 -84 36 -126t97 -42q24 0 68 14.5t78 34.5l25 -38q-19 -19 -82.5 -54t-104.5 -35zM256 442q-42 0 -65 -19q-19 -26 -30 -66t-11 -70l205 8q0 147 -99 147z" />
<glyph unicode="f" horiz-adv-x="357" d="M63 484l57 -3v60q0 85 39.5 142t122.5 57t167 -38q-26 -63 -43 -88q-71 64 -130 64q-19 0 -41 -9q-21 -27 -21 -131v-58q73 1 145 8l-27 -73q-59 9 -118 11v-233q0 -47 9 -104t20 -82v-7h-140v7q17 50 17 163v256l-80 -3z" />
<glyph unicode="g" horiz-adv-x="518" d="M171 132q-14 -14 -14 -22.5t4 -13.5t14 -9t20 -6.5t27.5 -5.5t31 -5t36.5 -5.5t38 -5.5q89 -13 129 -37t40 -81q0 -81 -75 -125t-179 -44q-75 0 -137 24q-35 14 -56 40.5t-21 64.5q0 79 93 118q-50 21 -50 64.5t85 89.5q-88 45 -88 147q0 80 53 124.5t129 44.5t122 -26 q36 0 118 8l27 -57l-91 2q26 -39 26 -92q0 -81 -53 -127t-137 -46q-30 0 -57 6q-21 -11 -35 -25zM162 1q-69 -25 -69 -79t55 -80.5t119 -26.5q78 0 120 35q25 20 25 51q0 26 -23 44q-20 16 -115 33q-20 4 -60.5 12.5t-51.5 10.5zM182 257q26 -56 87 -56q42 0 58 14 q28 32 28 98.5t-21 96t-69 29.5t-71 -13q-27 -37 -27 -87.5t15 -81.5z" />
<glyph unicode="h" horiz-adv-x="599" d="M187 545v-137q38 29 58.5 43t53 27.5t61.5 13.5q74 0 114 -46t40 -132v-144q0 -95 30 -163v-7h-141v7q17 50 17 133v153q0 58 -17.5 87.5t-73 29.5t-139.5 -51v-189q0 -97 29 -163v-7h-140v7q17 50 17 133v447q0 80 -46 124v12l134 24l6 -10q-3 -29 -3 -192z" />
<glyph unicode="i" horiz-adv-x="265" d="M97 139v194q0 89 -50 124v12l141 24l6 -10q-3 -29 -3 -83v-236q0 -100 25 -157v-7h-135v7q16 47 16 132zM181 708q14 -12 14 -58q0 -11 -1 -20l-8 -7q-40 -11 -95 -16l-9 4q-15 26 -15 69v10l8 7q48 16 92 16q5 0 14 -5z" />
<glyph unicode="j" horiz-adv-x="251" d="M176 707q14 -13 14 -58q0 -11 -1 -20l-8 -7q-40 -11 -95 -16l-9 4q-15 26 -15 69v10l8 7q48 16 92 16q5 0 14 -5zM186 398v-288q0 -152 -43 -222q-23 -38 -41 -57.5t-40 -37.5q0 -1 -47 -41l-36 33q74 46 97 145q16 69 16 219v181q0 91 -56 127v12l147 24l6 -10 q-3 -30 -3 -85z" />
<glyph unicode="k" horiz-adv-x="534" d="M206 0h-127v12q17 50 17 158v417q0 80 -46 124v12l137 24l6 -10q-3 -29 -3 -83v-352l170 142q28 23 28 36h115v-12q-19 -2 -94 -62l-142 -122l125 -134q69 -76 99 -102t58 -36v-12h-149q0 2 -210 252v-82q0 -111 16 -158v-12z" />
<glyph unicode="l" horiz-adv-x="264" d="M208 0h-129v12q17 50 17 158v417q0 80 -46 124v12l137 24l6 -10q-3 -29 -3 -192l1 -375q0 -108 17 -158v-12z" />
<glyph unicode="m" horiz-adv-x="874" d="M492 321v-181q0 -80 15 -133v-7h-124v7q15 53 15 133v160q0 57 -15 83.5t-60 26.5t-121 -51v-189q0 -97 29 -163v-7h-140v7q17 50 17 133v170q0 43 -17.5 84.5t-40.5 55.5l-1 12l131 31l6 -10q8 -37 12 -75q36 31 51.5 43.5t44 26.5t53.5 14q103 0 133 -89q103 89 161 89 q70 0 109 -46t39 -132v-144q0 -95 30 -163v-7h-141v7q17 50 17 133v153q0 117 -73 117q-61 0 -132 -52q2 -24 2 -37z" />
<glyph unicode="n" horiz-adv-x="605" d="M369 492q72 0 111.5 -46t39.5 -132v-144q0 -95 30 -163v-7h-141v7q17 50 17 133v153q0 58 -17.5 87.5t-70.5 29.5t-136 -51v-189q0 -97 29 -163v-7h-140v7q17 50 17 133v170q0 43 -17.5 84.5t-40.5 55.5l-1 12l131 31l6 -10q8 -37 12 -75q37 29 57.5 43t52.5 27.5 t61 13.5z" />
<glyph unicode="o" d="M105 54.5q-61 66.5 -61 174t71 185.5t178.5 78t166 -65t58.5 -174t-71 -187t-176 -78t-166 66.5zM412 228q0 99 -31 153t-110 54q-51 0 -80 -22q-18 -23 -29.5 -70t-11.5 -90q0 -209 148 -209q46 0 75 21q19 23 29 71t10 92z" />
<glyph unicode="p" horiz-adv-x="588" d="M328 53q45 0 66 12q16 19 29 76t13 110q0 167 -101 167q-64 0 -140 -53v-270q63 -42 133 -42zM101 -100v414q0 44 -14 82.5t-37 52.5l-1 12l137 32l6 -10q-2 -23 -2 -65q83 74 165.5 74t135 -65t52.5 -158q0 -116 -69 -198.5t-157 -82.5q-58 0 -122 22v-68 q2 -120 41 -168v-5l-138 -15q3 40 3 146z" />
<glyph unicode="q" horiz-adv-x="547" d="M398 -61v125q-77 -75 -148 -75q-104 0 -155 70.5t-51 177.5t65.5 181t165.5 74q71 0 138 -38l57 35q16 2 28 -2q-5 -55 -5 -145v-442q0 -106 3 -146l-139 8v5q41 50 41 172zM202 93q30 -30 73 -30q25 0 58 12.5t59 35.5v282q-52 38 -136 38q-45 0 -69 -18 q-37 -59 -37 -163t52 -157z" />
<glyph unicode="r" horiz-adv-x="377" d="M338 492q31 0 46 -7v-12q0 -59 -18 -107q-45 29 -102 29q-31 0 -62 -11v-214q0 -97 29 -163v-7h-140v7q17 50 17 133v170q0 43 -17.5 84.5t-40.5 55.5l-1 12l118 31q16 -27 26 -63q60 62 145 62z" />
<glyph unicode="s" horiz-adv-x="458" d="M161 429q-18 -18 -18 -49.5t20 -49t50.5 -25.5t65.5 -20t65.5 -25.5t50.5 -43.5t20 -73q0 -76 -56 -115t-147.5 -39t-162.5 47q3 51 30 91q90 -82 164 -82q32 0 57 13q24 21 24 56.5t-27.5 55t-66.5 30.5t-78 25t-66.5 44t-27.5 78q0 70 52.5 107.5t132.5 37.5t157 -34 q-9 -44 -35 -88q-71 71 -148 71q-33 0 -56 -12z" />
<glyph unicode="t" horiz-adv-x="369" d="M202 112q0 -53 32 -53q27 0 91 32l21 -35q-32 -22 -80 -44.5t-88 -22.5t-55 25t-15 72v337l-90 -5l24 65q18 -2 64 -4q-2 50 -6 90l102 26v-115q54 2 147 12l-28 -78q-54 8 -119 10v-312z" />
<glyph unicode="u" horiz-adv-x="602" d="M236 -11q-84 0 -117.5 43.5t-33.5 134.5v143q0 95 -30 163v7h139v-7q-15 -53 -15 -133v-157q0 -60 15 -86t73 -26t136 55v184q0 97 -29 163v7h138v-7q-15 -53 -15 -133v-169q0 -44 15 -86.5t35 -56.5l1 -12l-117 -28q-17 46 -24 88q-49 -42 -89 -64.5t-82 -22.5z" />
<glyph unicode="v" horiz-adv-x="454" d="M130 476q0 -29 40 -151l75 -231l84 253q21 66 21 121v12h105v-12q-27 -25 -52 -97l-113 -327l-14 -51l-93 -4l-17 57l-119 329q-28 71 -53 88v12l136 13v-12z" />
<glyph unicode="w" horiz-adv-x="763" d="M254 106q78 224 98 305q-20 47 -29 54v12l129 7v-12q0 -29 51 -179l65 -192q66 203 77 246q21 70 21 121v12h98v-12q-25 -23 -48 -97l-100 -327l-13 -53l-94 -2l-17 57l-103 267l-90 -269l-11 -53l-95 -2l-17 57l-131 329q-28 73 -51 88v12l144 12v-12q0 -35 49 -175z " />
<glyph unicode="x" horiz-adv-x="488" d="M334 480h134v-12q-21 -7 -53 -39t-62 -79l-63 -96l74 -98q97 -129 127 -144v-12h-167v12q-5 49 -37 92l-60 80l-59 -91q-32 -50 -34 -81v-12h-134v12q14 6 47.5 35.5t58.5 67.5l80 125l-82 112q-29 40 -60.5 74.5t-44.5 41.5v12h151v-12q2 -28 47 -88l52 -71l51 78 q32 50 34 81v12z" />
<glyph unicode="y" horiz-adv-x="450" d="M254 92q96 293 96 348q0 17 -7 28v12h107v-12q-15 -13 -163 -458q-71 -208 -81 -248v-8l-124 -9l-1 7q73 87 128 234q-6 17 -173 412q-20 47 -43 66v12l134 11v-12q0 -26 24 -100.5t103 -282.5z" />
<glyph unicode="z" horiz-adv-x="426" d="M402 431l-266 -372q164 0 255 29l11 -5l-28 -83h-335l-24 48l267 372q-105 0 -148 -5.5t-78 -22.5l-11 7l20 84l312 -3z" />
<glyph unicode="{" horiz-adv-x="414" d="M216 103v-74q0 -100 20 -127q23 -32 61.5 -32t74.5 4l7 -34q-52 -13 -91.5 -13t-68 11.5t-45 29.5t-25.5 48q-14 48 -14 130v93q0 62 -31 92q-22 21 -51 37v7q24 15 37.5 25.5t29.5 41t16 70.5v125q0 132 36 175q37 44 115 44q39 0 91 -13l-7 -34q-36 4 -67 4 t-49.5 -11.5t-26.5 -35.5q-12 -37 -12 -107v-123q0 -77 -32 -115q-16 -19 -26 -27t-30 -20v-3q88 -47 88 -168z" />
<glyph unicode="|" horiz-adv-x="227" d="M147 600v-747l-73 -30l-1 879v7l81 30q-7 -95 -7 -139z" />
<glyph unicode="}" horiz-adv-x="415" d="M199 29v74q0 121 88 168v3q-20 12 -30 20t-26 27q-32 38 -32 115v123q0 70 -10 100.5t-28.5 42t-49.5 11.5t-67 -4q-2 4 -9 28l1 6q52 13 93 13t70 -13t44.5 -31.5t23.5 -51.5q12 -48 12 -123v-125q0 -40 16 -70.5t29.5 -41t37.5 -25.5v-7q-60 -32 -74 -75q-8 -23 -8 -54 v-93q0 -132 -36 -174q-37 -45 -115 -45q-40 0 -92 13l-1 6q7 24 9 28q36 -4 64 -4t45 9.5t25.5 22t12.5 36.5q7 35 7 91z" />
<glyph unicode="~" horiz-adv-x="640" d="M422 222q-33 0 -101 24t-100 24q-54 0 -109 -39l-32 66q82 43 135 43q31 0 102 -24.5t104 -24.5q55 0 107 36l32 -65q-76 -40 -138 -40z" />
<glyph unicode="&#xa1;" horiz-adv-x="268" d="M170 314q-1 -8 -1 -53t2 -135t3 -120t2 -49.5t2 -34t2 -29.5q7 -70 38 -92v-10l-137 -24l-6 10q6 45 24 524zM179 419v-8l-8 -8q-51 -13 -84 -15l-10 4q-13 28 -13 66v10l8 8q47 15 82 15q4 0 13 -5q12 -30 12 -67z" />
<glyph unicode="&#xa2;" horiz-adv-x="486" d="M96.5 58q-56.5 68 -56.5 172t61.5 174.5t150.5 85.5q0 50 -4 94l55 26l4 -7q-7 -60 -7 -110q86 -4 143 -43q-39 -62 -51 -75q-46 35 -92 47v-352q37 7 74.5 22t49.5 24l25 -39l-5 -4q-82 -58 -144 -76q0 -77 4 -112l-59 -16l-4 7q9 61 10 113q-98 1 -154.5 69zM165 354.5 q-19 -49.5 -19 -116.5t25.5 -117.5t80.5 -54.5v361q-11 0 -35 -3q-33 -20 -52 -69.5z" />
<glyph unicode="&#xa3;" horiz-adv-x="492" d="M191 211q0 40 -39 139h-2q-65 0 -134 -6l25 64h7q41 -9 81 -9q-41 78 -41 132q0 71 60.5 126t159 55t155.5 -37q-36 -55 -44 -64q-61 45 -123 45q-22 0 -42 -3q-27 -16 -43.5 -50t-16.5 -72.5t33 -130.5q21 0 67 2t69 2l-25 -63h-7q-38 5 -83 7q31 -75 31 -114 q0 -82 -106 -174q198 0 288 61h10l-27 -121h-430l34 50q70 15 106.5 58t36.5 103z" />
<glyph unicode="&#xa4;" horiz-adv-x="553" d="M390 191q-50 -36 -113.5 -36t-114.5 37l-56 -62l-61 26l77 72q-42 59 -42 122t42 123q-5 5 -34 32t-43 41l61 25l57 -62q47 37 112 37t115 -36l57 62l61 -25l-79 -74h1q42 -54 42 -123.5t-43 -121.5l79 -74l-61 -25zM365.5 259q36.5 38 36.5 92.5t-36.5 92.5t-90.5 38 t-89.5 -38t-35.5 -92.5t35.5 -92.5t89.5 -38t90.5 38z" />
<glyph unicode="&#xa5;" horiz-adv-x="544" d="M294 347q127 277 127 336v17h116v-10q-26 -19 -79 -126q-9 -19 -38 -76q-64 -125 -91 -182h76q44 0 139 7l-23 -68h-193v-35q0 -35 4.5 -107t9.5 -96v-7h-128v7q14 61 14 176v62h-79q-45 0 -139 -7l27 68h185l-90 176q-99 189 -130 208v10h148v-17q0 -39 32.5 -109 t48.5 -104t21 -41q10 -17 42 -82z" />
<glyph unicode="&#xa6;" horiz-adv-x="227" d="M147 233v-351l-73 -30l-1 381h74zM147 368h-74v345l81 30q-7 -95 -7 -139v-236z" />
<glyph unicode="&#xa7;" horiz-adv-x="566" d="M329 -101q0 125 -54 207q-38 57 -115 132q-31 29 -56 60q-57 71 -57 168q0 120 75 185.5t167.5 65.5t167.5 -33q-2 -52 -32 -97q-64 71 -141 71q-34 0 -62 -11q0 -105 58 -177q25 -31 56 -59.5t62 -57.5t57 -61q58 -73 58 -182q0 -129 -73.5 -209t-174.5 -80 q-46 0 -99.5 17t-92.5 47q3 61 32 100q87 -99 180 -99q24 0 44 5v8zM382 262q-23 30 -51.5 57.5t-57.5 56.5t-53 61q-52 71 -52 183q-51 -45 -51 -138q0 -85 55 -150q25 -28 54 -57t58 -62t52 -71q49 -80 49 -205v-18q51 60 51 167.5t-54 175.5z" />
<glyph unicode="&#xa8;" horiz-adv-x="500" d="M404 687q7 -8 10.5 -29.5t3.5 -32.5t-1 -18l-8 -7q-37 -12 -74 -15h-12l-10 3q-15 30 -15 80l10 8q36 13 71 15h17zM188 678q7 -8 10.5 -29.5t3.5 -32.5t-1 -18l-8 -7q-36 -12 -73 -15h-13l-10 3q-15 30 -15 79l10 9q38 13 72 15h16z" />
<glyph unicode="&#xa9;" horiz-adv-x="758" d="M625.5 607.5q101.5 -103.5 101.5 -251.5t-100.5 -252.5t-245.5 -104.5t-247.5 104.5t-102.5 251.5t102.5 251.5t246.5 104.5t245.5 -103.5zM582 143q85 87 85 211t-83.5 212t-202.5 88t-203 -88t-84 -211.5t84 -211t201.5 -87.5t202.5 87zM310.5 450 q-14.5 -38 -14.5 -90.5t22 -91.5t69 -39q32 0 75 14.5t55 23.5l19 -30q-100 -67 -156 -67q-82 0 -129.5 52t-47.5 136t62 140.5t139 56.5t127 -33q-30 -47 -40 -57q-56 40 -103 40q-17 0 -37 -3q-26 -14 -40.5 -52z" />
<glyph unicode="&#xaa;" horiz-adv-x="355" d="M213 528q-23 9 -53.5 9t-44.5 -11q-8 -16 -8 -35q0 -48 43 -48q16 0 35.5 10t27.5 22v53zM223 438q-44 -39 -90.5 -39t-75 21t-28.5 68q0 87 128 87l57 -2v32q0 30 -15.5 49t-43.5 19t-89 -56q-26 33 -29 70q71 22 127.5 22t90 -26.5t33.5 -75.5v-102q0 -63 30 -85l2 -7 l-83 -15q-9 19 -14 40z" />
<glyph unicode="&#xab;" horiz-adv-x="574" d="M67 268l-4 15q49 31 57 38l149 135l37 -35l-20 -23l-117 -126l137 -150l-38 -37q-4 4 -12 13q-19 20 -29 28l-125 112zM273 268l-4 15q49 31 57 38l149 135l37 -35l-20 -23l-117 -126l137 -150l-38 -37q-4 4 -12 13q-19 20 -29 28l-125 112z" />
<glyph unicode="&#xac;" horiz-adv-x="569" d="M565 142h-70v217h-491v68h561v-285z" />
<glyph unicode="&#xad;" horiz-adv-x="354" d="M38 323q40 -9 90 -9l86 1q22 0 68.5 2t70.5 2l-30 -78h-7q-68 9 -181 9l-134 -6l30 79h7z" />
<glyph unicode="&#xae;" horiz-adv-x="758" d="M625.5 607.5q101.5 -103.5 101.5 -251.5t-100.5 -252.5t-245.5 -104.5t-247.5 104.5t-102.5 251.5t102.5 251.5t246.5 104.5t245.5 -103.5zM582 143q85 87 85 211t-83.5 212t-202.5 88t-203 -88t-84 -211.5t84 -211t201.5 -87.5t202.5 87zM274 550l115 1q67 0 106 -18 t39 -68t-33 -81t-82 -37l62 -78q62 -78 93 -88v-5h-114q-24 34 -115 169q-12 0 -20 2v-84q0 -60 7 -83v-4h-101v4q11 28 11 78v207q0 58 -9 83v3zM426 508.5q-17 15.5 -53 15.5t-47 -2q-1 -12 -1 -150q13 -1 37 -1q45 0 63 20.5t18 61t-17 56z" />
<glyph unicode="&#xaf;" horiz-adv-x="500" d="M387 597h-274v77h274v-77z" />
<glyph unicode="&#xb0;" horiz-adv-x="361" d="M180 707q62 0 102 -39t40 -101.5t-38.5 -102.5t-101 -40t-103 38.5t-40.5 101t39.5 103t101.5 40.5zM111.5 499q26.5 -20 78.5 -20t77 25q10 21 10 50q0 98 -103 98q-54 0 -79 -27q-10 -21 -10 -63.5t26.5 -62.5z" />
<glyph unicode="&#xb1;" horiz-adv-x="600" d="M330 448h228l-1 -66h-227v-220h-68v220h-220l1 67l219 -1l1 220l67 -1v-219zM558 77l-1 -66h-515l1 67z" />
<glyph unicode="&#xb2;" horiz-adv-x="361" d="M181 668q-23 0 -55.5 -23t-54.5 -49q-30 32 -32 79q74 37 139.5 37t98 -25t32.5 -64t-16 -76t-50 -79q-52 -63 -124 -135h64q110 6 139 31l5 -4l-24 -81h-258l-12 40q119 119 153 173q41 67 41 121.5t-46 54.5z" />
<glyph unicode="&#xb3;" horiz-adv-x="338" d="M208 521q104 -14 104 -108q0 -59 -47 -99t-117.5 -40t-123.5 34v7q0 37 18 56q59 -48 99.5 -48t59.5 10q29 23 29 84q0 39 -20 55.5t-61 16.5t-59 -3h-3l-10 42h52q32 0 53 23.5t21 54.5q0 64 -53 64q-49 0 -100 -58q-20 32 -23 76q70 24 125 24t93 -21t38 -64 t-24.5 -71.5t-50.5 -34.5z" />
<glyph unicode="&#xb4;" horiz-adv-x="500" d="M355 674q-98 -95 -187 -144l-23 26q88 80 142 176q43 -17 68 -58z" />
<glyph unicode="&#xb6;" horiz-adv-x="660" d="M416 -109v757h-89q-3 -230 -3 -507t4 -319l-84 -16l-4 7q11 77 11 148v252q-112 1 -179 72t-67 173.5t68.5 168.5t179.5 66l394 5l-25 -64h-7q-48 12 -126 14v-761q0 -93 4 -135l-84 -16l-4 7q11 77 11 148z" />
<glyph unicode="&#xb7;" horiz-adv-x="294" d="M206 344q17 -15 17 -69q0 -13 -2 -24l-10 -9q-50 -15 -113 -19l-12 5q-17 33 -17 83v11l10 9q55 19 106 19h10z" />
<glyph unicode="&#xb8;" horiz-adv-x="500" d="M430.5 -84.5q23.5 -18.5 23.5 -56t-32 -60.5t-77 -23q-23 0 -56 10.5t-46 18.5l16 32q34 -17 67 -17q52 0 52 45q0 21 -12 33q-15 7 -35.5 7t-41.5 -4l-6 9l42 88l54 -7l-36 -59q10 3 37 2.5t50.5 -19z" />
<glyph unicode="&#xb9;" horiz-adv-x="262" d="M191 631v-233q0 -84 9 -122v-4h-98v4q10 29 10 117v179q0 42 -3 57q-47 -11 -86 -12l-7 40q75 16 113 43h65q-3 -51 -3 -69z" />
<glyph unicode="&#xba;" horiz-adv-x="393" d="M80.5 439q-40.5 41 -40.5 108t46.5 115t118 48t110 -40t38.5 -108t-46.5 -116t-116 -48t-110 41zM251 450q24 30 24 92.5t-18.5 94.5t-65.5 32q-32 0 -48 -12q-25 -30 -25 -95q0 -124 89 -124q28 0 44 12z" />
<glyph unicode="&#xbb;" horiz-adv-x="574" d="M511 283l-4 -15l-35 -30q-138 -124 -150 -136.5t-16 -16.5l-38 37l137 150l-117 126l-20 23l37 35l149 -135q8 -7 57 -38zM305 283l-4 -15l-35 -30q-138 -124 -150 -136.5t-16 -16.5l-38 37l137 150l-117 126l-20 23l37 35l149 -135q8 -7 57 -38z" />
<glyph unicode="&#xbc;" horiz-adv-x="774" d="M671 101q0 -62 9 -98v-3h-95v3q5 26 7 93v5h-165l-25 44q96 164 170 277l100 7q-2 -54 -2 -270q16 0 46.5 2t32.5 2l-12 -62h-66zM71 -13q63 63 289 407q71 107 207 325l82 6l6 -7q-68 -68 -275 -388q-116 -178 -154 -237l-65 -107l-84 -6zM191 631v-233q0 -84 9 -122v-4 h-98v4q10 29 10 117v179q0 42 -3 57q-47 -11 -86 -12l-7 40q75 16 113 43h65q-3 -51 -3 -69zM593 158v215q-62 -97 -129 -217q43 0 129 2z" />
<glyph unicode="&#xbd;" horiz-adv-x="807" d="M627 389q-23 0 -55.5 -23t-54.5 -49q-30 32 -32 79q74 37 139.5 37t98 -25t32.5 -64t-16 -76t-50 -78q-52 -64 -124 -136h64q110 6 139 31l5 -4l-24 -81h-258l-12 40q119 119 153 173q41 67 41 121.5t-46 54.5zM69 -13q63 63 289 407q71 107 207 325l82 6l6 -7 q-68 -68 -275 -388q-116 -178 -154 -237l-65 -107l-84 -6zM191 631v-233q0 -84 9 -122v-4h-98v4q10 29 10 117v179q0 42 -3 57q-47 -11 -86 -12l-7 40q75 16 113 43h65q-3 -51 -3 -69z" />
<glyph unicode="&#xbe;" horiz-adv-x="875" d="M772 101q0 -62 9 -98v-3h-95v3q5 26 7 93v5h-165l-25 44q96 164 170 277l100 7q-2 -54 -2 -270q16 0 46.5 2t32.5 2l-12 -62h-66zM208 521q104 -14 104 -108q0 -59 -47 -99t-117.5 -40t-123.5 34v7q0 37 18 56q59 -48 99.5 -48t59.5 10q29 23 29 84q0 39 -20 55.5 t-61 16.5t-59 -3h-3l-10 42h52q32 0 53 23.5t21 54.5q0 64 -53 64q-49 0 -100 -58q-20 32 -23 76q70 24 125 24t93 -21t38 -64t-24.5 -71.5t-50.5 -34.5zM138 -13q63 63 289 407q71 107 207 325l82 6l6 -7q-68 -68 -276 -388q-115 -178 -153 -237l-65 -107l-84 -6zM694 158 v215q-62 -97 -129 -217q43 0 129 2z" />
<glyph unicode="&#xbf;" horiz-adv-x="430" d="M178 74.5q-45 -60.5 -45 -116.5q0 -112 94 -112q65 0 134 57q24 -43 24 -96v-12q-73 -27 -160.5 -27t-137.5 42.5t-50 125.5q0 49 19.5 94t43.5 73.5t57 52.5q39 30 74 47v23t-11 54v7q20 4 43 4t47 -4v-7q-11 -47 -11 -66t1 -25l-12 -9q-65 -45 -110 -105.5zM218 395 q-13 13 -13 57q0 10 1 18l8 8q34 10 76 13l10 -4q12 -25 12 -44t-2 -31l-8 -8q-33 -11 -75 -14z" />
<glyph unicode="&#xc0;" d="M361 784l-10 -33q-114 9 -229 55q6 46 37 81q87 -66 202 -103zM364 244q-38 1 -108.5 1t-107.5 -1q-27 -115 -33 -150t-6 -77v-17h-136v10q43 33 116 270q119 384 122 421l116 12q0 -34 61 -214.5t100 -284.5t59.5 -143t45.5 -61v-10h-168v17q0 43 -21 107 q-4 11 -12.5 37t-15 43t-12.5 40zM162 301h184q-17 57 -51.5 179t-41.5 146q-14 -34 -52.5 -179t-38.5 -146z" />
<glyph unicode="&#xc1;" d="M364 244q-38 1 -108.5 1t-107.5 -1q-27 -115 -33 -150t-6 -77v-17h-136v10q43 33 116 270q119 384 122 421l116 12q0 -34 61 -214.5t100 -284.5t59.5 -143t45.5 -61v-10h-168v17q0 43 -21 107q-4 11 -12.5 37t-15 43t-12.5 40zM162 301h184q-17 57 -51.5 179t-41.5 146 q-14 -34 -52.5 -179t-38.5 -146zM214 751l-10 33q115 37 202 103q31 -35 37 -81q-115 -46 -229 -55z" />
<glyph unicode="&#xc2;" d="M225 903h80q26 -53 75 -98q17 -16 50 -44l-28 -31q-71 41 -140 115q-66 -66 -128 -110l-29 30q87 76 120 138zM364 244q-38 1 -108.5 1t-107.5 -1q-27 -115 -33 -150t-6 -77v-17h-136v10q43 33 116 270q119 384 122 421l116 12q0 -34 61 -214.5t100 -284.5t59.5 -143 t45.5 -61v-10h-168v17q0 43 -21 107q-4 11 -12.5 37t-15 43t-12.5 40zM162 301h184q-17 57 -51.5 179t-41.5 146q-14 -34 -52.5 -179t-38.5 -146z" />
<glyph unicode="&#xc3;" d="M353 781q-24 0 -74.5 24t-75 24t-42.5 -8.5t-45 -29.5l-20 18q24 30 60.5 62.5t59 32.5t71 -21.5t69.5 -21.5q39 0 92 37l19 -17q-77 -100 -114 -100zM364 244q-38 1 -108.5 1t-107.5 -1q-27 -115 -33 -150t-6 -77v-17h-136v10q43 33 116 270q119 384 122 421l116 12 q0 -34 61 -214.5t100 -284.5t59.5 -143t45.5 -61v-10h-168v17q0 43 -21 107q-4 11 -12.5 37t-15 43t-12.5 40zM162 301h184q-17 57 -51.5 179t-41.5 146q-14 -34 -52.5 -179t-38.5 -146z" />
<glyph unicode="&#xc4;" horiz-adv-x="595" d="M373 244q-38 1 -108.5 1t-107.5 -1q-27 -115 -33 -150t-6 -77v-17h-136v10q43 33 116 270q119 384 122 421l116 12q0 -34 61 -214.5t100 -284.5t59.5 -143t45.5 -61v-10h-168v17q0 43 -22 107q-3 11 -11.5 37t-15 43t-12.5 40zM171 301h184q-17 57 -51.5 179t-41.5 146 q-14 -34 -52.5 -179t-38.5 -146zM230 846q7 -8 10.5 -29t3.5 -32t-1 -17l-8 -7q-36 -12 -72 -15h-12l-10 3q-15 30 -15 78l10 8q36 13 70 15h16zM428 855q7 -8 10.5 -29.5t3.5 -32t-1 -16.5l-8 -7q-36 -12 -72 -15h-12l-10 3q-15 30 -15 78l10 8q36 13 70 15h16z" />
<glyph unicode="&#xc5;" horiz-adv-x="595" d="M373 244q-38 1 -108.5 1t-107.5 -1q-27 -115 -33 -150t-6 -77v-17h-136v10q43 33 116 270q119 384 122 421l14 1q-26 11 -44.5 35.5t-18.5 52.5q0 45 30 75t72 30q43 0 70 -28t27 -66q0 -60 -50 -90l16 2q0 -34 61 -214.5t100 -284.5t59.5 -143t45.5 -61v-10h-168v17 q0 43 -22 107q-3 11 -11.5 37t-15 43t-12.5 40zM171 301h184q-17 57 -51.5 179t-41.5 146q-14 -34 -52.5 -179t-38.5 -146zM264 852q-49 0 -49 -48q0 -30 16 -45.5t41.5 -15.5t39.5 9q13 13 13 40.5t-15.5 43.5t-45.5 16z" />
<glyph unicode="&#xc6;" horiz-adv-x="865" d="M772 628q-59 15 -142.5 15t-106.5 -2q-2 -38 -2 -266l238 5l-29 -69h-7q-68 8 -108 8t-94 -3q0 -223 4 -253q23 -3 76 -3q157 0 229 32h7l-18 -92h-419v7q16 62 16 203v62h-78q-56 0 -98 -1q-25 -42 -73 -142t-48 -129h-129v10q23 15 68 83q12 18 27 44t26.5 45t27 47.5 t23.5 43.5q32 60 84 157q123 226 129 270h25l404 3l-25 -75h-7zM416 490q0 40 -4 110h-6l-138 -270h148v160z" />
<glyph unicode="&#xc7;" horiz-adv-x="658" d="M49 336q0 173 105.5 274.5t277.5 101.5q33 0 85.5 -12t97.5 -36q-12 -63 -42 -106q-102 83 -217 83q-42 0 -76 -7q-118 -90 -118 -267q0 -121 69.5 -208.5t183.5 -87.5q68 0 188 68l27 -41q-105 -76 -175 -97q-33 -10 -64 -13l-32 -53q10 3 37 2.5t50.5 -19t23.5 -56 t-32 -60.5t-77 -23q-23 0 -56 10.5t-46 18.5l16 32q34 -17 67 -17q52 0 52 45q0 21 -12 33q-15 7 -35.5 7t-41.5 -4l-6 9l36 76q-125 13 -205.5 106.5t-80.5 240.5z" />
<glyph unicode="&#xc8;" horiz-adv-x="573" d="M480 628q-59 15 -142.5 15t-106.5 -2q-2 -38 -2 -246l238 5l-29 -69h-7q-68 8 -108 8t-94 -3q0 -243 4 -273q23 -3 76 -3q157 0 229 32h7l-18 -92h-419v7q16 62 16 203v280q0 141 -16 203v7l404 3l-25 -75h-7zM407 784l-10 -33q-114 9 -229 55q6 46 37 81 q87 -66 202 -103z" />
<glyph unicode="&#xc9;" horiz-adv-x="573" d="M480 628q-59 15 -142.5 15t-106.5 -2q-2 -38 -2 -246l238 5l-29 -69h-7q-68 8 -108 8t-94 -3q0 -243 4 -273q23 -3 76 -3q157 0 229 32h7l-18 -92h-419v7q16 62 16 203v280q0 141 -16 203v7l404 3l-25 -75h-7zM248 751l-10 33q115 37 202 103q31 -35 37 -81 q-115 -46 -229 -55z" />
<glyph unicode="&#xca;" horiz-adv-x="573" d="M480 628q-59 15 -142.5 15t-106.5 -2q-2 -38 -2 -246l238 5l-29 -69h-7q-68 8 -108 8t-94 -3q0 -243 4 -273q23 -3 76 -3q157 0 229 32h7l-18 -92h-419v7q16 62 16 203v280q0 141 -16 203v7l404 3l-25 -75h-7zM292 903h80q26 -53 74 -98q18 -16 51 -44l-28 -31 q-71 41 -140 115q-66 -66 -128 -110l-29 30q87 76 120 138z" />
<glyph unicode="&#xcb;" horiz-adv-x="573" d="M480 628q-59 15 -142.5 15t-106.5 -2q-2 -38 -2 -246l238 5l-29 -69h-7q-68 8 -108 8t-94 -3q0 -243 4 -273q23 -3 76 -3q157 0 229 32h7l-18 -92h-419v7q16 62 16 203v280q0 141 -16 203v7l404 3l-25 -75h-7zM474 854q7 -8 10.5 -29t3.5 -32t-1 -17l-8 -7 q-36 -12 -72 -15h-12l-10 3q-15 30 -15 78l10 8q36 13 70 15h16zM276 845q7 -8 10.5 -29.5t3.5 -32t-1 -16.5l-8 -7q-36 -12 -72 -15h-12l-10 3q-15 30 -15 78l10 8q36 13 70 15h16z" />
<glyph unicode="&#xcc;" horiz-adv-x="353" d="M226 480v-270q0 -37 4.5 -108.5t10.5 -94.5v-7h-133v7q15 58 15 213v270q0 145 -15 203v7h133v-7q-6 -23 -10.5 -99t-4.5 -114zM253 784l-10 -33q-114 9 -229 55q6 46 37 81q87 -66 202 -103z" />
<glyph unicode="&#xcd;" horiz-adv-x="353" d="M232 480v-270q0 -37 4.5 -108.5t10.5 -94.5v-7h-133v7q15 58 15 213v270q0 145 -15 203v7h133v-7q-6 -23 -10.5 -99t-4.5 -114zM111 751l-10 33q115 37 202 103q31 -35 37 -81q-115 -46 -229 -55z" />
<glyph unicode="&#xce;" horiz-adv-x="348" d="M226 480v-270q0 -37 4.5 -108.5t10.5 -94.5v-7h-133v7q15 58 15 213v270q0 145 -15 203v7h133v-7q-6 -23 -10.5 -99t-4.5 -114zM133 903h80q26 -53 75 -98q17 -16 50 -44l-28 -31q-71 41 -140 115q-66 -66 -128 -110l-29 30q87 76 120 138z" />
<glyph unicode="&#xcf;" horiz-adv-x="348" d="M230 480v-270q0 -37 4.5 -108.5t10.5 -94.5v-7h-133v7q15 58 15 213v270q0 145 -15 203v7h133v-7q-6 -23 -10.5 -99t-4.5 -114zM320 856q7 -8 10.5 -29t3.5 -32t-1 -17l-8 -7q-36 -12 -72 -15h-12l-10 3q-15 30 -15 78l10 8q36 13 70 15h16zM122 847q7 -8 10.5 -29.5 t3.5 -32t-1 -16.5l-8 -7q-36 -12 -72 -15h-12l-10 3q-15 30 -15 78l10 8q36 13 70 15h16z" />
<glyph unicode="&#xd0;" horiz-adv-x="742" d="M154 698q185 3 188 3q177 0 264 -80.5t87 -247.5q0 -105 -33 -187q-75 -186 -315 -186l-190 1h-59v7q16 62 16 203v140l-110 -5l23 56h7q36 -3 80 -3v91q0 141 -16 203v7zM341 68q121 0 173 31q66 75 66 244.5t-60.5 233.5t-203.5 64q-3 0 -99 -1q-2 -37 -2 -240h11 q33 0 149 4l-25 -58h-7q-73 5 -128 6v-18q0 -230 4 -260q60 -6 122 -6z" />
<glyph unicode="&#xd1;" horiz-adv-x="714" d="M180 0h-101v7q15 66 15 232v224q0 154 -13 230v7l121 9l350 -544v325q0 53 -6 115.5t-15 87.5v7h105v-7q-15 -66 -15 -232v-251q0 -60 4.5 -128.5t8.5 -81.5l-94 -10l-378 585v-365q0 -133 18 -203v-7zM442 781q-24 0 -74.5 24t-75 24t-42.5 -8.5t-45 -29.5l-20 18 q24 30 60.5 62.5t59 32.5t71 -21.5t69.5 -21.5q39 0 92 37l19 -17q-77 -100 -114 -100z" />
<glyph unicode="&#xd2;" horiz-adv-x="753" d="M134.5 89q-85.5 101 -85.5 255.5t97 262t250 107.5q99 0 170 -49q138 -95 138 -297q0 -165 -97.5 -272.5t-242 -107.5t-230 101zM591 341q0 128 -48 209q-53 91 -178 91q-88 0 -138 -31q-29 -36 -47 -101.5t-18 -147t21 -147t75.5 -110.5t134 -45t131.5 33q67 75 67 249z M463 784l-10 -33q-114 9 -229 55q6 46 37 81q87 -66 202 -103z" />
<glyph unicode="&#xd3;" horiz-adv-x="753" d="M134.5 89q-85.5 101 -85.5 255.5t97 262t250 107.5q99 0 170 -49q138 -95 138 -297q0 -165 -97.5 -272.5t-242 -107.5t-230 101zM591 341q0 128 -48 209q-53 91 -178 91q-88 0 -138 -31q-29 -36 -47 -101.5t-18 -147t21 -147t75.5 -110.5t134 -45t131.5 33q67 75 67 249z M295 751l-10 33q115 37 202 103q31 -35 37 -81q-115 -46 -229 -55z" />
<glyph unicode="&#xd4;" horiz-adv-x="753" d="M134.5 89q-85.5 101 -85.5 255.5t97 262t250 107.5q99 0 170 -49q138 -95 138 -297q0 -165 -97.5 -272.5t-242 -107.5t-230 101zM591 341q0 128 -48 209q-53 91 -178 91q-88 0 -138 -31q-29 -36 -47 -101.5t-18 -147t21 -147t75.5 -110.5t134 -45t131.5 33q67 75 67 249z M335 903h80q26 -53 75 -98q17 -16 50 -44l-28 -31q-71 41 -140 115q-66 -66 -128 -110l-29 30q87 76 120 138z" />
<glyph unicode="&#xd5;" horiz-adv-x="753" d="M134.5 89q-85.5 101 -85.5 255.5t97 262t250 107.5q99 0 170 -49q138 -95 138 -297q0 -165 -97.5 -272.5t-242 -107.5t-230 101zM591 341q0 128 -48 209q-53 91 -178 91q-88 0 -138 -31q-29 -36 -47 -101.5t-18 -147t21 -147t75.5 -110.5t134 -45t131.5 33q67 75 67 249z M447 781q-24 0 -74.5 24t-75 24t-42.5 -8.5t-45 -29.5l-20 18q24 30 60.5 62.5t59 32.5t71 -21.5t69.5 -21.5q39 0 92 37l19 -17q-77 -100 -114 -100z" />
<glyph unicode="&#xd6;" horiz-adv-x="753" d="M134.5 89q-85.5 101 -85.5 255.5t97 262t250 107.5q99 0 170 -49q138 -95 138 -297q0 -165 -97.5 -272.5t-242 -107.5t-230 101zM591 341q0 128 -48 209q-53 91 -178 91q-88 0 -138 -31q-29 -36 -47 -101.5t-18 -147t21 -147t75.5 -110.5t134 -45t131.5 33q67 75 67 249z M320 846q7 -8 10.5 -29t3.5 -32t-1 -17l-8 -7q-36 -12 -72 -15h-12l-10 3q-15 30 -15 78l10 8q36 13 70 15h16zM518 855q7 -8 10.5 -29.5t3.5 -32t-1 -16.5l-8 -7q-36 -12 -72 -15h-12l-10 3q-15 30 -15 78l10 8q36 13 70 15h16z" />
<glyph unicode="&#xd7;" horiz-adv-x="565" d="M72 162l160 157l-160 157l51 51l159 -159l158 159l51 -52l-159 -157l161 -157l-51 -51l-161 159l-158 -159z" />
<glyph unicode="&#xd8;" horiz-adv-x="776" d="M49 347q0 151 98 259t241 108q122 0 202 -66l50 80l87 13v-6q-36 -42 -101 -124q78 -95 78 -251t-98 -264t-241 -108q-91 0 -161 42q-37 -53 -59 -91l-92 -16v6q31 36 106 134q-110 99 -110 284zM359 641q-34 0 -73.5 -9t-58.5 -22q-29 -36 -47 -103.5t-18 -135.5 q0 -157 56 -232q93 121 317 431q-58 71 -176 71zM591 333q0 127 -30 193q-65 -86 -306 -425q56 -42 150 -42q69 0 119 33q33 36 50 103.5t17 137.5z" />
<glyph unicode="&#xd9;" horiz-adv-x="701" d="M609 501v-190q0 -96 -14.5 -158t-48 -99t-81.5 -51.5t-121 -14.5q-142 0 -199 67.5t-57 219.5v211q0 149 -15 207v7h130v-7q-13 -85 -13 -326v-65q0 -83 8 -125t14 -53t15.5 -26t21.5 -21.5t29 -13.5q25 -11 82 -11q90 0 135 30q26 42 33 115t7 242.5t-15 253.5v7h104v-7 q-6 -24 -10.5 -90.5t-4.5 -101.5zM436 784l-10 -33q-114 9 -229 55q6 46 37 81q87 -66 202 -103z" />
<glyph unicode="&#xda;" horiz-adv-x="701" d="M609 501v-190q0 -96 -14.5 -158t-48 -99t-81.5 -51.5t-121 -14.5q-142 0 -199 67.5t-57 219.5v211q0 149 -15 207v7h130v-7q-13 -85 -13 -326v-65q0 -83 8 -125t14 -53t15.5 -26t21.5 -21.5t29 -13.5q25 -11 82 -11q90 0 135 30q26 42 33 115t7 242.5t-15 253.5v7h104v-7 q-6 -24 -10.5 -90.5t-4.5 -101.5zM284 751l-10 33q115 37 202 103q31 -35 37 -81q-115 -46 -229 -55z" />
<glyph unicode="&#xdb;" horiz-adv-x="701" d="M609 501v-190q0 -96 -14.5 -158t-48 -99t-81.5 -51.5t-121 -14.5q-142 0 -199 67.5t-57 219.5v211q0 149 -15 207v7h130v-7q-13 -85 -13 -326v-65q0 -83 8 -125t14 -53t15.5 -26t21.5 -21.5t29 -13.5q25 -11 82 -11q90 0 135 30q26 42 33 115t7 242.5t-15 253.5v7h104v-7 q-6 -24 -10.5 -90.5t-4.5 -101.5zM315 903h80q26 -53 75 -98q17 -16 50 -44l-28 -31q-71 41 -140 115q-66 -66 -128 -110l-29 30q87 76 120 138z" />
<glyph unicode="&#xdc;" horiz-adv-x="744" d="M643 501v-190q0 -96 -14.5 -158t-48 -99t-81.5 -51.5t-121 -14.5q-142 0 -199 67.5t-57 219.5v211q0 149 -15 207v7h130v-7q-13 -84 -13 -326v-65q0 -83 8 -125t14 -53t15.5 -26t21.5 -21.5t29 -13.5q25 -11 82 -11q90 0 135 30q26 42 33 115t7 242.5t-15 253.5v7h104v-7 q-6 -24 -10.5 -90.5t-4.5 -101.5zM537 855q7 -8 10.5 -29.5t3.5 -32t-1 -16.5l-8 -7q-36 -12 -72 -15h-12l-10 3q-15 30 -15 78l10 8q36 13 70 15h16zM339 846q7 -8 10.5 -29t3.5 -32t-1 -17l-8 -7q-36 -12 -72 -15h-12l-10 3q-15 30 -15 78l10 8q36 13 70 15h16z" />
<glyph unicode="&#xdd;" horiz-adv-x="511" d="M277 348q127 275 127 335v17h116v-10q-41 -30 -209 -400v-80q0 -35 4.5 -107t9.5 -96v-7h-128v7q14 61 14 176v110l-96 189q-99 189 -130 208v10h148v-17q0 -39 32.5 -109t48.5 -104t20 -41q13 -20 43 -81zM189 751l-10 33q115 37 202 103q31 -35 37 -81 q-115 -46 -229 -55z" />
<glyph unicode="&#xde;" horiz-adv-x="620" d="M230 136q0 -83 19 -130v-6h-141v7q19 51 19 143v362q-2 127 -15 180v7h133v-7q-3 -16 -9 -77h90q256 0 256 -191q0 -108 -75.5 -168.5t-194.5 -60.5q-18 0 -82 8v-67zM433.5 526.5q-35.5 37.5 -111 37.5t-90.5 -2q-2 -27 -2 -175v-136q39 -11 81 -11q77 0 117.5 45.5 t40.5 124.5t-35.5 116.5z" />
<glyph unicode="&#xdf;" horiz-adv-x="601" d="M58 460l57 -3v46q0 103 63.5 170t157.5 67q67 0 108.5 -31.5t41.5 -97.5q0 -54 -44 -89l-36 -30q-44 -35 -44 -84q0 -54 76 -92q31 -15 62 -33.5t53 -53t22 -84.5q0 -71 -45 -113q-46 -43 -124.5 -43t-132.5 41q1 51 19 85q18 -24 55.5 -44.5t69.5 -20.5t46 9 q16 17 16 79q0 55 -71 94q-30 17 -59.5 35.5t-50 50t-20.5 74t19 74t41 47.5q60 44 60 90q0 75 -105 75q-41 0 -63 -17q-21 -29 -21 -123v-538h-111v7q17 50 17 163v232l-80 -3z" />
<glyph unicode="&#xe0;" horiz-adv-x="504" d="M311 530q-95 52 -187 144q25 41 68 58q54 -96 142 -176zM330 200q-41 15 -94.5 15t-77.5 -17q-15 -23 -15 -61.5t21 -60.5t52.5 -22t64.5 16.5t49 35.5v94zM346 56q-61 -67 -137.5 -67t-120 33t-43.5 106.5t51.5 105.5t145.5 32l88 -3v57q0 53 -26 86t-79 33 q-39 -1 -125 -75q-29 37 -41 96q99 32 182 32t133 -43t50 -122v-168q1 -45 14.5 -83.5t35.5 -53.5l2 -10l-107 -26q-13 32 -23 70z" />
<glyph unicode="&#xe1;" horiz-adv-x="504" d="M402 674q-98 -95 -187 -144l-23 26q88 80 142 176q43 -17 68 -58zM330 200q-41 15 -94.5 15t-77.5 -17q-15 -23 -15 -61.5t21 -60.5t52.5 -22t64.5 16.5t49 35.5v94zM346 56q-61 -67 -137.5 -67t-120 33t-43.5 106.5t51.5 105.5t145.5 32l88 -3v57q0 53 -26 86t-79 33 q-39 -1 -125 -75q-29 37 -41 96q99 32 182 32t133 -43t50 -122v-168q1 -45 14.5 -83.5t35.5 -53.5l2 -10l-107 -26q-13 32 -23 70z" />
<glyph unicode="&#xe2;" horiz-adv-x="504" d="M208 718l70 11q21 -62 64 -113q15 -18 45 -52l-34 -34q-25 20 -63.5 62.5t-54.5 68.5q-45 -62 -104 -123l-30 27q31 35 44 50t33 45t30 58zM330 200q-41 15 -94.5 15t-77.5 -17q-15 -23 -15 -61.5t21 -60.5t52.5 -22t64.5 16.5t49 35.5v94zM346 56q-61 -67 -137.5 -67 t-120 33t-43.5 106.5t51.5 105.5t145.5 32l88 -3v57q0 53 -26 86t-79 33q-39 -1 -125 -75q-29 37 -41 96q99 32 182 32t133 -43t50 -122v-168q1 -45 14.5 -83.5t35.5 -53.5l2 -10l-107 -26q-13 32 -23 70z" />
<glyph unicode="&#xe3;" horiz-adv-x="504" d="M248.5 593q-50.5 24 -79 24t-83.5 -38l-20 18q24 30 60.5 62.5t59 32.5t71 -21.5t74 -21.5t87.5 37l19 -17q-77 -100 -114 -100q-24 0 -74.5 24zM330 200q-41 15 -94.5 15t-77.5 -17q-15 -23 -15 -61.5t21 -60.5t52.5 -22t64.5 16.5t49 35.5v94zM346 56 q-61 -67 -137.5 -67t-120 33t-43.5 106.5t51.5 105.5t145.5 32l88 -3v57q0 53 -26 86t-79 33q-39 -1 -125 -75q-29 37 -41 96q99 32 182 32t133 -43t50 -122v-168q1 -45 14.5 -83.5t35.5 -53.5l2 -10l-107 -26q-13 32 -23 70z" />
<glyph unicode="&#xe4;" horiz-adv-x="504" d="M400 687q7 -8 10.5 -29.5t3.5 -32.5t-1 -18l-8 -7q-37 -12 -74 -15h-12l-10 3q-15 30 -15 80l10 8q36 13 71 15h17zM184 678q7 -8 10.5 -29.5t3.5 -32.5t-1 -18l-8 -7q-36 -12 -73 -15h-13l-10 3q-15 30 -15 79l10 9q38 13 72 15h16zM330 200q-41 15 -94.5 15t-77.5 -17 q-15 -23 -15 -61.5t21 -60.5t52.5 -22t64.5 16.5t49 35.5v94zM346 56q-61 -67 -137.5 -67t-120 33t-43.5 106.5t51.5 105.5t145.5 32l88 -3v57q0 53 -26 86t-79 33q-39 -1 -125 -75q-29 37 -41 96q99 32 182 32t133 -43t50 -122v-168q1 -45 14.5 -83.5t35.5 -53.5l2 -10 l-107 -26q-13 32 -23 70z" />
<glyph unicode="&#xe5;" horiz-adv-x="504" d="M317.5 706q25.5 -26 25.5 -66.5t-28.5 -70t-70 -29.5t-67.5 26t-26 66.5t29 70t70.5 29.5t67 -26zM295 637q0 46 -46 46q-51 0 -51 -52q0 -45 47 -45q50 0 50 51zM330 200q-41 15 -94.5 15t-77.5 -17q-15 -23 -15 -61.5t21 -60.5t52.5 -22t64.5 16.5t49 35.5v94zM346 56 q-61 -67 -137.5 -67t-120 33t-43.5 106.5t51.5 105.5t145.5 32l88 -3v57q0 53 -26 86t-79 33q-39 -1 -125 -75q-29 37 -41 96q99 32 182 32t133 -43t50 -122v-168q1 -45 14.5 -83.5t35.5 -53.5l2 -10l-107 -26q-13 32 -23 70z" />
<glyph unicode="&#xe6;" horiz-adv-x="780" d="M627.5 10q-48.5 -21 -90 -21t-88.5 22.5t-73 62.5q-78 -85 -176 -85q-66 0 -110.5 34.5t-44.5 102.5q0 135 197 135l88 -4v63q0 53 -26 86t-79 33q-39 -1 -125 -75q-29 37 -41 96q99 32 178 32q117 0 163 -75q67 75 160 75t136 -59t43 -162l-37 -36h-266q0 -82 36 -125 t96.5 -43t146.5 49l25 -38q-18 -15 -41 -31t-71.5 -37zM546 442q-47 0 -70 -19q-19 -26 -30 -66t-11 -70l205 8q0 147 -94 147zM333 196q-44 14 -97 14t-78 -16q-15 -22 -15 -59t22 -59t57.5 -22t70.5 19t56 46q-12 39 -16 77z" />
<glyph unicode="&#xe7;" horiz-adv-x="490" d="M169 354.5q-19 -49.5 -19 -118t27.5 -119.5t87.5 -51q40 0 93 18.5t70 31.5l25 -39q-97 -69 -160 -84l-38 -61q10 3 37 2.5t50.5 -19t23.5 -56t-32 -60.5t-77 -23q-23 0 -56 10.5t-46 18.5l16 32q34 -17 67 -17q52 0 52 45q0 21 -12 33q-15 7 -35.5 7t-41.5 -4l-6 9 l38 80q-88 9 -138.5 75.5t-50.5 173t74.5 180.5t170 74t158.5 -43q-39 -62 -51 -75q-68 52 -130 52q-23 0 -45 -3q-33 -20 -52 -69.5z" />
<glyph unicode="&#xe8;" horiz-adv-x="494" d="M294 530q-89 49 -187 144q25 41 68 58q54 -96 142 -176zM267 -11q-105 0 -164 65t-59 171.5t66 186.5t164 80q179 0 179 -221l-37 -36h-266q0 -84 36 -126t97 -42q24 0 68 14.5t78 34.5l25 -38q-19 -19 -82.5 -54t-104.5 -35zM256 442q-42 0 -65 -19q-19 -26 -30 -66 t-11 -70l205 8q0 147 -99 147z" />
<glyph unicode="&#xe9;" horiz-adv-x="494" d="M391 674q-98 -95 -187 -144l-23 26q88 80 142 176q43 -17 68 -58zM267 -11q-105 0 -164 65t-59 171.5t66 186.5t164 80q179 0 179 -221l-37 -36h-266q0 -84 36 -126t97 -42q24 0 68 14.5t78 34.5l25 -38q-19 -19 -82.5 -54t-104.5 -35zM256 442q-42 0 -65 -19 q-19 -26 -30 -66t-11 -70l205 8q0 147 -99 147z" />
<glyph unicode="&#xea;" horiz-adv-x="494" d="M229 718l70 11q21 -62 64 -113q15 -18 45 -52l-34 -34q-25 20 -63.5 62.5t-54.5 68.5q-45 -62 -104 -123l-30 27q31 35 44 50t33 45t30 58zM267 -11q-105 0 -164 65t-59 171.5t66 186.5t164 80q179 0 179 -221l-37 -36h-266q0 -84 36 -126t97 -42q24 0 68 14.5t78 34.5 l25 -38q-19 -19 -82.5 -54t-104.5 -35zM256 442q-42 0 -65 -19q-19 -26 -30 -66t-11 -70l205 8q0 147 -99 147z" />
<glyph unicode="&#xeb;" horiz-adv-x="494" d="M398 687q7 -8 10.5 -29.5t3.5 -32.5t-1 -18l-8 -7q-37 -12 -73 -15h-13l-10 3q-15 30 -15 80l10 8q38 13 71 15h17zM194 678q7 -8 10.5 -29.5t3.5 -32.5t-1 -18l-8 -7q-37 -12 -73 -15h-13l-10 3q-15 30 -15 79l10 9q38 13 71 15h17zM267 -11q-105 0 -164 65t-59 171.5 t66 186.5t164 80q179 0 179 -221l-37 -36h-266q0 -84 36 -126t97 -42q24 0 68 14.5t78 34.5l25 -38q-19 -19 -82.5 -54t-104.5 -35zM256 442q-42 0 -65 -19q-19 -26 -30 -66t-11 -70l205 8q0 147 -99 147z" />
<glyph unicode="&#xec;" horiz-adv-x="288" d="M109 139v194q0 89 -50 124v12l141 24l6 -10q-3 -29 -3 -83v-236q0 -100 25 -157v-7h-135v7q16 47 16 132zM203 530q-89 49 -187 144q25 41 68 58q54 -96 142 -176z" />
<glyph unicode="&#xed;" horiz-adv-x="286" d="M99 139v194q0 89 -50 124v12l141 24l6 -10q-3 -29 -3 -83v-236q0 -100 25 -157v-7h-135v7q16 47 16 132zM291 674q-92 -92 -187 -144l-23 26q88 80 142 176q43 -17 68 -58z" />
<glyph unicode="&#xee;" horiz-adv-x="344" d="M128 139v194q0 89 -50 124v12l141 24l6 -10q-3 -29 -3 -83v-236q0 -100 25 -157v-7h-135v7q16 47 16 132zM109 718l70 11q21 -62 64 -113q15 -18 45 -52l-34 -34q-25 20 -63.5 62.5t-54.5 68.5q-45 -62 -104 -123l-30 27q31 35 44 50t33 45t30 58z" />
<glyph unicode="&#xef;" horiz-adv-x="357" d="M133 139v194q0 89 -50 124v12l141 24l6 -10q-3 -29 -3 -83v-236q0 -100 25 -157v-7h-135v7q16 47 16 132zM299 687q7 -8 10.5 -29.5t3.5 -32.5t-1 -18l-8 -7q-37 -12 -74 -15h-12l-10 3q-15 30 -15 80l10 8q36 13 71 15h17zM129 678q7 -8 10.5 -29.5t3.5 -32.5t-1 -18 l-8 -7q-36 -12 -73 -15h-13l-10 3q-15 30 -15 79l10 9q38 13 72 15h16z" />
<glyph unicode="&#xf0;" d="M518 250q0 -106 -71 -184t-176 -78t-166 66.5t-61 178.5t66.5 185.5t178.5 73.5h6q-31 39 -70 75q-105 -40 -138 -55l4 58q53 16 96 33q-72 63 -139 97l-1 7l144 33q22 -36 77 -106q45 17 135 53l-3 -56q-33 -10 -100 -35q56 -59 76 -78q88 -85 115 -136t27 -132z M412 228q0 99 -31 153t-110 54q-51 0 -80 -22q-18 -23 -29.5 -70t-11.5 -90q0 -209 148 -209q46 0 75 21q19 23 29 71t10 92z" />
<glyph unicode="&#xf1;" horiz-adv-x="605" d="M370 569q-24 0 -74.5 24t-75.5 24q-33 0 -76 -31q-9 -6 -11 -7l-20 18q24 30 60.5 62.5t59 32.5t71 -21.5t74 -21.5t87.5 37l19 -17q-77 -100 -114 -100zM369 492q72 0 111.5 -46t39.5 -132v-144q0 -95 30 -163v-7h-141v7q17 50 17 133v153q0 58 -17.5 87.5t-70.5 29.5 t-136 -51v-189q0 -97 29 -163v-7h-140v7q17 50 17 133v170q0 43 -17.5 84.5t-40.5 55.5l-1 12l131 31l6 -10q8 -37 12 -75q37 29 57.5 43t52.5 27.5t61 13.5z" />
<glyph unicode="&#xf2;" d="M334 530q-89 49 -187 144q25 41 68 58q54 -96 142 -176zM105 54.5q-61 66.5 -61 174t71 185.5t178.5 78t166 -65t58.5 -174t-71 -187t-176 -78t-166 66.5zM412 228q0 99 -31 153t-110 54q-51 0 -80 -22q-18 -23 -29.5 -70t-11.5 -90q0 -209 148 -209q46 0 75 21 q19 23 29 71t10 92z" />
<glyph unicode="&#xf3;" d="M426 674q-92 -92 -187 -144l-23 26q88 80 142 176q43 -17 68 -58zM105 54.5q-61 66.5 -61 174t71 185.5t178.5 78t166 -65t58.5 -174t-71 -187t-176 -78t-166 66.5zM412 228q0 99 -31 153t-110 54q-51 0 -80 -22q-18 -23 -29.5 -70t-11.5 -90q0 -209 148 -209q46 0 75 21 q19 23 29 71t10 92z" />
<glyph unicode="&#xf4;" d="M254 718l70 11q21 -62 64 -113q15 -18 45 -52l-34 -34q-25 20 -63.5 62.5t-54.5 68.5q-45 -62 -104 -123l-30 27q31 35 44 50t33 45t30 58zM105 54.5q-61 66.5 -61 174t71 185.5t178.5 78t166 -65t58.5 -174t-71 -187t-176 -78t-166 66.5zM412 228q0 99 -31 153t-110 54 q-51 0 -80 -22q-18 -23 -29.5 -70t-11.5 -90q0 -209 148 -209q46 0 75 21q19 23 29 71t10 92z" />
<glyph unicode="&#xf5;" d="M357 569q-24 0 -74.5 24t-75.5 24q-33 0 -77 -31q-8 -6 -10 -7l-20 18q24 30 60.5 62.5t59 32.5t71 -21.5t74 -21.5t87.5 37l19 -17q-77 -100 -114 -100zM105 54.5q-61 66.5 -61 174t71 185.5t178.5 78t166 -65t58.5 -174t-71 -187t-176 -78t-166 66.5zM412 228 q0 99 -31 153t-110 54q-51 0 -80 -22q-18 -23 -29.5 -70t-11.5 -90q0 -209 148 -209q46 0 75 21q19 23 29 71t10 92z" />
<glyph unicode="&#xf6;" d="M418 687q7 -8 10.5 -29.5t3.5 -32.5t-1 -18l-8 -7q-37 -12 -73 -15h-13l-10 3q-15 30 -15 80l10 8q38 13 71 15h17zM216 678q7 -8 10.5 -29.5t3.5 -32.5t-1 -18l-8 -7q-37 -12 -73 -15h-13l-10 3q-15 30 -15 79l10 9q38 13 71 15h17zM105 54.5q-61 66.5 -61 174t71 185.5 t178.5 78t166 -65t58.5 -174t-71 -187t-176 -78t-166 66.5zM412 228q0 99 -31 153t-110 54q-51 0 -80 -22q-18 -23 -29.5 -70t-11.5 -90q0 -209 148 -209q46 0 75 21q19 23 29 71t10 92z" />
<glyph unicode="&#xf7;" horiz-adv-x="536" d="M216 466q0 20 13.5 34t33.5 14t34 -14t14 -34t-14 -33.5t-34 -13.5t-33.5 13.5t-13.5 33.5zM216 177q0 20 13.5 34t33.5 14t34 -14t14 -34t-14 -33.5t-34 -13.5t-33.5 13.5t-13.5 33.5zM526 354l-1 -66h-515l1 67z" />
<glyph unicode="&#xf8;" horiz-adv-x="548" d="M31 230q0 106 71 184t174 78q41 0 84 -12q21 41 38 84l62 6l-1 -6q-21 -32 -61 -100q107 -58 107 -214q0 -106 -71 -184t-174 -78q-55 0 -101 19q-15 -31 -33 -74l-73 -14l1 6q22 30 67 104q-90 64 -90 201zM399 228q0 116 -41 165q-57 -106 -166 -318q36 -31 87.5 -31 t80.5 21q19 23 29 71t10 92zM328 419q-29 16 -75 16t-75 -22q-18 -23 -29.5 -70t-11.5 -90q0 -93 29 -145q77 140 159 304z" />
<glyph unicode="&#xf9;" horiz-adv-x="602" d="M344 530q-95 52 -187 144q25 41 68 58q54 -96 142 -176zM236 -11q-84 0 -117.5 43.5t-33.5 134.5v143q0 95 -30 163v7h139v-7q-15 -53 -15 -133v-157q0 -60 15 -86t73 -26t136 55v184q0 97 -29 163v7h138v-7q-15 -53 -15 -133v-169q0 -44 15 -86.5t35 -56.5l1 -12 l-117 -28q-17 46 -24 88q-49 -42 -89 -64.5t-82 -22.5z" />
<glyph unicode="&#xfa;" horiz-adv-x="602" d="M442 674q-98 -95 -187 -144l-23 26q88 80 142 176q43 -17 68 -58zM236 -11q-84 0 -117.5 43.5t-33.5 134.5v143q0 95 -30 163v7h139v-7q-15 -53 -15 -133v-157q0 -60 15 -86t73 -26t136 55v184q0 97 -29 163v7h138v-7q-15 -53 -15 -133v-169q0 -44 15 -86.5t35 -56.5 l1 -12l-117 -28q-17 46 -24 88q-49 -42 -89 -64.5t-82 -22.5z" />
<glyph unicode="&#xfb;" horiz-adv-x="602" d="M256 718l70 11q21 -62 64 -113q15 -18 45 -52l-34 -34q-25 20 -63.5 62.5t-54.5 68.5q-45 -62 -104 -123l-30 27q31 35 44 50t33 45t30 58zM236 -11q-84 0 -117.5 43.5t-33.5 134.5v143q0 95 -30 163v7h139v-7q-15 -53 -15 -133v-157q0 -60 15 -86t73 -26t136 55v184 q0 97 -29 163v7h138v-7q-15 -53 -15 -133v-169q0 -44 15 -86.5t35 -56.5l1 -12l-117 -28q-17 46 -24 88q-49 -42 -89 -64.5t-82 -22.5z" />
<glyph unicode="&#xfc;" horiz-adv-x="602" d="M462 682q7 -8 10.5 -29.5t3.5 -32.5t-1 -18l-8 -7q-37 -12 -73 -15h-13l-10 3q-15 30 -15 80l10 8q38 13 71 15h17zM216 673q7 -8 10.5 -29.5t3.5 -32.5t-1 -18l-8 -7q-37 -12 -73 -15h-13l-10 3q-15 30 -15 79l10 9q38 13 71 15h17zM236 -11q-84 0 -117.5 43.5 t-33.5 134.5v143q0 95 -30 163v7h139v-7q-15 -53 -15 -133v-157q0 -60 15 -86t73 -26t136 55v184q0 97 -29 163v7h138v-7q-15 -53 -15 -133v-169q0 -44 15 -86.5t35 -56.5l1 -12l-117 -28q-17 46 -24 88q-49 -42 -89 -64.5t-82 -22.5z" />
<glyph unicode="&#xfd;" horiz-adv-x="489" d="M387 674q-92 -92 -187 -144l-23 26q88 80 142 176q43 -17 68 -58zM263 92q96 293 96 348q0 17 -7 28v12h107v-12q-15 -13 -163 -458q-71 -208 -81 -248v-8l-124 -9l-1 7q73 87 128 234q-6 17 -173 412q-20 47 -43 66v12l134 11v-12q0 -26 24 -100.5t103 -282.5z" />
<glyph unicode="&#xfe;" horiz-adv-x="588" d="M190 648v-231q83 74 165.5 74t135 -65t52.5 -158q0 -117 -71 -198t-168 -81q-37 0 -107 20v-69q2 -120 41 -168v-5l-143 -15q3 40 3 146l-2 683q0 80 -46 124v12l137 24l6 -10q-3 -29 -3 -83zM328 54q45 0 66 12q16 19 29 75t13 109q0 167 -101 167q-61 0 -139 -54v-268 q64 -41 132 -41z" />
<glyph unicode="&#xff;" horiz-adv-x="489" d="M402 687q7 -8 10.5 -29.5t3.5 -32.5t-1 -18l-8 -7q-37 -12 -74 -15h-12l-10 3q-15 30 -15 80l10 8q36 13 71 15h17zM213 678q7 -8 10.5 -29.5t3.5 -32.5t-1 -18l-8 -7q-36 -12 -73 -15h-13l-10 3q-15 30 -15 79l10 9q38 13 72 15h16zM263 92q96 293 96 348q0 17 -7 28v12 h107v-12q-15 -13 -163 -458q-71 -208 -81 -248v-8l-124 -9l-1 7q73 87 128 234q-6 17 -173 412q-20 47 -43 66v12l134 11v-12q0 -26 24 -100.5t103 -282.5z" />
<glyph unicode="&#x152;" horiz-adv-x="1055" d="M962 628q-59 15 -145.5 15t-109.5 -2q-2 -38 -2 -246l239 4l-16 -68h-7q-68 8 -115 8t-101 -3q0 -243 4 -273q23 -3 82 -3q157 0 229 32h7l-18 -92h-425v7q9 34 13 82q-99 -101 -238.5 -101t-224.5 100t-85 256.5t96.5 263t247.5 106.5q120 0 204 -86q-5 48 -9 65v7 l406 3l-25 -75h-7zM591 333q0 308 -232 308q-34 0 -73.5 -9t-58.5 -22q-29 -36 -47 -103.5t-18 -135.5q0 -312 243 -312q69 0 119 33q33 36 50 103.5t17 137.5z" />
<glyph unicode="&#x153;" horiz-adv-x="870" d="M643 -11q-127 0 -185 91q-72 -92 -182 -92t-171 66.5t-61 174t71 185.5t174 78q130 0 189 -90q70 90 172 90q179 0 179 -221l-37 -36h-266q0 -84 36 -126t97 -42q24 0 68 14.5t78 34.5l25 -38q-19 -19 -82.5 -54t-104.5 -35zM412 228q0 99 -31 153t-110 54q-51 0 -80 -22 q-18 -23 -29.5 -70t-11.5 -90q0 -209 148 -209q46 0 75 21q19 23 29 71t10 92zM632 442q-42 0 -65 -19q-19 -26 -30 -66t-11 -70l205 8q0 147 -99 147z" />
<glyph unicode="&#x2c6;" horiz-adv-x="500" d="M207 703h80q26 -53 75 -98q17 -16 50 -44l-28 -31q-71 41 -140 115q-66 -66 -128 -110l-29 30q87 76 120 138z" />
<glyph unicode="&#x2dc;" horiz-adv-x="500" d="M321 569q-24 0 -74.5 24t-75.5 24q-33 0 -77 -31q-8 -6 -10 -7l-20 18q24 30 60.5 62.5t59 32.5t71 -21.5t74 -21.5t87.5 37l19 -17q-77 -100 -114 -100z" />
<glyph unicode="&#x2000;" horiz-adv-x="452" />
<glyph unicode="&#x2001;" horiz-adv-x="904" />
<glyph unicode="&#x2002;" horiz-adv-x="452" />
<glyph unicode="&#x2003;" horiz-adv-x="904" />
<glyph unicode="&#x2004;" horiz-adv-x="301" />
<glyph unicode="&#x2005;" horiz-adv-x="226" />
<glyph unicode="&#x2006;" horiz-adv-x="150" />
<glyph unicode="&#x2007;" horiz-adv-x="150" />
<glyph unicode="&#x2008;" horiz-adv-x="113" />
<glyph unicode="&#x2009;" horiz-adv-x="180" />
<glyph unicode="&#x200a;" horiz-adv-x="50" />
<glyph unicode="&#x2010;" horiz-adv-x="354" d="M38 323q40 -9 90 -9l86 1q22 0 68.5 2t70.5 2l-30 -78h-7q-68 9 -181 9l-134 -6l30 79h7z" />
<glyph unicode="&#x2011;" horiz-adv-x="354" d="M38 323q40 -9 90 -9l86 1q22 0 68.5 2t70.5 2l-30 -78h-7q-68 9 -181 9l-134 -6l30 79h7z" />
<glyph unicode="&#x2012;" horiz-adv-x="354" d="M38 323q40 -9 90 -9l86 1q22 0 68.5 2t70.5 2l-30 -78h-7q-68 9 -181 9l-134 -6l30 79h7z" />
<glyph unicode="&#x2013;" horiz-adv-x="567" d="M37 323q77 -10 193 -10l198 2q22 0 68.5 2t70.5 2l-30 -76h-7q-73 9 -286 9l-244 -6l30 77h7z" />
<glyph unicode="&#x2014;" horiz-adv-x="942" d="M38 323q78 -9 330 -9t354 0.5t148.5 2.5t70.5 2l-30 -76h-7q-73 9 -659 9l-244 -6l30 77h7z" />
<glyph unicode="&#x2018;" horiz-adv-x="278" d="M81 538q0 21 4.5 40t12 37.5t20.5 39.5q17 29 47 70l38 -11q-18 -32 -27 -50q-19 -43 -19 -86q0 -12 2 -24q11 -29 51 -65l-1 -12q-22 -19 -32 -25.5t-17 -11.5q-13 -11 -19 -12l-13 8q-47 51 -47 102z" />
<glyph unicode="&#x2019;" horiz-adv-x="278" d="M197 615q0 -21 -4.5 -40t-12 -37.5t-20.5 -39.5q-17 -29 -47 -70l-38 11q18 32 27 51q19 42 19 85q0 12 -2 24q-11 29 -51 65l1 12q22 19 32 25.5t17 11.5q13 11 19 12q12 -7 13 -8q47 -51 47 -102z" />
<glyph unicode="&#x201a;" horiz-adv-x="304" d="M213 101q14 -32 14 -82q0 -94 -110 -208l-52 24q34 50 48 88t14 83.5t-30 78.5q0 7 3 11q44 17 91 17q7 0 12 -1q9 -10 10 -11z" />
<glyph unicode="&#x201c;" horiz-adv-x="477" d="M305 423q-48 51 -48 106q0 69 49 153q12 19 28 44l36 -8q-17 -33 -25.5 -70t-8.5 -56t5 -51q8 -22 56 -65l-1 -12q-43 -37 -78 -49q-12 8 -13 8zM111 422q-48 51 -48 107q0 68 49 151q12 20 28 45l36 -8q-17 -33 -25.5 -70t-8.5 -56t5 -51q8 -22 56 -65l-1 -12 q-43 -37 -78 -49q-12 7 -13 8z" />
<glyph unicode="&#x201d;" horiz-adv-x="477" d="M157 717q48 -51 48 -106q0 -69 -49 -153q-12 -19 -28 -44l-36 8q17 33 25.5 70t8.5 56t-5 51q-8 22 -56 65l1 12q43 37 78 49q13 -7 13 -8zM351 718q48 -51 48 -107q0 -68 -49 -151q-12 -20 -28 -45l-36 8q17 33 25.5 70t8.5 56t-5 51q-8 22 -56 65l1 12q43 37 78 49z " />
<glyph unicode="&#x201e;" horiz-adv-x="497" d="M213 101q14 -32 14 -82q0 -94 -110 -208l-52 24q34 50 48 88t14 83.5t-30 78.5q0 7 3 11q44 17 91 17q7 0 12 -1q9 -10 10 -11zM406 101q14 -32 14 -82q0 -94 -110 -208l-52 24q34 50 48 88t14 83.5t-30 78.5q0 7 3 11q44 17 91 17q7 0 12 -1q10 -10 10 -11z" />
<glyph unicode="&#x2022;" horiz-adv-x="530" d="M356 447q18 -27 24.5 -72t6.5 -69.5t-4 -42.5l-17 -15q-31 -20 -76 -27t-65 -7t-32 2l-20 10q-18 24 -24.5 68.5t-6.5 69t3 43.5l16 16q30 17 75.5 26.5t67.5 9.5t35 -2z" />
<glyph unicode="&#x202f;" horiz-adv-x="180" />
<glyph unicode="&#x2039;" horiz-adv-x="356" d="M61 263l-4 15q49 31 57 38l149 135l37 -35l-20 -23l-117 -126l137 -150l-38 -37l-41 41l-125 112z" />
<glyph unicode="&#x203a;" horiz-adv-x="356" d="M299 278l-4 -15l-35 -30l-125 -112l-41 -41l-38 37l137 150l-117 126l-20 23l37 35l149 -135q8 -7 57 -38z" />
<glyph unicode="&#x205f;" horiz-adv-x="226" />
<glyph unicode="&#x20ac;" horiz-adv-x="648" d="M219.5 640.5q95.5 71.5 209 71.5t175.5 -32q-1 -19 -15.5 -50.5t-26.5 -49.5q-87 61 -187 61q-52 0 -76 -8q-78 -72 -99 -182h195q44 0 139 7l-23 -61h-317v-19q0 -29 3 -56h194q45 0 139 7l-23 -61h-300q23 -90 78.5 -147.5t137.5 -57.5t172 53l25 -39 q-126 -89 -234 -89t-193 70.5t-106 210.5h-82l23 53h54q-1 10 -1 29t2 47h-68l23 53h55q31 118 126.5 189.5z" />
<glyph unicode="&#x25fc;" horiz-adv-x="480" d="M0 480h480v-480h-480v480z" />
</font>
</defs>
</svg>
